<?xml version="1.0" standalone="no"?>
<!DOCTYPE svg PUBLIC "-//W3C//DTD SVG 1.1//EN" "http://www.w3.org/Graphics/SVG/1.1/DTD/svg11.dtd" >
<svg>
<metadata>
Created by FontForge 20090622 at Sat Apr 18 18:52:45 2020
 By deploy user
Core Sans D 57 Cn Bold
</metadata>
<defs>
<font id="CoreSansD57CnBold" horiz-adv-x="278" >
  <font-face 
    font-family="Core Sans D 57 Cn Bold"
    font-weight="400"
    font-stretch="normal"
    units-per-em="1000"
    panose-1="2 11 8 6 3 3 2 2 2 4"
    ascent="800"
    descent="-200"
    x-height="500"
    cap-height="700"
    bbox="-339 -238 826 958"
    underline-thickness="24"
    underline-position="-183"
    unicode-range="U+0008-U+FB04"
  />
<missing-glyph horiz-adv-x="500" 
d="M430 0h-360v750h360v-750zM145 65h210v620h-210v-620z" />
    <glyph glyph-name="f_f" unicode="ff" horiz-adv-x="478" 
d="M64 500v54q0 87 29.5 122.5t102.5 35.5q32 0 64 -6l-7 -93q-18 3 -39 3q-26 0 -35 -13.5t-9 -51.5v-51h118v54q0 87 29.5 122.5t100.5 35.5h50v-95h-31q-25 0 -34 -13.5t-9 -51.5v-52h74v-95h-74v-405h-106v405h-118v-405h-106v405h-49v95h49z" />
    <glyph glyph-name="f_i" unicode="fi" horiz-adv-x="441" 
d="M289 0v405h-119v-405h-106v405h-49v95h49v54q0 87 29.5 122.5t100.5 35.5h50v-95h-31q-25 0 -34 -13.5t-9 -51.5v-52h225v-500h-106zM289 590v122h106v-122h-106z" />
    <glyph glyph-name="f_l" unicode="fl" horiz-adv-x="473" 
d="M288 157v445q-26 14 -65 14q-30 0 -41.5 -14.5t-11.5 -52.5v-49h74v-95h-74v-405h-106v405h-49v95h49v40q0 93 30.5 132.5t100.5 39.5q51 0 93 -22v22h105v-552q0 -38 9 -51.5t34 -13.5h24v-95h-48q-67 0 -95.5 35.5t-28.5 121.5z" />
    <glyph glyph-name="f_f_i" unicode="ffi" horiz-adv-x="665" 
d="M513 0v405h-119v-405h-106v405h-118v-405h-106v405h-49v95h49v54q0 87 29.5 122.5t102.5 35.5q32 0 64 -6l-7 -93q-18 3 -39 3q-26 0 -35 -13.5t-9 -51.5v-51h118v54q0 87 29.5 122.5t100.5 35.5h50v-95h-31q-25 0 -34 -13.5t-9 -51.5v-52h225v-500h-106zM513 590v122
h106v-122h-106z" />
    <glyph glyph-name="f_f_l" unicode="ffl" horiz-adv-x="697" 
d="M170 551v-51h118v40q0 93 30.5 132.5t100.5 39.5q51 0 93 -22v22h105v-552q0 -38 9 -51.5t34 -13.5h24v-95h-48q-67 0 -95.5 35.5t-28.5 121.5v445q-26 14 -65 14q-30 0 -41.5 -14.5t-11.5 -52.5v-49h74v-95h-74v-405h-106v405h-118v-405h-106v405h-49v95h49v54
q0 87 29.5 122.5t102.5 35.5q32 0 64 -6l-7 -93q-18 3 -39 3q-26 0 -35 -13.5t-9 -51.5z" />
    <glyph glyph-name=".notdef" horiz-adv-x="500" 
d="M430 0h-360v750h360v-750zM145 65h210v620h-210v-620z" />
    <glyph glyph-name=".null" horiz-adv-x="0" 
 />
    <glyph glyph-name=".null" horiz-adv-x="0" 
 />
    <glyph glyph-name=".null" horiz-adv-x="0" 
 />
    <glyph glyph-name="nonmarkingreturn" horiz-adv-x="333" 
 />
    <glyph glyph-name="CR" unicode="&#x9;" horiz-adv-x="156" 
 />
    <glyph glyph-name="CR" unicode="&#xd;" horiz-adv-x="156" 
 />
    <glyph glyph-name="space" unicode=" " horiz-adv-x="182" 
 />
    <glyph glyph-name="exclam" unicode="!" horiz-adv-x="220" 
d="M69 218l-15 378v104h112v-104l-15 -378h-82zM164 118v-118h-108v118h108z" />
    <glyph glyph-name="quotedbl" unicode="&#x22;" horiz-adv-x="345" 
d="M62 487l-13 213h101l-13 -213h-75zM208 487l-13 213h101l-13 -213h-75z" />
    <glyph glyph-name="numbersign" unicode="#" horiz-adv-x="497" 
d="M229 0l26 172h-69l-26 -172h-104l26 172h-60v101h76l24 154h-75v101h90l27 172h104l-27 -172h69l27 172h104l-27 -172h61v-101h-76l-24 -154h75v-101h-91l-26 -172h-104zM226 427l-24 -154h69l24 154h-69z" />
    <glyph glyph-name="dollar" unicode="$" horiz-adv-x="419" 
d="M148 705v82h104v-80q125 -25 125 -187v-18l-116 -5v25q0 86 -57 86t-57 -86v-13q0 -42 15.5 -63.5t54.5 -33.5l36 -11q77 -24 108 -69.5t31 -130.5v-18q0 -78 -33.5 -127.5t-96.5 -62.5v-80h-104v81q-62 14 -94 63t-32 126v12l116 6v-19q0 -90 64 -90t64 90v19
q0 42 -15 63t-55 34l-38 12q-76 24 -106.5 69t-30.5 130v14q0 153 117 182z" />
    <glyph glyph-name="percent" unicode="%" horiz-adv-x="616" 
d="M145 335q-52 0 -79.5 34t-27.5 89v131q0 55 27.5 89t79.5 34t79.5 -34t27.5 -89v-131q0 -55 -27.5 -89t-79.5 -34zM145 632q-22 0 -22 -33v-151q0 -33 22 -33t22 33v151q0 33 -22 33zM452 700l-208 -700h-80l208 700h80zM471 -12q-52 0 -79.5 34t-27.5 89v131
q0 55 27.5 89t79.5 34t79.5 -34t27.5 -89v-131q0 -55 -27.5 -89t-79.5 -34zM471 285q-22 0 -22 -33v-151q0 -33 22 -33t22 33v151q0 33 -22 33z" />
    <glyph glyph-name="ampersand" unicode="&#x26;" horiz-adv-x="471" 
d="M393 129l80 -129h-108l-25 40q-50 -52 -133 -52t-129.5 50.5t-46.5 140.5v10q0 110 77 187l15 15l-9 14q-50 81 -50 145v20q0 65 35.5 103t95.5 38q61 0 94.5 -39t33.5 -105v-15q0 -63 -15.5 -101t-57.5 -80l-4 -4l75 -122q7 46 9 120l97 -6q-4 -149 -34 -230zM137 185
v-7q0 -44 19 -68t55 -24q45 0 73 44l-106 172l-8 -9q-33 -38 -33 -108zM194 452l8 9q24 27 24 79v26q0 51 -32 51q-33 0 -33 -51v-23q0 -38 20 -70z" />
    <glyph glyph-name="quotesingle" unicode="'" horiz-adv-x="199" 
d="M62 488l-13 212h101l-13 -212h-75z" />
    <glyph glyph-name="parenleft" unicode="(" horiz-adv-x="269" 
d="M155 519v-347q0 -139 88 -175l-33 -105q-81 30 -123 99.5t-42 169.5v369q0 100 42 169.5t123 99.5l33 -105q-88 -36 -88 -175z" />
    <glyph glyph-name="parenright" unicode=")" horiz-adv-x="269" 
d="M114 172v347q0 139 -88 175l33 105q81 -30 123 -99.5t42 -169.5v-369q0 -100 -42 -169.5t-123 -99.5l-33 105q88 36 88 175z" />
    <glyph glyph-name="asterisk" unicode="*" horiz-adv-x="405" 
d="M155 143l10 115l-94 -67l-49 86l106 47l-106 50l48 82l94 -66l-11 116h99l-11 -116l94 66l48 -82l-106 -50l106 -47l-49 -86l-94 67l10 -115h-95z" />
    <glyph glyph-name="plus" unicode="+" horiz-adv-x="413" 
d="M33 280v90h123v136h101v-136h123v-90h-123v-136h-101v136h-123z" />
    <glyph glyph-name="comma" unicode="," horiz-adv-x="194" 
d="M94 0h-53v122h112v-130q0 -57 -26.5 -85t-85.5 -32v51q29 5 41 19t12 45v10z" />
    <glyph glyph-name="hyphen" unicode="-" horiz-adv-x="302" 
d="M33 278v94h236v-94h-236z" />
    <glyph glyph-name="period" unicode="." horiz-adv-x="194" 
d="M153 122v-122h-112v122h112z" />
    <glyph glyph-name="slash" unicode="/" horiz-adv-x="333" 
d="M336 783l-229 -876h-110l229 876h110z" />
    <glyph glyph-name="zero" unicode="0" horiz-adv-x="388" 
d="M142 518v-336q0 -53 13 -74t39 -21t39 21t13 74v336q0 53 -13 74t-39 21t-39 -21t-13 -74zM357 512v-324q0 -97 -42 -148.5t-121 -51.5t-121 51.5t-42 148.5v324q0 97 42 148.5t121 51.5t121 -51.5t42 -148.5z" />
    <glyph glyph-name="one" unicode="1" horiz-adv-x="388" 
d="M354 0h-290v99h90v475l-90 -41v108l112 59h89v-601h89v-99z" />
    <glyph glyph-name="two" unicode="2" horiz-adv-x="388" 
d="M194 613q-47 0 -47 -91v-47l-111 5v44q0 93 40.5 140.5t117.5 47.5t118 -47t41 -141v-27q0 -77 -48 -162l-133 -236h181v-99h-318v81l179 318q28 50 28 98v25q0 91 -48 91z" />
    <glyph glyph-name="three" unicode="3" horiz-adv-x="388" 
d="M357 252v-65q0 -97 -42 -148t-121 -51t-121 51t-42 149v34l111 5v-36q0 -59 12.5 -82t39.5 -23t39.5 23t12.5 82v49q0 112 -50 112q-19 0 -38 -15l-57 56l113 208h-167v99h292v-91l-99 -178q57 -1 87 -48t30 -131z" />
    <glyph glyph-name="four" unicode="4" horiz-adv-x="388" 
d="M115 235h95v262zM370 235v-98h-51v-137h-109v137h-193v86l179 477h123v-465h51z" />
    <glyph glyph-name="five" unicode="5" horiz-adv-x="388" 
d="M359 249v-63q0 -96 -42 -147t-121 -51t-121 51t-42 149v36l111 5v-38q0 -59 12.5 -81.5t39.5 -22.5t39.5 22.5t12.5 81.5v56q0 74 -10.5 100t-36.5 26q-31 0 -38 -45h-109v372h279v-99h-168v-163q20 33 69 33q125 0 125 -222z" />
    <glyph glyph-name="six" unicode="6" horiz-adv-x="388" 
d="M359 219v-22q0 -101 -42 -155t-123 -54t-123 54t-42 155v30q0 95 27 169l110 304h118l-99 -268q10 4 21 4q75 0 114 -56.5t39 -160.5zM140 227v-30q0 -62 12 -86.5t42 -24.5t42 24.5t12 86.5v30q0 62 -12 86.5t-42 24.5t-42 -24.5t-12 -86.5z" />
    <glyph glyph-name="seven" unicode="7" horiz-adv-x="388" 
d="M35 601v99h317v-86l-161 -614h-114l157 601h-199z" />
    <glyph glyph-name="eight" unicode="8" horiz-adv-x="388" 
d="M194 -12q-166 0 -166 211v22q0 128 69 165q-52 34 -52 127v22q0 85 39 131t110 46t110 -46t39 -131v-22q0 -93 -52 -127q69 -37 69 -165v-22q0 -211 -166 -211zM194 615q-44 0 -44 -81v-23q0 -81 44 -81t44 81v23q0 81 -44 81zM194 334q-31 0 -44.5 -25.5t-13.5 -88.5
v-19q0 -63 13.5 -88.5t44.5 -25.5t44.5 25.5t13.5 88.5v19q0 63 -13.5 88.5t-44.5 25.5z" />
    <glyph glyph-name="nine" unicode="9" horiz-adv-x="388" 
d="M29 481v22q0 101 42 155t123 54t123 -54t42 -155v-30q0 -96 -27 -169l-110 -304h-118l99 268q-10 -4 -21 -4q-75 0 -114 56.5t-39 160.5zM248 473v30q0 62 -12 86.5t-42 24.5t-42 -24.5t-12 -86.5v-30q0 -62 12 -86.5t42 -24.5t42 24.5t12 86.5z" />
    <glyph glyph-name="colon" unicode=":" horiz-adv-x="194" 
d="M153 122v-122h-112v122h112zM153 549v-122h-112v122h112z" />
    <glyph glyph-name="semicolon" unicode=";" horiz-adv-x="194" 
d="M153 549v-122h-112v122h112zM94 0h-53v122h112v-130q0 -57 -26.5 -85t-85.5 -32v51q29 5 41 19t12 45v10z" />
    <glyph glyph-name="less" unicode="&#x3c;" horiz-adv-x="413" 
d="M371 132l-329 143v96l329 143v-99l-226 -92l226 -92v-99z" />
    <glyph glyph-name="equal" unicode="=" horiz-adv-x="413" 
d="M33 367v90h347v-90h-347zM33 195v90h347v-90h-347z" />
    <glyph glyph-name="greater" unicode="&#x3e;" horiz-adv-x="413" 
d="M371 275l-329 -143v99l226 92l-226 92v99l329 -143v-96z" />
    <glyph glyph-name="question" unicode="?" horiz-adv-x="380" 
d="M242 118v-118h-108v118h108zM341 536v-30q0 -101 -56 -168q-25 -30 -34 -56.5t-9 -67.5v-26h-108v35q0 65 11.5 100.5t46.5 73.5q42 47 42 106v24q-1 79 -48 79t-47 -79v-25l-108 5v29q0 86 41 131t114 45t114 -45t41 -131z" />
    <glyph glyph-name="at" unicode="@" horiz-adv-x="538" 
d="M399 204v142q-18 31 -53 31q-29 0 -41.5 -22.5t-12.5 -80.5v-70q0 -57 12.5 -79.5t40.5 -22.5t41 22.5t13 79.5zM269 -189q-108 0 -166 65.5t-58 183.5v403q0 118 58 183.5t166 65.5t166 -65.5t58 -183.5v-266q0 -189 -151 -189q-150 0 -150 191v82q0 91 34.5 140.5
t102.5 49.5q43 0 70 -33v15q0 91 -33.5 129t-96.5 38t-96.5 -38t-33.5 -129v-383q0 -91 33.5 -129t96.5 -38q41 0 78 22l35 -78q-50 -36 -113 -36z" />
    <glyph glyph-name="A" unicode="A" horiz-adv-x="444" 
d="M321 0l-29 142h-140l-29 -142h-119l160 700h116l160 -700h-119zM222 486l-48 -240h96z" />
    <glyph glyph-name="B" unicode="B" horiz-adv-x="429" 
d="M217 0h-171v700h162q181 0 181 -195q0 -50 -19 -87t-52 -53q39 -18 62 -59t23 -101q0 -102 -48.5 -153.5t-137.5 -51.5zM208 307h-46v-203h44q41 0 61 24t20 79q0 100 -79 100zM162 411h32q41 0 60 21.5t19 69.5q0 49 -19 71.5t-60 22.5h-32v-185z" />
    <glyph glyph-name="C" unicode="C" horiz-adv-x="438" 
d="M223 92q38 0 55.5 31.5t17.5 100.5v12l116 -5v-22q0 -109 -50.5 -165t-138.5 -56t-138.5 56t-50.5 165v282q0 109 50.5 165t138.5 56t138.5 -56t50.5 -165v-22l-116 -5v12q0 69 -17.5 100.5t-55.5 31.5t-55.5 -31.5t-17.5 -100.5v-252q0 -69 17.5 -100.5t55.5 -31.5z" />
    <glyph glyph-name="D" unicode="D" horiz-adv-x="437" 
d="M214 0h-168v700h168q189 0 189 -218v-264q0 -218 -189 -218zM162 104h52q39 0 56 26.5t17 92.5v254q0 66 -17 92.5t-56 26.5h-52v-492z" />
    <glyph glyph-name="E" unicode="E" horiz-adv-x="399" 
d="M46 0v700h323v-104h-207v-185h178v-104h-178v-203h207v-104h-323z" />
    <glyph glyph-name="F" unicode="F" horiz-adv-x="385" 
d="M46 0v700h323v-104h-207v-194h185v-104h-185v-298h-116z" />
    <glyph glyph-name="G" unicode="G" horiz-adv-x="441" 
d="M223 272v100h189v-163q0 -109 -50.5 -165t-138.5 -56t-138.5 56t-50.5 165v282q0 109 50.5 165t138.5 56t138.5 -56t50.5 -165v-22l-116 -5v12q0 69 -17.5 100.5t-55.5 31.5t-55.5 -31.5t-17.5 -100.5v-252q0 -69 17.5 -100.5t55.5 -31.5t55.5 31.5t17.5 100.5v48h-73z
" />
    <glyph glyph-name="H" unicode="H" horiz-adv-x="454" 
d="M292 0v307h-130v-307h-116v700h116v-289h130v289h116v-700h-116z" />
    <glyph glyph-name="I" unicode="I" horiz-adv-x="208" 
d="M162 700v-700h-116v700h116z" />
    <glyph glyph-name="J" unicode="J" horiz-adv-x="395" 
d="M11 186v11l116 5v-6q0 -104 55 -104t55 104v504h116v-514q0 -96 -44.5 -147t-126.5 -51t-126.5 51t-44.5 147z" />
    <glyph glyph-name="K" unicode="K" horiz-adv-x="438" 
d="M392 700v-52q0 -96 -17.5 -153.5t-66.5 -110.5l130 -384h-121l-97 302l-58 -53v-249h-116v700h116v-302l35 33q46 45 62.5 90.5t16.5 127.5v51h116z" />
    <glyph glyph-name="L" unicode="L" horiz-adv-x="380" 
d="M46 0v700h116v-596h210v-104h-326z" />
    <glyph glyph-name="M" unicode="M" horiz-adv-x="554" 
d="M240 177l-80 220v-397h-114v700h103l128 -365l128 365h103v-700h-114v397l-80 -220h-74z" />
    <glyph glyph-name="N" unicode="N" horiz-adv-x="470" 
d="M321 0l-161 429v-429h-114v700h103l161 -429v429h114v-700h-103z" />
    <glyph glyph-name="O" unicode="O" horiz-adv-x="446" 
d="M296 224v252q0 69 -17.5 100.5t-55.5 31.5t-55.5 -31.5t-17.5 -100.5v-252q0 -69 17.5 -100.5t55.5 -31.5t55.5 31.5t17.5 100.5zM412 491v-282q0 -109 -50.5 -165t-138.5 -56t-138.5 56t-50.5 165v282q0 109 50.5 165t138.5 56t138.5 -56t50.5 -165z" />
    <glyph glyph-name="P" unicode="P" horiz-adv-x="430" 
d="M211 256h-49v-256h-116v700h165q87 0 139.5 -56t52.5 -166t-52.5 -166t-139.5 -56zM287 478q0 117 -92 117h-33v-234h33q92 0 92 117z" />
    <glyph glyph-name="Q" unicode="Q" horiz-adv-x="446" 
d="M412 491v-282q0 -85 -30 -136l57 -52l-56 -59l-57 52q-43 -26 -103 -26q-88 0 -138.5 56t-50.5 165v282q0 109 50.5 165t138.5 56t138.5 -56t50.5 -165zM250 195l40 -37q6 27 6 66v252q0 69 -17.5 100.5t-55.5 31.5t-55.5 -31.5t-17.5 -100.5v-252q0 -69 17.5 -100.5
t55.5 -31.5q11 0 17 1l-46 43z" />
    <glyph glyph-name="R" unicode="R" horiz-adv-x="436" 
d="M162 268v-268h-116v700h165q88 0 140 -53t52 -163q0 -136 -83 -188l104 -296h-121l-87 268h-54zM287 484q0 111 -92 111h-33v-222h33q92 0 92 111z" />
    <glyph glyph-name="S" unicode="S" horiz-adv-x="419" 
d="M32 183v12l116 6v-19q0 -90 64 -90t64 90v19q0 42 -15 63t-55 34l-38 12q-76 24 -106.5 69t-30.5 130v14q0 89 42.5 139t130.5 50q167 0 173 -192v-18l-116 -5v25q0 86 -57 86t-57 -86v-13q0 -42 15.5 -63.5t54.5 -33.5l36 -11q77 -24 108 -69.5t31 -130.5v-18
q0 -92 -46.5 -143.5t-133.5 -51.5t-133.5 51.5t-46.5 143.5z" />
    <glyph glyph-name="T" unicode="T" horiz-adv-x="386" 
d="M9 596v104h368v-104h-126v-596h-116v596h-126z" />
    <glyph glyph-name="U" unicode="U" horiz-adv-x="458" 
d="M229 -12q-88 0 -138 55.5t-50 161.5v495h116v-480q0 -67 17 -97.5t55 -30.5t55 30.5t17 97.5v480h116v-495q0 -106 -50 -161.5t-138 -55.5z" />
    <glyph glyph-name="V" unicode="V" horiz-adv-x="434" 
d="M275 0h-116l-154 700h118l94 -480l94 480h118z" />
    <glyph glyph-name="W" unicode="W" horiz-adv-x="670" 
d="M391 700l77 -458l76 458h118l-136 -700h-111l-80 474l-80 -474h-111l-136 700h118l76 -458l78 458h111z" />
    <glyph glyph-name="X" unicode="X" horiz-adv-x="444" 
d="M313 0l-91 251l-91 -251h-120l135 362l-125 338h120l81 -228l81 228h120l-125 -338l135 -362h-120z" />
    <glyph glyph-name="Y" unicode="Y" horiz-adv-x="426" 
d="M155 0v317l-147 383h119l86 -248l86 248h119l-147 -383v-317h-116z" />
    <glyph glyph-name="Z" unicode="Z" horiz-adv-x="383" 
d="M26 85l196 511h-189v104h324v-85l-196 -511h196v-104h-331v85z" />
    <glyph glyph-name="bracketleft" unicode="[" horiz-adv-x="262" 
d="M52 -93v876h188v-101h-79v-674h79v-101h-188z" />
    <glyph glyph-name="backslash" unicode="\" horiz-adv-x="333" 
d="M226 -93l-229 876h110l229 -876h-110z" />
    <glyph glyph-name="bracketright" unicode="]" horiz-adv-x="262" 
d="M210 783v-876h-188v101h79v674h-79v101h188z" />
    <glyph glyph-name="asciicircum" unicode="^" horiz-adv-x="358" 
d="M225 700l118 -218h-98l-66 123l-66 -123h-98l118 218h92z" />
    <glyph glyph-name="underscore" unicode="_" horiz-adv-x="350" 
d="M0 -172v72h350v-72h-350z" />
    <glyph glyph-name="grave" unicode="`" 
d="M153 569l-83 161h101l58 -161h-76z" />
    <glyph glyph-name="a" unicode="a" horiz-adv-x="379" 
d="M178 83q39 0 58 46v79h-51q-55 0 -55 -63v-9q0 -53 48 -53zM43 356v5q0 70 38.5 110.5t110.5 40.5t110.5 -40.5t38.5 -110.5v-361h-105v40q-23 -52 -89 -52q-53 0 -87.5 37t-34.5 106v13q0 72 42 113t117 41h52v55q0 64 -44 64t-44 -64v-3z" />
    <glyph glyph-name="b" unicode="b" horiz-adv-x="391" 
d="M146 375v-251q14 -41 54 -41q55 0 55 86v161q0 86 -55 86q-40 0 -54 -41zM361 339v-179q0 -87 -36 -129.5t-93 -42.5q-64 0 -86 48v-36h-106v712h106v-249q22 48 86 48q57 0 93 -42.5t36 -129.5z" />
    <glyph glyph-name="c" unicode="c" horiz-adv-x="375" 
d="M190 83q54 0 54 90v3l106 -5v-3q0 -85 -43 -132.5t-117 -47.5t-117 47.5t-43 132.5v164q0 85 43 132.5t117 47.5t117 -47.5t43 -132.5v-3l-106 -5v3q0 90 -54 90t-54 -90v-154q0 -90 54 -90z" />
    <glyph glyph-name="d" unicode="d" horiz-adv-x="391" 
d="M245 124v251q-14 41 -54 41q-55 0 -55 -86v-161q0 -86 55 -86q40 0 54 41zM30 160v179q0 87 36 129.5t93 42.5q64 0 86 -48v249h106v-712h-106v36q-22 -48 -86 -48q-57 0 -93 42.5t-36 129.5z" />
    <glyph glyph-name="e" unicode="e" horiz-adv-x="380" 
d="M242 146l106 -7q-7 -72 -49 -111.5t-109 -39.5q-74 0 -117 47.5t-43 132.5v164q0 85 43 132.5t117 47.5t117 -47.5t43 -132.5v-123h-214v-36q0 -90 54 -90q46 0 52 63zM136 327v-28h108v28q0 90 -54 90t-54 -90z" />
    <glyph glyph-name="f" unicode="f" horiz-adv-x="254" 
d="M15 405v95h49v54q0 87 29.5 122.5t100.5 35.5h50v-95h-31q-25 0 -34 -13.5t-9 -51.5v-52h74v-95h-74v-405h-106v405h-49z" />
    <glyph glyph-name="g" unicode="g" horiz-adv-x="391" 
d="M30 160v179q0 87 36 129.5t93 42.5q64 0 86 -48v37h106v-562q0 -82 -41.5 -126t-114.5 -44q-69 0 -110.5 39.5t-46.5 113.5l106 7q7 -64 50 -64q51 0 51 87v85q-22 -48 -86 -48q-57 0 -93 42.5t-36 129.5zM245 124v251q-14 41 -54 41q-55 0 -55 -86v-161q0 -86 55 -86
q40 0 54 41z" />
    <glyph glyph-name="h" unicode="h" horiz-adv-x="399" 
d="M146 366v-366h-106v712h106v-254q26 54 90 54q60 0 92.5 -44t32.5 -125v-343h-106v337q0 80 -51 80q-46 0 -58 -51z" />
    <glyph glyph-name="i" unicode="i" horiz-adv-x="198" 
d="M46 0v500h106v-500h-106zM46 590v122h106v-122h-106z" />
    <glyph glyph-name="j" unicode="j" horiz-adv-x="198" 
d="M46 590v122h106v-122h-106zM152 500v-549q0 -90 -32.5 -126.5t-106.5 -36.5h-34v96h23q27 0 35.5 14t8.5 54v548h106z" />
    <glyph glyph-name="k" unicode="k" horiz-adv-x="373" 
d="M340 500v-21q0 -78 -14.5 -121.5t-53.5 -80.5l100 -277h-111l-68 204l-48 -44v-160h-105v712h105v-417l30 28q37 34 48.5 64.5t11.5 87.5v25h105z" />
    <glyph glyph-name="l" unicode="l" horiz-adv-x="229" 
d="M44 157v555h105v-552q0 -38 9 -51.5t34 -13.5h24v-95h-48q-67 0 -95.5 35.5t-28.5 121.5z" />
    <glyph glyph-name="m" unicode="m" horiz-adv-x="613" 
d="M146 366v-366h-106v500h106v-42q26 54 90 54q70 0 102 -60q37 60 107 60q130 0 130 -169v-343h-105v337q0 80 -52 80q-39 0 -57 -44v-373h-106v337q0 80 -51 80q-46 0 -58 -51z" />
    <glyph glyph-name="n" unicode="n" horiz-adv-x="399" 
d="M146 366v-366h-106v500h106v-42q26 54 90 54q60 0 92.5 -44t32.5 -125v-343h-106v337q0 80 -51 80q-46 0 -58 -51z" />
    <glyph glyph-name="o" unicode="o" horiz-adv-x="380" 
d="M136 327v-154q0 -90 54 -90t54 90v154q0 90 -54 90t-54 -90zM350 332v-164q0 -85 -43 -132.5t-117 -47.5t-117 47.5t-43 132.5v164q0 85 43 132.5t117 47.5t117 -47.5t43 -132.5z" />
    <glyph glyph-name="p" unicode="p" horiz-adv-x="391" 
d="M146 376v-251q14 -41 54 -41q55 0 55 86v161q0 86 -55 86q-40 0 -54 -41zM361 340v-179q0 -87 -36 -129.5t-93 -42.5q-64 0 -86 48v-255h-106v718h106v-36q22 48 86 48q57 0 93 -42.5t36 -129.5z" />
    <glyph glyph-name="q" unicode="q" horiz-adv-x="391" 
d="M245 125v251q-14 41 -54 41q-55 0 -55 -86v-161q0 -86 55 -86q40 0 54 41zM30 161v179q0 87 36 129.5t93 42.5q64 0 86 -48v36h106v-718h-106v255q-22 -48 -86 -48q-57 0 -93 42.5t-36 129.5z" />
    <glyph glyph-name="r" unicode="r" horiz-adv-x="284" 
d="M40 0v500h106v-60q28 67 94 67q24 0 37 -7v-105q-19 7 -42 7q-63 0 -89 -65v-337h-106z" />
    <glyph glyph-name="s" unicode="s" horiz-adv-x="351" 
d="M138 146v-15q0 -48 40 -48t40 48v10q0 28 -10 40.5t-40 22.5l-27 9q-62 21 -86.5 54.5t-24.5 100.5v9q0 60 36 97.5t104 37.5q69 0 105.5 -37.5t36.5 -97.5v-17l-106 -4v18q0 43 -35 43t-35 -43v-6q0 -29 9.5 -41t39.5 -23l38 -14q56 -20 78.5 -51.5t22.5 -94.5v-15
q0 -65 -38.5 -103t-107.5 -38t-107.5 38t-38.5 103v13z" />
    <glyph glyph-name="t" unicode="t" horiz-adv-x="272" 
d="M11 405v95h48v142h106v-142h85v-95h-85v-245q0 -38 9.5 -51.5t33.5 -13.5h44v-95h-68q-67 0 -96 35.5t-29 121.5v248h-48z" />
    <glyph glyph-name="u" unicode="u" horiz-adv-x="399" 
d="M253 134v366h106v-500h-106v42q-26 -54 -90 -54q-60 0 -92.5 44t-32.5 125v343h106v-337q0 -80 51 -80q46 0 58 51z" />
    <glyph glyph-name="v" unicode="v" horiz-adv-x="364" 
d="M235 0h-106l-126 500h108l71 -323l71 323h108z" />
    <glyph glyph-name="w" unicode="w" horiz-adv-x="576" 
d="M240 500h96l65 -310l60 310h109l-114 -500h-100l-68 326l-68 -326h-100l-114 500h109l60 -310z" />
    <glyph glyph-name="x" unicode="x" horiz-adv-x="354" 
d="M124 500l53 -152l53 152h112l-97 -244l103 -256h-113l-58 164l-58 -164h-113l103 256l-97 244h112z" />
    <glyph glyph-name="y" unicode="y" horiz-adv-x="367" 
d="M113 500l67 -293l74 293h108l-138 -543q-26 -104 -53.5 -136t-90.5 -32h-42v95h30q17 0 26.5 10t16.5 38l20 82l-126 486h108z" />
    <glyph glyph-name="z" unicode="z" horiz-adv-x="345" 
d="M316 500v-79l-161 -325h168v-96h-301v79l161 325h-153v96h286z" />
    <glyph glyph-name="braceleft" unicode="{" 
d="M23 296v98h7q51 0 51 54v183q0 81 38.5 116.5t122.5 35.5h17v-100h-17q-51 0 -51 -60v-156q0 -52 -15.5 -81.5t-53.5 -40.5q38 -11 53.5 -40.5t15.5 -81.5v-156q0 -60 51 -60h17v-100h-17q-84 0 -122.5 35.5t-38.5 116.5v183q0 54 -51 54h-7z" />
    <glyph glyph-name="bar" unicode="|" horiz-adv-x="242" 
d="M65 -93v876h112v-876h-112z" />
    <glyph glyph-name="braceright" unicode="}" 
d="M255 394v-98h-7q-51 0 -51 -54v-183q0 -81 -38.5 -116.5t-122.5 -35.5h-17v100h17q51 0 51 60v156q0 52 15.5 81.5t53.5 40.5q-38 11 -53.5 40.5t-15.5 81.5v156q0 60 -51 60h-17v100h17q84 0 122.5 -35.5t38.5 -116.5v-183q0 -54 51 -54h7z" />
    <glyph glyph-name="asciitilde" unicode="~" horiz-adv-x="413" 
d="M265 342q15 0 22 10t8 35l92 -4q-1 -129 -109 -129q-36 0 -75 24.5t-55 24.5q-15 0 -22 -10t-8 -35l-92 4q2 129 109 129q37 0 76 -24.5t54 -24.5z" />
    <glyph glyph-name="uni00A0" unicode="&#xa0;" horiz-adv-x="182" 
 />
    <glyph glyph-name="exclamdown" unicode="&#xa1;" horiz-adv-x="220" 
d="M54 -96q10 256 16 377h81l15 -377v-104h-112v104zM164 500v-119h-108v119h108z" />
    <glyph glyph-name="cent" unicode="&#xa2;" horiz-adv-x="375" 
d="M141 505v84h97v-83q53 -14 82.5 -59.5t29.5 -114.5v-3l-106 -5v3q0 90 -54 90t-54 -90v-154q0 -90 54 -90t54 90v3l106 -5v-3q0 -70 -30 -115t-82 -59v-82h-97v83q-52 14 -81.5 58.5t-29.5 114.5v164q0 69 29.5 114t81.5 59z" />
    <glyph glyph-name="sterling" unicode="&#xa3;" horiz-adv-x="430" 
d="M24 289v81h48v149q0 193 165 193t165 -193v-16l-116 -5v23q0 87 -49 87t-49 -87v-151h111v-81h-111v-57q0 -86 -28 -128h241v-104h-369v88q40 52 40 133v68h-48z" />
    <glyph glyph-name="currency" unicode="&#xa4;" horiz-adv-x="508" 
d="M413 97l-74 76q-39 -22 -85 -22t-85 22l-74 -76l-62 62l73 74q-26 41 -26 92t26 91l-73 75l62 62l74 -76q39 22 85 22t85 -22l74 76l62 -62l-73 -75q26 -42 26 -91q0 -48 -26 -92l73 -74zM340 325q0 38 -24.5 64t-61.5 26t-61.5 -26t-24.5 -64t24.5 -64t61.5 -26t61.5 26
t24.5 64z" />
    <glyph glyph-name="yen" unicode="&#xa5;" horiz-adv-x="424" 
d="M154 0v207h-95v63h95v49h-95v64h70l-121 317h119l85 -249l85 249h119l-121 -317h70v-64h-95v-49h95v-63h-95v-207h-116z" />
    <glyph glyph-name="brokenbar" unicode="&#xa6;" horiz-adv-x="243" 
d="M65 395v388h113v-388h-113zM65 -93v388h113v-388h-113z" />
    <glyph glyph-name="section" unicode="&#xa7;" horiz-adv-x="370" 
d="M82 415q-43 38 -43 117v45q0 60 36 97.5t104 37.5t104 -37.5t36 -97.5v-20l-105 -4v21q0 42 -35 42t-35 -42v-38q0 -30 13 -43.5t48 -24.5q70 -21 102.5 -55.5t32.5 -103.5v-68q0 -66 -53 -95q43 -38 43 -117v-45q0 -60 -36 -97.5t-104 -37.5t-104 37.5t-36 97.5v20
l105 4v-21q0 -42 35 -42t35 42v38q0 30 -13 43.5t-48 24.5q-70 21 -102.5 55.5t-32.5 103.5v68q0 66 53 95zM199 186q35 15 35 57v62q0 31 -14 45.5t-50 24.5q-35 -15 -35 -57v-62q0 -31 14 -45.5t50 -24.5z" />
    <glyph glyph-name="dieresis" unicode="&#xa8;" 
d="M111 699v-101h-94v101h94zM261 699v-101h-94v101h94z" />
    <glyph glyph-name="copyright" unicode="&#xa9;" horiz-adv-x="542" 
d="M238 437v-174q0 -62 35 -62q34 0 34 62v13l75 -2v-12q0 -63 -29.5 -96t-79.5 -33t-80 33t-30 96v176q0 63 30 96t80 33t79.5 -33t29.5 -96v-12l-75 -2v13q0 62 -34 62q-35 0 -35 -62zM30 283v133q0 149 62.5 222.5t178.5 73.5t178.5 -73.5t62.5 -222.5v-133
q0 -149 -62.5 -222t-178.5 -73t-178.5 73t-62.5 222zM453 291v117q0 132 -46.5 191t-135.5 59t-135.5 -59t-46.5 -191v-117q0 -249 182 -249t182 249z" />
    <glyph glyph-name="ordfeminine" unicode="&#xaa;" horiz-adv-x="296" 
d="M139 397q24 0 37 25v63h-21q-45 0 -45 -44v-11q0 -33 29 -33zM122 589l-86 4v5q0 51 29.5 80.5t82.5 29.5q54 0 84 -29.5t30 -80.5v-265h-86v26q-19 -35 -65 -35q-40 0 -63.5 27.5t-23.5 75.5v13q0 52 32 81t93 29h27v43q0 41 -27 41t-27 -41v-4z" />
    <glyph glyph-name="guillemotleft" unicode="&#xab;" horiz-adv-x="370" 
d="M25 341l158 129v-95l-81 -63l81 -63v-95l-158 129v58zM187 341l158 129v-95l-81 -63l81 -63v-95l-158 129v58z" />
    <glyph glyph-name="logicalnot" unicode="&#xac;" horiz-adv-x="413" 
d="M31 280v90h341v-217h-101v127h-240z" />
    <glyph glyph-name="uni00AD" unicode="&#xad;" horiz-adv-x="302" 
d="M33 278v94h236v-94h-236z" />
    <glyph glyph-name="registered" unicode="&#xae;" horiz-adv-x="542" 
d="M30 283v133q0 149 62.5 222.5t178.5 73.5t178.5 -73.5t62.5 -222.5v-133q0 -149 -62.5 -222t-178.5 -73t-178.5 73t-62.5 222zM453 291v117q0 132 -46.5 191t-135.5 59t-135.5 -59t-46.5 -191v-117q0 -249 182 -249t182 249zM394 424q0 -85 -52 -118l57 -166h-75l-50 150
h-25v-151h-75v419h101q57 0 88 -34.5t31 -99.5zM249 358h22q48 0 48 66v8q-1 31 -13 44.5t-35 13.5h-22v-132z" />
    <glyph glyph-name="macron" unicode="&#xaf;" 
d="M28 610v76h222v-76h-222z" />
    <glyph glyph-name="degree" unicode="&#xb0;" horiz-adv-x="272" 
d="M174 600q0 20 -10.5 31.5t-27.5 11.5t-27.5 -11.5t-10.5 -31.5t10.5 -31.5t27.5 -11.5t27.5 11.5t10.5 31.5zM246 600q0 -49 -30.5 -80t-79.5 -31t-79.5 31t-30.5 80t30.5 80t79.5 31t79.5 -31t30.5 -80z" />
    <glyph glyph-name="plusminus" unicode="&#xb1;" horiz-adv-x="413" 
d="M33 280v90h123v136h101v-136h123v-90h-123v-136h-101v136h-123zM33 0v90h347v-90h-347z" />
    <glyph glyph-name="twosuperior" unicode="&#xb2;" 
d="M46 558v17q0 65 30 99t86 34t86 -34t30 -99v-11q0 -61 -31 -109l-88 -137h119v-81h-230v69l122 193q18 28 18 65v13q0 45 -26 45t-26 -45v-22z" />
    <glyph glyph-name="threesuperior" unicode="&#xb3;" 
d="M187 362v35q0 33 -6.5 45.5t-21.5 12.5q-11 0 -24 -10l-46 46l78 126h-112v83h210v-77l-65 -101q77 -5 77 -118v-36q0 -139 -116 -139q-117 0 -117 139v18l90 3v-27q0 -52 27 -52q15 0 20.5 12t5.5 40z" />
    <glyph glyph-name="acute" unicode="&#xb4;" 
d="M208 730l-83 -161h-76l58 161h101z" />
    <glyph glyph-name="mu" unicode="&#xb5;" horiz-adv-x="402" 
d="M146 500v-334q0 -83 51 -83q22 0 38 14t21 37v366h106v-500h-106v38q-16 -50 -67 -50q-26 0 -43 15v-221h-106v718h106z" />
    <glyph glyph-name="paragraph" unicode="&#xb6;" horiz-adv-x="392" 
d="M173 700h173v-831h-66v756h-29v-756h-66v398q-71 0 -113.5 50.5t-42.5 149.5v33q0 200 144 200z" />
    <glyph glyph-name="periodcentered" unicode="&#xb7;" horiz-adv-x="194" 
d="M153 386v-122h-112v122h112z" />
    <glyph glyph-name="cedilla" unicode="&#xb8;" 
d="M43 -204l42 59q16 -14 34 -14q23 0 23 26q0 30 -44 40l-6 8l25 85h79l-17 -58q56 -27 56 -82v-6q0 -42 -27 -67t-74 -25q-55 0 -91 34z" />
    <glyph glyph-name="onesuperior" unicode="&#xb9;" 
d="M254 237h-208v81h60v289l-60 -26v83l76 36h73v-382h59v-81z" />
    <glyph glyph-name="ordmasculine" unicode="&#xba;" horiz-adv-x="296" 
d="M268 583v-134q0 -58 -32.5 -91.5t-87.5 -33.5t-87.5 33.5t-32.5 91.5v134q0 58 32.5 91.5t87.5 33.5t87.5 -33.5t32.5 -91.5zM182 464v104q0 66 -34 66t-34 -66v-104q0 -66 34 -66t34 66z" />
    <glyph glyph-name="guillemotright" unicode="&#xbb;" horiz-adv-x="370" 
d="M187 470l158 -129v-58l-158 -129v95l81 63l-81 63v95zM25 470l158 -129v-58l-158 -129v95l81 63l-81 63v95z" />
    <glyph glyph-name="onequarter" unicode="&#xbc;" horiz-adv-x="696" 
d="M504 700l-230 -700h-83l230 700h83zM254 237h-208v81h60v289l-60 -26v83l76 36h73v-382h59v-81zM518 167h55v128zM692 167v-81h-34v-86h-85v86h-132v72l132 305h85v-296h34z" />
    <glyph glyph-name="onehalf" unicode="&#xbd;" horiz-adv-x="696" 
d="M254 237h-208v81h60v289l-60 -26v83l76 36h73v-382h59v-81zM504 700l-230 -700h-83l230 700h83zM464 321v17q0 65 30 99t86 34t86 -34t30 -99v-11q0 -61 -31 -109l-88 -137h119v-81h-230v69l122 193q18 28 18 65v13q0 45 -26 45t-26 -45v-22z" />
    <glyph glyph-name="threequarters" unicode="&#xbe;" horiz-adv-x="696" 
d="M187 362v35q0 33 -6.5 45.5t-21.5 12.5q-11 0 -24 -10l-46 46l78 126h-112v83h210v-77l-65 -101q77 -5 77 -118v-36q0 -139 -116 -139q-117 0 -117 139v18l90 3v-27q0 -52 27 -52q15 0 20.5 12t5.5 40zM504 700l-230 -700h-83l230 700h83zM518 167h55v128zM692 167v-81
h-34v-86h-85v86h-132v72l132 305h85v-296h34z" />
    <glyph glyph-name="questiondown" unicode="&#xbf;" horiz-adv-x="380" 
d="M138 382v118h108v-118h-108zM39 -6v-30q0 -86 41 -131t114 -45t114 45t41 131v29l-108 5v-25q0 -79 -47 -79t-48 79v24q0 59 42 106q35 38 46.5 73.5t11.5 100.5v35h-108v-26q0 -41 -9 -67.5t-34 -56.5q-56 -67 -56 -168z" />
    <glyph glyph-name="Agrave" unicode="&#xc0;" horiz-adv-x="444" 
d="M321 0l-29 142h-140l-29 -142h-119l160 700h116l160 -700h-119zM222 486l-48 -240h96zM196 763l-83 161h101l58 -161h-76z" />
    <glyph glyph-name="Aacute" unicode="&#xc1;" horiz-adv-x="444" 
d="M321 0l-29 142h-140l-29 -142h-119l160 700h116l160 -700h-119zM222 486l-48 -240h96zM332 924l-83 -161h-76l58 161h101z" />
    <glyph glyph-name="Acircumflex" unicode="&#xc2;" horiz-adv-x="444" 
d="M321 0l-29 142h-140l-29 -142h-119l160 700h116l160 -700h-119zM222 486l-48 -240h96zM99 763l82 161h82l82 -161h-74l-49 76l-49 -76h-74z" />
    <glyph glyph-name="Atilde" unicode="&#xc3;" horiz-adv-x="444" 
d="M321 0l-29 142h-140l-29 -142h-119l160 700h116l160 -700h-119zM222 486l-48 -240h96zM219 800q-20 18 -32 18q-17 0 -20 -39l-71 7q4 119 75 119q27 0 55 -23q19 -18 32 -18q17 0 20 38l71 -6q-4 -120 -75 -120q-29 0 -55 24z" />
    <glyph glyph-name="Adieresis" unicode="&#xc4;" horiz-adv-x="444" 
d="M321 0l-29 142h-140l-29 -142h-119l160 700h116l160 -700h-119zM222 486l-48 -240h96zM194 893v-101h-94v101h94zM344 893v-101h-94v101h94z" />
    <glyph glyph-name="Aring" unicode="&#xc5;" horiz-adv-x="444" 
d="M321 0l-29 142h-140l-29 -142h-119l160 700h116l160 -700h-119zM222 486l-48 -240h96zM311 841q0 -40 -25.5 -63.5t-63.5 -23.5t-63.5 23.5t-25.5 63.5t25.5 63.5t63.5 23.5t63.5 -23.5t25.5 -63.5zM192 841q0 -34 30 -34t30 34t-30 34t-30 -34z" />
    <glyph glyph-name="AE" unicode="&#xc6;" horiz-adv-x="645" 
d="M283 142h-130l-41 -142h-124l216 700h402v-104h-207v-185h178v-104h-178v-203h207v-104h-323v142zM283 582l-99 -336h99v336z" />
    <glyph glyph-name="Ccedilla" unicode="&#xc7;" horiz-adv-x="438" 
d="M123 -204l42 59q16 -14 34 -14q23 0 23 26q0 30 -44 40l-6 8l22 75q-75 8 -117.5 63.5t-42.5 155.5v282q0 109 50.5 165t138.5 56t138.5 -56t50.5 -165v-22l-116 -5v12q0 69 -17.5 100.5t-55.5 31.5t-55.5 -31.5t-17.5 -100.5v-252q0 -69 17.5 -100.5t55.5 -31.5
t55.5 31.5t17.5 100.5v12l116 -5v-22q0 -184 -138 -215l-15 -52q56 -27 56 -82v-6q0 -42 -27 -67t-74 -25q-55 0 -91 34z" />
    <glyph glyph-name="Egrave" unicode="&#xc8;" horiz-adv-x="399" 
d="M46 0v700h323v-104h-207v-185h178v-104h-178v-203h207v-104h-323zM193 763l-83 161h101l58 -161h-76z" />
    <glyph glyph-name="Eacute" unicode="&#xc9;" horiz-adv-x="399" 
d="M46 0v700h323v-104h-207v-185h178v-104h-178v-203h207v-104h-323zM299 924l-83 -161h-76l58 161h101z" />
    <glyph glyph-name="Ecircumflex" unicode="&#xca;" horiz-adv-x="399" 
d="M46 0v700h323v-104h-207v-185h178v-104h-178v-203h207v-104h-323zM83 763l82 161h82l82 -161h-74l-49 76l-49 -76h-74z" />
    <glyph glyph-name="Edieresis" unicode="&#xcb;" horiz-adv-x="399" 
d="M46 0v700h323v-104h-207v-185h178v-104h-178v-203h207v-104h-323zM181 893v-101h-94v101h94zM331 893v-101h-94v101h94z" />
    <glyph glyph-name="Igrave" unicode="&#xcc;" horiz-adv-x="208" 
d="M162 700v-700h-116v700h116zM80 763l-83 161h101l58 -161h-76z" />
    <glyph glyph-name="Iacute" unicode="&#xcd;" horiz-adv-x="208" 
d="M162 700v-700h-116v700h116zM211 924l-83 -161h-76l58 161h101z" />
    <glyph glyph-name="Icircumflex" unicode="&#xce;" horiz-adv-x="208" 
d="M162 700v-700h-116v700h116zM-19 763l82 161h82l82 -161h-74l-49 76l-49 -76h-74z" />
    <glyph glyph-name="Idieresis" unicode="&#xcf;" horiz-adv-x="208" 
d="M162 700v-700h-116v700h116zM76 893v-101h-94v101h94zM226 893v-101h-94v101h94z" />
    <glyph glyph-name="Eth" unicode="&#xd0;" horiz-adv-x="442" 
d="M219 0h-168v309h-50v81h50v310h168q189 0 189 -218v-264q0 -218 -189 -218zM167 104h52q39 0 56 26.5t17 92.5v254q0 66 -17 92.5t-56 26.5h-52v-206h60v-81h-60v-205z" />
    <glyph glyph-name="Ntilde" unicode="&#xd1;" horiz-adv-x="470" 
d="M321 0l-161 429v-429h-114v700h103l161 -429v429h114v-700h-103zM232 800q-20 18 -32 18q-17 0 -20 -39l-71 7q4 119 75 119q27 0 55 -23q19 -18 32 -18q17 0 20 38l71 -6q-4 -120 -75 -120q-29 0 -55 24z" />
    <glyph glyph-name="Ograve" unicode="&#xd2;" horiz-adv-x="446" 
d="M296 224v252q0 69 -17.5 100.5t-55.5 31.5t-55.5 -31.5t-17.5 -100.5v-252q0 -69 17.5 -100.5t55.5 -31.5t55.5 31.5t17.5 100.5zM412 491v-282q0 -109 -50.5 -165t-138.5 -56t-138.5 56t-50.5 165v282q0 109 50.5 165t138.5 56t138.5 -56t50.5 -165zM205 763l-83 161
h101l58 -161h-76z" />
    <glyph glyph-name="Oacute" unicode="&#xd3;" horiz-adv-x="446" 
d="M296 224v252q0 69 -17.5 100.5t-55.5 31.5t-55.5 -31.5t-17.5 -100.5v-252q0 -69 17.5 -100.5t55.5 -31.5t55.5 31.5t17.5 100.5zM412 491v-282q0 -109 -50.5 -165t-138.5 -56t-138.5 56t-50.5 165v282q0 109 50.5 165t138.5 56t138.5 -56t50.5 -165zM324 924l-83 -161
h-76l58 161h101z" />
    <glyph glyph-name="Ocircumflex" unicode="&#xd4;" horiz-adv-x="446" 
d="M296 224v252q0 69 -17.5 100.5t-55.5 31.5t-55.5 -31.5t-17.5 -100.5v-252q0 -69 17.5 -100.5t55.5 -31.5t55.5 31.5t17.5 100.5zM412 491v-282q0 -109 -50.5 -165t-138.5 -56t-138.5 56t-50.5 165v282q0 109 50.5 165t138.5 56t138.5 -56t50.5 -165zM100 763l82 161h82
l82 -161h-74l-49 76l-49 -76h-74z" />
    <glyph glyph-name="Otilde" unicode="&#xd5;" horiz-adv-x="446" 
d="M296 224v252q0 69 -17.5 100.5t-55.5 31.5t-55.5 -31.5t-17.5 -100.5v-252q0 -69 17.5 -100.5t55.5 -31.5t55.5 31.5t17.5 100.5zM412 491v-282q0 -109 -50.5 -165t-138.5 -56t-138.5 56t-50.5 165v282q0 109 50.5 165t138.5 56t138.5 -56t50.5 -165zM220 800
q-20 18 -32 18q-17 0 -20 -39l-71 7q4 119 75 119q27 0 55 -23q19 -18 32 -18q17 0 20 38l71 -6q-4 -120 -75 -120q-29 0 -55 24z" />
    <glyph glyph-name="Odieresis" unicode="&#xd6;" horiz-adv-x="446" 
d="M296 224v252q0 69 -17.5 100.5t-55.5 31.5t-55.5 -31.5t-17.5 -100.5v-252q0 -69 17.5 -100.5t55.5 -31.5t55.5 31.5t17.5 100.5zM412 491v-282q0 -109 -50.5 -165t-138.5 -56t-138.5 56t-50.5 165v282q0 109 50.5 165t138.5 56t138.5 -56t50.5 -165zM195 893v-101h-94
v101h94zM345 893v-101h-94v101h94z" />
    <glyph glyph-name="multiply" unicode="&#xd7;" horiz-adv-x="413" 
d="M139 325l-104 104l67 68l104 -105l104 105l67 -68l-104 -104l104 -104l-67 -68l-104 105l-104 -105l-67 68z" />
    <glyph glyph-name="Oslash" unicode="&#xd8;" horiz-adv-x="446" 
d="M52 -32l29 80q-47 56 -47 161v282q0 109 50.5 165t138.5 56q53 0 94 -21l15 41h62l-30 -80q48 -59 48 -161v-282q0 -109 -50.5 -165t-138.5 -56q-53 0 -94 21l-15 -41h-62zM296 224v241l-127 -345q18 -28 54 -28q38 0 55.5 31.5t17.5 100.5zM150 476v-241l126 345
q-18 28 -53 28q-38 0 -55.5 -31.5t-17.5 -100.5z" />
    <glyph glyph-name="Ugrave" unicode="&#xd9;" horiz-adv-x="458" 
d="M229 -12q-88 0 -138 55.5t-50 161.5v495h116v-480q0 -67 17 -97.5t55 -30.5t55 30.5t17 97.5v480h116v-495q0 -106 -50 -161.5t-138 -55.5zM205 763l-83 161h101l58 -161h-76z" />
    <glyph glyph-name="Uacute" unicode="&#xda;" horiz-adv-x="458" 
d="M229 -12q-88 0 -138 55.5t-50 161.5v495h116v-480q0 -67 17 -97.5t55 -30.5t55 30.5t17 97.5v480h116v-495q0 -106 -50 -161.5t-138 -55.5zM336 924l-83 -161h-76l58 161h101z" />
    <glyph glyph-name="Ucircumflex" unicode="&#xdb;" horiz-adv-x="458" 
d="M229 -12q-88 0 -138 55.5t-50 161.5v495h116v-480q0 -67 17 -97.5t55 -30.5t55 30.5t17 97.5v480h116v-495q0 -106 -50 -161.5t-138 -55.5zM106 763l82 161h82l82 -161h-74l-49 76l-49 -76h-74z" />
    <glyph glyph-name="Udieresis" unicode="&#xdc;" horiz-adv-x="458" 
d="M229 -12q-88 0 -138 55.5t-50 161.5v495h116v-480q0 -67 17 -97.5t55 -30.5t55 30.5t17 97.5v480h116v-495q0 -106 -50 -161.5t-138 -55.5zM201 893v-101h-94v101h94zM351 893v-101h-94v101h94z" />
    <glyph glyph-name="Yacute" unicode="&#xdd;" horiz-adv-x="426" 
d="M155 0v317l-147 383h119l86 -248l86 248h119l-147 -383v-317h-116zM321 924l-83 -161h-76l58 161h101z" />
    <glyph glyph-name="Thorn" unicode="&#xde;" horiz-adv-x="430" 
d="M211 127h-49v-127h-116v700h116v-129h49q87 0 139.5 -56t52.5 -166t-52.5 -166t-139.5 -56zM287 349q0 117 -92 117h-33v-234h33q92 0 92 117z" />
    <glyph glyph-name="germandbls" unicode="&#xdf;" horiz-adv-x="428" 
d="M374 533v-28q0 -94 -74 -131q112 -42 112 -165v-48q0 -84 -40.5 -128.5t-110.5 -44.5q-51 0 -88 23l30 93q20 -13 46 -13q47 0 47 77v28q0 47 -22 72t-69 35l-15 94q68 27 68 104v24q0 84 -49 84q-26 0 -38 -19.5t-12 -64.5v-525h-116v533q0 86 43 132.5t123 46.5
q79 0 122 -46.5t43 -132.5z" />
    <glyph glyph-name="agrave" unicode="&#xe0;" horiz-adv-x="379" 
d="M178 83q39 0 58 46v79h-51q-55 0 -55 -63v-9q0 -53 48 -53zM43 356v5q0 70 38.5 110.5t110.5 40.5t110.5 -40.5t38.5 -110.5v-361h-105v40q-23 -52 -89 -52q-53 0 -87.5 37t-34.5 106v13q0 72 42 113t117 41h52v55q0 64 -44 64t-44 -64v-3zM178 564l-83 161h101l58 -161
h-76z" />
    <glyph glyph-name="aacute" unicode="&#xe1;" horiz-adv-x="379" 
d="M178 83q39 0 58 46v79h-51q-55 0 -55 -63v-9q0 -53 48 -53zM43 356v5q0 70 38.5 110.5t110.5 40.5t110.5 -40.5t38.5 -110.5v-361h-105v40q-23 -52 -89 -52q-53 0 -87.5 37t-34.5 106v13q0 72 42 113t117 41h52v55q0 64 -44 64t-44 -64v-3zM295 725l-83 -161h-76l58 161
h101z" />
    <glyph glyph-name="acircumflex" unicode="&#xe2;" horiz-adv-x="379" 
d="M178 83q39 0 58 46v79h-51q-55 0 -55 -63v-9q0 -53 48 -53zM43 356v5q0 70 38.5 110.5t110.5 40.5t110.5 -40.5t38.5 -110.5v-361h-105v40q-23 -52 -89 -52q-53 0 -87.5 37t-34.5 106v13q0 72 42 113t117 41h52v55q0 64 -44 64t-44 -64v-3zM68 564l82 161h82l82 -161h-74
l-49 76l-49 -76h-74z" />
    <glyph glyph-name="atilde" unicode="&#xe3;" horiz-adv-x="379" 
d="M178 83q39 0 58 46v79h-51q-55 0 -55 -63v-9q0 -53 48 -53zM43 356v5q0 70 38.5 110.5t110.5 40.5t110.5 -40.5t38.5 -110.5v-361h-105v40q-23 -52 -89 -52q-53 0 -87.5 37t-34.5 106v13q0 72 42 113t117 41h52v55q0 64 -44 64t-44 -64v-3zM187 601q-20 18 -32 18
q-17 0 -20 -39l-71 7q4 119 75 119q27 0 55 -23q19 -18 32 -18q17 0 20 38l71 -6q-4 -120 -75 -120q-29 0 -55 24z" />
    <glyph glyph-name="adieresis" unicode="&#xe4;" horiz-adv-x="379" 
d="M178 83q39 0 58 46v79h-51q-55 0 -55 -63v-9q0 -53 48 -53zM43 356v5q0 70 38.5 110.5t110.5 40.5t110.5 -40.5t38.5 -110.5v-361h-105v40q-23 -52 -89 -52q-53 0 -87.5 37t-34.5 106v13q0 72 42 113t117 41h52v55q0 64 -44 64t-44 -64v-3zM163 694v-101h-94v101h94z
M313 694v-101h-94v101h94z" />
    <glyph glyph-name="aring" unicode="&#xe5;" horiz-adv-x="379" 
d="M178 83q39 0 58 46v79h-51q-55 0 -55 -63v-9q0 -53 48 -53zM43 356v5q0 70 38.5 110.5t110.5 40.5t110.5 -40.5t38.5 -110.5v-361h-105v40q-23 -52 -89 -52q-53 0 -87.5 37t-34.5 106v13q0 72 42 113t117 41h52v55q0 64 -44 64t-44 -64v-3zM279 644q0 -40 -25.5 -63.5
t-63.5 -23.5t-63.5 23.5t-25.5 63.5t25.5 63.5t63.5 23.5t63.5 -23.5t25.5 -63.5zM160 644q0 -34 30 -34t30 34t-30 34t-30 -34z" />
    <glyph glyph-name="ae" unicode="&#xe6;" horiz-adv-x="586" 
d="M192 512q68 0 101 -48q37 48 104 48q72 0 115.5 -48t43.5 -132v-123h-214v-36q0 -90 54 -90q46 0 52 63l106 -7q-7 -72 -49 -111.5t-109 -39.5q-80 0 -124 56q-40 -56 -125 -56q-53 0 -87.5 37t-34.5 106v13q0 72 42 113t117 41h52v53q0 32 -12 49t-32 17q-44 0 -44 -67
l-105 6v5q0 71 38 111t111 40zM178 83q39 0 58 46v79h-51q-55 0 -55 -63v-9q0 -53 48 -53zM342 327v-28h108v28q0 90 -54 90t-54 -90z" />
    <glyph glyph-name="ccedilla" unicode="&#xe7;" horiz-adv-x="375" 
d="M89 -204l42 59q16 -14 34 -14q23 0 23 26q0 30 -44 40l-6 8l22 76q-61 9 -95.5 55t-34.5 122v164q0 85 43 132.5t117 47.5t117 -47.5t43 -132.5v-3l-106 -5v3q0 90 -54 90t-54 -90v-154q0 -90 54 -90t54 90v3l106 -5v-3q0 -69 -29 -114t-81 -59l-15 -53q56 -27 56 -82v-6
q0 -42 -27 -67t-74 -25q-55 0 -91 34z" />
    <glyph glyph-name="egrave" unicode="&#xe8;" horiz-adv-x="380" 
d="M242 146l106 -7q-7 -72 -49 -111.5t-109 -39.5q-74 0 -117 47.5t-43 132.5v164q0 85 43 132.5t117 47.5t117 -47.5t43 -132.5v-123h-214v-36q0 -90 54 -90q46 0 52 63zM136 327v-28h108v28q0 90 -54 90t-54 -90zM172 564l-83 161h101l58 -161h-76z" />
    <glyph glyph-name="eacute" unicode="&#xe9;" horiz-adv-x="380" 
d="M242 146l106 -7q-7 -72 -49 -111.5t-109 -39.5q-74 0 -117 47.5t-43 132.5v164q0 85 43 132.5t117 47.5t117 -47.5t43 -132.5v-123h-214v-36q0 -90 54 -90q46 0 52 63zM136 327v-28h108v28q0 90 -54 90t-54 -90zM291 725l-83 -161h-76l58 161h101z" />
    <glyph glyph-name="ecircumflex" unicode="&#xea;" horiz-adv-x="380" 
d="M242 146l106 -7q-7 -72 -49 -111.5t-109 -39.5q-74 0 -117 47.5t-43 132.5v164q0 85 43 132.5t117 47.5t117 -47.5t43 -132.5v-123h-214v-36q0 -90 54 -90q46 0 52 63zM136 327v-28h108v28q0 90 -54 90t-54 -90zM67 564l82 161h82l82 -161h-74l-49 76l-49 -76h-74z" />
    <glyph glyph-name="edieresis" unicode="&#xeb;" horiz-adv-x="380" 
d="M242 146l106 -7q-7 -72 -49 -111.5t-109 -39.5q-74 0 -117 47.5t-43 132.5v164q0 85 43 132.5t117 47.5t117 -47.5t43 -132.5v-123h-214v-36q0 -90 54 -90q46 0 52 63zM136 327v-28h108v28q0 90 -54 90t-54 -90zM162 694v-101h-94v101h94zM312 694v-101h-94v101h94z" />
    <glyph glyph-name="igrave" unicode="&#xec;" horiz-adv-x="198" 
d="M46 0v500h106v-500h-106zM66 564l-83 161h101l58 -161h-76z" />
    <glyph glyph-name="iacute" unicode="&#xed;" horiz-adv-x="198" 
d="M46 0v500h106v-500h-106zM215 725l-83 -161h-76l58 161h101z" />
    <glyph glyph-name="icircumflex" unicode="&#xee;" horiz-adv-x="198" 
d="M46 0v500h106v-500h-106zM-24 564l82 161h82l82 -161h-74l-49 76l-49 -76h-74z" />
    <glyph glyph-name="idieresis" unicode="&#xef;" horiz-adv-x="198" 
d="M46 0v500h106v-500h-106zM71 694v-101h-94v101h94zM221 694v-101h-94v101h94z" />
    <glyph glyph-name="eth" unicode="&#xf0;" horiz-adv-x="382" 
d="M29 168v163q0 88 44.5 133.5t122.5 45.5l-22 61l-78 -23l-12 64l69 20l-27 80h108l17 -51l69 21l12 -64l-60 -18l61 -169q18 -49 18 -97v-166q0 -85 -43.5 -132.5t-117.5 -47.5t-117.5 47.5t-43.5 132.5zM135 326v-153q0 -90 55 -90t55 90v153q0 90 -55 90t-55 -90z" />
    <glyph glyph-name="ntilde" unicode="&#xf1;" horiz-adv-x="399" 
d="M146 366v-366h-106v500h106v-42q26 54 90 54q60 0 92.5 -44t32.5 -125v-343h-106v337q0 80 -51 80q-46 0 -58 -51zM194 601q-20 18 -32 18q-17 0 -20 -39l-71 7q4 119 75 119q27 0 55 -23q19 -18 32 -18q17 0 20 38l71 -6q-4 -120 -75 -120q-29 0 -55 24z" />
    <glyph glyph-name="ograve" unicode="&#xf2;" horiz-adv-x="380" 
d="M136 327v-154q0 -90 54 -90t54 90v154q0 90 -54 90t-54 -90zM350 332v-164q0 -85 -43 -132.5t-117 -47.5t-117 47.5t-43 132.5v164q0 85 43 132.5t117 47.5t117 -47.5t43 -132.5zM172 564l-83 161h101l58 -161h-76z" />
    <glyph glyph-name="oacute" unicode="&#xf3;" horiz-adv-x="380" 
d="M136 327v-154q0 -90 54 -90t54 90v154q0 90 -54 90t-54 -90zM350 332v-164q0 -85 -43 -132.5t-117 -47.5t-117 47.5t-43 132.5v164q0 85 43 132.5t117 47.5t117 -47.5t43 -132.5zM291 725l-83 -161h-76l58 161h101z" />
    <glyph glyph-name="ocircumflex" unicode="&#xf4;" horiz-adv-x="380" 
d="M136 327v-154q0 -90 54 -90t54 90v154q0 90 -54 90t-54 -90zM350 332v-164q0 -85 -43 -132.5t-117 -47.5t-117 47.5t-43 132.5v164q0 85 43 132.5t117 47.5t117 -47.5t43 -132.5zM67 564l82 161h82l82 -161h-74l-49 76l-49 -76h-74z" />
    <glyph glyph-name="otilde" unicode="&#xf5;" horiz-adv-x="380" 
d="M136 327v-154q0 -90 54 -90t54 90v154q0 90 -54 90t-54 -90zM350 332v-164q0 -85 -43 -132.5t-117 -47.5t-117 47.5t-43 132.5v164q0 85 43 132.5t117 47.5t117 -47.5t43 -132.5zM187 601q-20 18 -32 18q-17 0 -20 -39l-71 7q4 119 75 119q27 0 55 -23q19 -18 32 -18
q17 0 20 38l71 -6q-4 -120 -75 -120q-29 0 -55 24z" />
    <glyph glyph-name="odieresis" unicode="&#xf6;" horiz-adv-x="380" 
d="M136 327v-154q0 -90 54 -90t54 90v154q0 90 -54 90t-54 -90zM350 332v-164q0 -85 -43 -132.5t-117 -47.5t-117 47.5t-43 132.5v164q0 85 43 132.5t117 47.5t117 -47.5t43 -132.5zM162 694v-101h-94v101h94zM312 694v-101h-94v101h94z" />
    <glyph glyph-name="divide" unicode="&#xf7;" horiz-adv-x="413" 
d="M33 280v90h347v-90h-347zM258 522v-110h-102v110h102zM258 238v-110h-102v110h102z" />
    <glyph glyph-name="oslash" unicode="&#xf8;" horiz-adv-x="380" 
d="M54 -35l24 65q-48 48 -48 138v164q0 85 43 132.5t117 47.5q36 0 64 -12l14 38h59l-26 -68q49 -49 49 -138v-164q0 -85 -43 -132.5t-117 -47.5q-36 0 -64 12l-13 -35h-59zM136 327v-143l83 224q-12 9 -29 9q-54 0 -54 -90zM190 83q54 0 54 90v142l-84 -223q10 -9 30 -9z
" />
    <glyph glyph-name="ugrave" unicode="&#xf9;" horiz-adv-x="399" 
d="M253 134v366h106v-500h-106v42q-26 -54 -90 -54q-60 0 -92.5 44t-32.5 125v343h106v-337q0 -80 51 -80q46 0 58 51zM175 564l-83 161h101l58 -161h-76z" />
    <glyph glyph-name="uacute" unicode="&#xfa;" horiz-adv-x="399" 
d="M253 134v366h106v-500h-106v42q-26 -54 -90 -54q-60 0 -92.5 44t-32.5 125v343h106v-337q0 -80 51 -80q46 0 58 51zM297 725l-83 -161h-76l58 161h101z" />
    <glyph glyph-name="ucircumflex" unicode="&#xfb;" horiz-adv-x="399" 
d="M253 134v366h106v-500h-106v42q-26 -54 -90 -54q-60 0 -92.5 44t-32.5 125v343h106v-337q0 -80 51 -80q46 0 58 51zM72 564l82 161h82l82 -161h-74l-49 76l-49 -76h-74z" />
    <glyph glyph-name="udieresis" unicode="&#xfc;" horiz-adv-x="400" 
d="M253 134v366h106v-500h-106v42q-26 -54 -90 -54q-60 0 -92.5 44t-32.5 125v343h106v-337q0 -80 51 -80q46 0 58 51zM168 694v-101h-94v101h94zM318 694v-101h-94v101h94z" />
    <glyph glyph-name="yacute" unicode="&#xfd;" horiz-adv-x="367" 
d="M113 500l67 -293l74 293h108l-138 -543q-26 -104 -53.5 -136t-90.5 -32h-42v95h30q17 0 26.5 10t16.5 38l20 82l-126 486h108zM285 725l-83 -161h-76l58 161h101z" />
    <glyph glyph-name="thorn" unicode="&#xfe;" horiz-adv-x="391" 
d="M146 376v-251q14 -41 54 -41q55 0 55 86v161q0 86 -55 86q-40 0 -54 -41zM361 340v-179q0 -87 -36 -129.5t-93 -42.5q-64 0 -86 48v-255h-106v930h106v-248q22 48 86 48q57 0 93 -42.5t36 -129.5z" />
    <glyph glyph-name="ydieresis" unicode="&#xff;" horiz-adv-x="367" 
d="M113 500l67 -293l74 293h108l-138 -543q-26 -104 -53.5 -136t-90.5 -32h-42v95h30q17 0 26.5 10t16.5 38l20 82l-126 486h108zM155 694v-101h-94v101h94zM305 694v-101h-94v101h94z" />
    <glyph glyph-name="Amacron" unicode="&#x100;" horiz-adv-x="444" 
d="M321 0l-29 142h-140l-29 -142h-119l160 700h116l160 -700h-119zM222 486l-48 -240h96zM111 805v76h222v-76h-222z" />
    <glyph glyph-name="amacron" unicode="&#x101;" horiz-adv-x="379" 
d="M178 83q39 0 58 46v79h-51q-55 0 -55 -63v-9q0 -53 48 -53zM43 356v5q0 70 38.5 110.5t110.5 40.5t110.5 -40.5t38.5 -110.5v-361h-105v40q-23 -52 -89 -52q-53 0 -87.5 37t-34.5 106v13q0 72 42 113t117 41h52v55q0 64 -44 64t-44 -64v-3zM82 606v76h222v-76h-222z" />
    <glyph glyph-name="Abreve" unicode="&#x102;" horiz-adv-x="444" 
d="M321 0l-29 142h-140l-29 -142h-119l160 700h116l160 -700h-119zM222 486l-48 -240h96zM222 837q23 0 32.5 17t11.5 55l77 -7q-7 -138 -121 -138t-121 138l77 7q2 -38 11.5 -55t32.5 -17z" />
    <glyph glyph-name="abreve" unicode="&#x103;" horiz-adv-x="379" 
d="M178 83q39 0 58 46v79h-51q-55 0 -55 -63v-9q0 -53 48 -53zM43 356v5q0 70 38.5 110.5t110.5 40.5t110.5 -40.5t38.5 -110.5v-361h-105v40q-23 -52 -89 -52q-53 0 -87.5 37t-34.5 106v13q0 72 42 113t117 41h52v55q0 64 -44 64t-44 -64v-3zM193 640q23 0 32.5 17t11.5 55
l77 -7q-7 -138 -121 -138t-121 138l77 7q2 -38 11.5 -55t32.5 -17z" />
    <glyph glyph-name="Aogonek" unicode="&#x104;" horiz-adv-x="444" 
d="M321 0l-29 142h-140l-29 -142h-119l160 700h116l160 -700h-41q-52 -46 -52 -98v-5q0 -33 25 -33q15 0 27 15l53 -55q-36 -43 -95 -43q-47 0 -73 25.5t-26 70.5v5q0 32 17 64.5t46 53.5zM222 486l-48 -240h96z" />
    <glyph glyph-name="aogonek" unicode="&#x105;" horiz-adv-x="379" 
d="M43 356v5q0 71 38 111t111 40t111 -40t38 -111v-361h-27q-52 -46 -52 -98v-5q0 -33 25 -33q15 0 27 15l53 -55q-36 -43 -95 -43q-47 0 -73 25.5t-26 70.5v5q0 32 17 64.5t46 53.5v40q-23 -52 -89 -52q-53 0 -87.5 37t-34.5 106v13q0 72 42 113t117 41h52v53q0 32 -12 49
t-32 17q-44 0 -44 -67zM178 83q39 0 58 46v79h-51q-55 0 -55 -63v-9q0 -53 48 -53z" />
    <glyph glyph-name="Cacute" unicode="&#x106;" horiz-adv-x="438" 
d="M223 92q38 0 55.5 31.5t17.5 100.5v12l116 -5v-22q0 -109 -50.5 -165t-138.5 -56t-138.5 56t-50.5 165v282q0 109 50.5 165t138.5 56t138.5 -56t50.5 -165v-22l-116 -5v12q0 69 -17.5 100.5t-55.5 31.5t-55.5 -31.5t-17.5 -100.5v-252q0 -69 17.5 -100.5t55.5 -31.5z
M318 924l-83 -161h-76l58 161h101z" />
    <glyph glyph-name="cacute" unicode="&#x107;" horiz-adv-x="375" 
d="M190 83q54 0 54 90v3l106 -5v-3q0 -85 -43 -132.5t-117 -47.5t-117 47.5t-43 132.5v164q0 85 43 132.5t117 47.5t117 -47.5t43 -132.5v-3l-106 -5v3q0 90 -54 90t-54 -90v-154q0 -90 54 -90zM283 725l-83 -161h-76l58 161h101z" />
    <glyph glyph-name="Ccircumflex" unicode="&#x108;" horiz-adv-x="438" 
d="M223 92q38 0 55.5 31.5t17.5 100.5v12l116 -5v-22q0 -109 -50.5 -165t-138.5 -56t-138.5 56t-50.5 165v282q0 109 50.5 165t138.5 56t138.5 -56t50.5 -165v-22l-116 -5v12q0 69 -17.5 100.5t-55.5 31.5t-55.5 -31.5t-17.5 -100.5v-252q0 -69 17.5 -100.5t55.5 -31.5z
M100 763l82 161h82l82 -161h-74l-49 76l-49 -76h-74z" />
    <glyph glyph-name="ccircumflex" unicode="&#x109;" horiz-adv-x="375" 
d="M190 83q54 0 54 90v3l106 -5v-3q0 -85 -43 -132.5t-117 -47.5t-117 47.5t-43 132.5v164q0 85 43 132.5t117 47.5t117 -47.5t43 -132.5v-3l-106 -5v3q0 90 -54 90t-54 -90v-154q0 -90 54 -90zM63 564l82 161h82l82 -161h-74l-49 76l-49 -76h-74z" />
    <glyph glyph-name="Cdotaccent" unicode="&#x10a;" horiz-adv-x="438" 
d="M223 92q-38 0 -55.5 31.5t-17.5 100.5v252q0 69 17.5 100.5t55.5 31.5t55.5 -31.5t17.5 -100.5v-12l116 5v22q0 109 -50.5 165t-138.5 56t-138.5 -56t-50.5 -165v-282q0 -109 50.5 -165t138.5 -56t138.5 56t50.5 165v22l-116 5v-12q0 -69 -17.5 -100.5t-55.5 -31.5z
M274 896v-108h-102v108h102z" />
    <glyph glyph-name="cdotaccent" unicode="&#x10b;" horiz-adv-x="375" 
d="M190 83q-54 0 -54 90v154q0 90 54 90t54 -90v-3l106 5v3q0 85 -43 132.5t-117 47.5t-117 -47.5t-43 -132.5v-164q0 -85 43 -132.5t117 -47.5t117 47.5t43 132.5v3l-106 5v-3q0 -90 -54 -90zM237 697v-108h-102v108h102z" />
    <glyph glyph-name="Ccaron" unicode="&#x10c;" horiz-adv-x="438" 
d="M223 92q38 0 55.5 31.5t17.5 100.5v12l116 -5v-22q0 -109 -50.5 -165t-138.5 -56t-138.5 56t-50.5 165v282q0 109 50.5 165t138.5 56t138.5 -56t50.5 -165v-22l-116 -5v12q0 69 -17.5 100.5t-55.5 31.5t-55.5 -31.5t-17.5 -100.5v-252q0 -69 17.5 -100.5t55.5 -31.5z
M182 763l-82 161h74l49 -76l49 76h74l-82 -161h-82z" />
    <glyph glyph-name="ccaron" unicode="&#x10d;" horiz-adv-x="375" 
d="M190 83q54 0 54 90v3l106 -5v-3q0 -85 -43 -132.5t-117 -47.5t-117 47.5t-43 132.5v164q0 85 43 132.5t117 47.5t117 -47.5t43 -132.5v-3l-106 -5v3q0 90 -54 90t-54 -90v-154q0 -90 54 -90zM146 564l-82 161h74l49 -76l49 76h74l-82 -161h-82z" />
    <glyph glyph-name="Dcaron" unicode="&#x10e;" horiz-adv-x="437" 
d="M214 0h-168v700h168q189 0 189 -218v-264q0 -218 -189 -218zM162 104h52q39 0 56 26.5t17 92.5v254q0 66 -17 92.5t-56 26.5h-52v-492zM161 763l-82 161h74l49 -76l49 76h74l-82 -161h-82z" />
    <glyph glyph-name="dcaron" unicode="&#x10f;" horiz-adv-x="498" 
d="M245 124v251q-14 41 -54 41q-55 0 -55 -86v-161q0 -86 55 -86q40 0 54 41zM30 160v179q0 87 36 129.5t93 42.5q64 0 86 -48v249h106v-712h-106v36q-22 -48 -86 -48q-57 0 -93 42.5t-36 129.5zM439 596h-51v116h108v-118q0 -56 -26 -84.5t-82 -31.5v48q28 4 39.5 19
t11.5 51z" />
    <glyph glyph-name="Dcroat" unicode="&#x110;" horiz-adv-x="442" 
d="M219 0h-168v309h-50v81h50v310h168q189 0 189 -218v-264q0 -218 -189 -218zM167 104h52q39 0 56 26.5t17 92.5v254q0 66 -17 92.5t-56 26.5h-52v-206h60v-81h-60v-205z" />
    <glyph glyph-name="dcroat" unicode="&#x111;" horiz-adv-x="391" 
d="M30 160v179q0 87 36 129.5t93 42.5q64 0 86 -48v112h-90v78h90v59h106v-59h42v-78h-42v-575h-106v36q-22 -48 -86 -48q-57 0 -93 42.5t-36 129.5zM245 124v251q-14 41 -54 41q-55 0 -55 -86v-161q0 -86 55 -86q40 0 54 41z" />
    <glyph glyph-name="Emacron" unicode="&#x112;" horiz-adv-x="399" 
d="M46 0v700h323v-104h-207v-185h178v-104h-178v-203h207v-104h-323zM96 805v76h222v-76h-222z" />
    <glyph glyph-name="emacron" unicode="&#x113;" horiz-adv-x="380" 
d="M242 146l106 -7q-7 -72 -49 -111.5t-109 -39.5q-74 0 -117 47.5t-43 132.5v164q0 85 43 132.5t117 47.5t117 -47.5t43 -132.5v-123h-214v-36q0 -90 54 -90q46 0 52 63zM136 327v-28h108v28q0 90 -54 90t-54 -90zM79 606v76h222v-76h-222z" />
    <glyph glyph-name="Ebreve" unicode="&#x114;" horiz-adv-x="399" 
d="M46 0v700h323v-104h-207v-185h178v-104h-178v-203h207v-104h-323zM207 837q23 0 32.5 17t11.5 55l77 -7q-7 -138 -121 -138t-121 138l77 7q2 -38 11.5 -55t32.5 -17z" />
    <glyph glyph-name="ebreve" unicode="&#x115;" horiz-adv-x="380" 
d="M242 146l106 -7q-7 -72 -49 -111.5t-109 -39.5q-74 0 -117 47.5t-43 132.5v164q0 85 43 132.5t117 47.5t117 -47.5t43 -132.5v-123h-214v-36q0 -90 54 -90q46 0 52 63zM136 327v-28h108v28q0 90 -54 90t-54 -90zM190 640q23 0 32.5 17t11.5 55l77 -7q-7 -138 -121 -138
t-121 138l77 7q2 -38 11.5 -55t32.5 -17z" />
    <glyph glyph-name="Edotaccent" unicode="&#x116;" horiz-adv-x="399" 
d="M46 0v700h323v-104h-207v-185h178v-104h-178v-203h207v-104h-323zM259 896v-108h-102v108h102z" />
    <glyph glyph-name="edotaccent" unicode="&#x117;" horiz-adv-x="380" 
d="M242 146l106 -7q-7 -72 -49 -111.5t-109 -39.5q-74 0 -117 47.5t-43 132.5v164q0 85 43 132.5t117 47.5t117 -47.5t43 -132.5v-123h-214v-36q0 -90 54 -90q46 0 52 63zM136 327v-28h108v28q0 90 -54 90t-54 -90zM241 697v-108h-102v108h102z" />
    <glyph glyph-name="Eogonek" unicode="&#x118;" horiz-adv-x="399" 
d="M46 0v700h323v-104h-207v-185h178v-104h-178v-203h207v-104h-32q-52 -46 -52 -98v-5q0 -33 25 -33q15 0 27 15l53 -55q-36 -43 -95 -43q-47 0 -73 25.5t-26 70.5v5q0 32 17 64.5t46 53.5h-213z" />
    <glyph glyph-name="eogonek" unicode="&#x119;" horiz-adv-x="380" 
d="M242 146l106 -7q-10 -103 -88 -137q-53 -48 -53 -100v-5q0 -33 25 -33q15 0 27 15l53 -55q-36 -43 -95 -43q-47 0 -73 25.5t-26 70.5v5q0 61 49 107q-64 8 -100.5 54.5t-36.5 124.5v164q0 85 43 132.5t117 47.5t117 -47.5t43 -132.5v-123h-214v-36q0 -90 54 -90
q46 0 52 63zM136 327v-28h108v28q0 90 -54 90t-54 -90z" />
    <glyph glyph-name="Ecaron" unicode="&#x11a;" horiz-adv-x="399" 
d="M46 0v700h323v-104h-207v-185h178v-104h-178v-203h207v-104h-323zM166 763l-82 161h74l49 -76l49 76h74l-82 -161h-82z" />
    <glyph glyph-name="ecaron" unicode="&#x11b;" horiz-adv-x="380" 
d="M242 146l106 -7q-7 -72 -49 -111.5t-109 -39.5q-74 0 -117 47.5t-43 132.5v164q0 85 43 132.5t117 47.5t117 -47.5t43 -132.5v-123h-214v-36q0 -90 54 -90q46 0 52 63zM136 327v-28h108v28q0 90 -54 90t-54 -90zM149 564l-82 161h74l49 -76l49 76h74l-82 -161h-82z" />
    <glyph glyph-name="Gcircumflex" unicode="&#x11c;" horiz-adv-x="441" 
d="M223 272v100h189v-163q0 -109 -50.5 -165t-138.5 -56t-138.5 56t-50.5 165v282q0 109 50.5 165t138.5 56t138.5 -56t50.5 -165v-22l-116 -5v12q0 69 -17.5 100.5t-55.5 31.5t-55.5 -31.5t-17.5 -100.5v-252q0 -69 17.5 -100.5t55.5 -31.5t55.5 31.5t17.5 100.5v48h-73z
M100 763l82 161h82l82 -161h-74l-49 76l-49 -76h-74z" />
    <glyph glyph-name="gcircumflex" unicode="&#x11d;" horiz-adv-x="391" 
d="M30 339v-179q0 -87 36 -129.5t93 -42.5q64 0 86 48v-85q0 -87 -51 -87q-43 0 -50 64l-106 -7q5 -74 46.5 -113.5t110.5 -39.5q73 0 114.5 44t41.5 126v562h-106v-37q-22 48 -86 48q-57 0 -93 -42.5t-36 -129.5zM245 375v-251q-14 -41 -54 -41q-55 0 -55 86v161
q0 86 55 86q40 0 54 -41zM76 564l82 161h82l82 -161h-74l-49 76l-49 -76h-74z" />
    <glyph glyph-name="Gbreve" unicode="&#x11e;" horiz-adv-x="441" 
d="M223 272v100h189v-163q0 -109 -50.5 -165t-138.5 -56t-138.5 56t-50.5 165v282q0 109 50.5 165t138.5 56t138.5 -56t50.5 -165v-22l-116 -5v12q0 69 -17.5 100.5t-55.5 31.5t-55.5 -31.5t-17.5 -100.5v-252q0 -69 17.5 -100.5t55.5 -31.5t55.5 31.5t17.5 100.5v48h-73z
M223 837q23 0 32.5 17t11.5 55l77 -7q-7 -138 -121 -138t-121 138l77 7q2 -38 11.5 -55t32.5 -17z" />
    <glyph glyph-name="gbreve" unicode="&#x11f;" horiz-adv-x="391" 
d="M30 160v179q0 87 36 129.5t93 42.5q64 0 86 -48v37h106v-562q0 -82 -41.5 -126t-114.5 -44q-69 0 -110.5 39.5t-46.5 113.5l106 7q7 -64 50 -64q51 0 51 87v85q-22 -48 -86 -48q-57 0 -93 42.5t-36 129.5zM245 124v251q-14 41 -54 41q-55 0 -55 -86v-161q0 -86 55 -86
q40 0 54 41zM200 640q23 0 32.5 17t11.5 55l77 -7q-7 -138 -121 -138t-121 138l77 7q2 -38 11.5 -55t32.5 -17z" />
    <glyph glyph-name="Gdotaccent" unicode="&#x120;" horiz-adv-x="441" 
d="M223 272v100h189v-163q0 -109 -50.5 -165t-138.5 -56t-138.5 56t-50.5 165v282q0 109 50.5 165t138.5 56t138.5 -56t50.5 -165v-22l-116 -5v12q0 69 -17.5 100.5t-55.5 31.5t-55.5 -31.5t-17.5 -100.5v-252q0 -69 17.5 -100.5t55.5 -31.5t55.5 31.5t17.5 100.5v48h-73z
M274 896v-108h-102v108h102z" />
    <glyph glyph-name="gdotaccent" unicode="&#x121;" horiz-adv-x="391" 
d="M30 160v179q0 87 36 129.5t93 42.5q64 0 86 -48v37h106v-562q0 -82 -41.5 -126t-114.5 -44q-69 0 -110.5 39.5t-46.5 113.5l106 7q7 -64 50 -64q51 0 51 87v85q-22 -48 -86 -48q-57 0 -93 42.5t-36 129.5zM245 124v251q-14 41 -54 41q-55 0 -55 -86v-161q0 -86 55 -86
q40 0 54 41zM251 697v-108h-102v108h102z" />
    <glyph glyph-name="Gcommaaccent" unicode="&#x122;" horiz-adv-x="441" 
d="M223 272v100h189v-163q0 -109 -50.5 -165t-138.5 -56t-138.5 56t-50.5 165v282q0 109 50.5 165t138.5 56t138.5 -56t50.5 -165v-22l-116 -5v12q0 69 -17.5 100.5t-55.5 31.5t-55.5 -31.5t-17.5 -100.5v-252q0 -69 17.5 -100.5t55.5 -31.5t55.5 31.5t17.5 100.5v48h-73z
M294 -49l-54 -161h-74l30 161h98z" />
    <glyph glyph-name="gcommaaccent" unicode="&#x123;" horiz-adv-x="391" 
d="M30 339v-179q0 -87 36 -129.5t93 -42.5q64 0 86 48v-85q0 -87 -51 -87q-43 0 -50 64l-106 -7q5 -74 46.5 -113.5t110.5 -39.5q73 0 114.5 44t41.5 126v562h-106v-37q-22 48 -86 48q-57 0 -93 -42.5t-36 -129.5zM245 375v-251q-14 -41 -54 -41q-55 0 -55 86v161
q0 86 55 86q40 0 54 -41zM152 551l54 161h74l-30 -161h-98z" />
    <glyph glyph-name="Hcircumflex" unicode="&#x124;" horiz-adv-x="454" 
d="M292 0v307h-130v-307h-116v700h116v-289h130v289h116v-700h-116zM104 763l82 161h82l82 -161h-74l-49 76l-49 -76h-74z" />
    <glyph glyph-name="hcircumflex" unicode="&#x125;" horiz-adv-x="399" 
d="M146 366v-366h-106v712h106v-254q26 54 90 54q60 0 92.5 -44t32.5 -125v-343h-106v337q0 80 -51 80q-46 0 -58 -51zM-30 763l82 161h82l82 -161h-74l-49 76l-49 -76h-74z" />
    <glyph glyph-name="Hbar" unicode="&#x126;" horiz-adv-x="462" 
d="M4 599h46v101h116v-101h130v101h116v-101h46v-81h-46v-518h-116v307h-130v-307h-116v518h-46v81zM166 411h130v107h-130v-107z" />
    <glyph glyph-name="hbar" unicode="&#x127;" horiz-adv-x="399" 
d="M-2 653h42v59h106v-59h90v-78h-90v-117q26 54 90 54q60 0 92.5 -44t32.5 -125v-343h-106v337q0 80 -51 80q-46 0 -58 -51v-366h-106v575h-42v78z" />
    <glyph glyph-name="Itilde" unicode="&#x128;" horiz-adv-x="208" 
d="M162 700v-700h-116v700h116zM101 800q-20 18 -32 18q-17 0 -20 -39l-71 7q4 119 75 119q27 0 55 -23q19 -18 32 -18q17 0 20 38l71 -6q-4 -120 -75 -120q-29 0 -55 24z" />
    <glyph glyph-name="itilde" unicode="&#x129;" horiz-adv-x="198" 
d="M46 0v500h106v-500h-106zM96 601q-20 18 -32 18q-17 0 -20 -39l-71 7q4 119 75 119q27 0 55 -23q19 -18 32 -18q17 0 20 38l71 -6q-4 -120 -75 -120q-29 0 -55 24z" />
    <glyph glyph-name="Imacron" unicode="&#x12a;" horiz-adv-x="208" 
d="M162 700v-700h-116v700h116zM-7 805v76h222v-76h-222z" />
    <glyph glyph-name="imacron" unicode="&#x12b;" horiz-adv-x="198" 
d="M46 0v500h106v-500h-106zM-12 606v76h222v-76h-222z" />
    <glyph glyph-name="Ibreve" unicode="&#x12c;" horiz-adv-x="208" 
d="M162 700v-700h-116v700h116zM104 837q23 0 32.5 17t11.5 55l77 -7q-7 -138 -121 -138t-121 138l77 7q2 -38 11.5 -55t32.5 -17z" />
    <glyph glyph-name="ibreve" unicode="&#x12d;" horiz-adv-x="198" 
d="M46 0v500h106v-500h-106zM99 640q23 0 32.5 17t11.5 55l77 -7q-7 -138 -121 -138t-121 138l77 7q2 -38 11.5 -55t32.5 -17z" />
    <glyph glyph-name="Iogonek" unicode="&#x12e;" horiz-adv-x="208" 
d="M84 0h-38v700h116v-700q-52 -46 -52 -98v-5q0 -33 25 -33q15 0 27 15l53 -55q-36 -43 -95 -43q-47 0 -73 25.5t-26 70.5v5q0 32 17 64.5t46 53.5z" />
    <glyph glyph-name="iogonek" unicode="&#x12f;" horiz-adv-x="198" 
d="M46 0v500h106v-500q-53 -47 -53 -98v-5q0 -33 25 -33q16 0 28 15l52 -55q-36 -43 -95 -43q-46 0 -72.5 25.5t-26.5 70.5v5q0 31 17 64t46 54h-27zM46 590v122h106v-122h-106z" />
    <glyph glyph-name="Idotaccent" unicode="&#x130;" horiz-adv-x="208" 
d="M162 700v-700h-116v700h116zM155 896v-108h-102v108h102z" />
    <glyph glyph-name="dotlessi" unicode="&#x131;" horiz-adv-x="198" 
d="M46 0v500h106v-500h-106z" />
    <glyph glyph-name="IJ" unicode="&#x132;" horiz-adv-x="605" 
d="M162 700v-700h-116v700h116zM221 186v11l116 5v-6q0 -104 55 -104t55 104v504h116v-514q0 -96 -44.5 -147t-126.5 -51t-126.5 51t-44.5 147z" />
    <glyph glyph-name="ij" unicode="&#x133;" horiz-adv-x="396" 
d="M46 0v500h106v-500h-106zM46 590v122h106v-122h-106zM244 590v122h106v-122h-106zM350 500v-549q0 -90 -32.5 -126.5t-106.5 -36.5h-34v96h23q27 0 35.5 14t8.5 54v548h106z" />
    <glyph glyph-name="Jcircumflex" unicode="&#x134;" horiz-adv-x="395" 
d="M11 186v11l116 5v-6q0 -104 55 -104t55 104v504h116v-514q0 -96 -44.5 -147t-126.5 -51t-126.5 51t-44.5 147zM170 763l82 161h82l82 -161h-74l-49 76l-49 -76h-74z" />
    <glyph glyph-name="jcircumflex" unicode="&#x135;" horiz-adv-x="198" 
d="M152 500v-549q0 -90 -32.5 -126.5t-106.5 -36.5h-34v96h23q27 0 35.5 14t8.5 54v548h106zM-24 564l82 161h82l82 -161h-74l-49 76l-49 -76h-74z" />
    <glyph glyph-name="Kcommaaccent" unicode="&#x136;" horiz-adv-x="438" 
d="M392 700v-52q0 -96 -17.5 -153.5t-66.5 -110.5l130 -384h-121l-97 302l-58 -53v-249h-116v700h116v-302l35 33q46 45 62.5 90.5t16.5 127.5v51h116zM290 -49l-54 -161h-74l30 161h98z" />
    <glyph glyph-name="kcommaaccent" unicode="&#x137;" horiz-adv-x="373" 
d="M340 500v-21q0 -78 -14.5 -121.5t-53.5 -80.5l100 -277h-111l-68 204l-48 -44v-160h-105v712h105v-417l30 28q37 34 48.5 64.5t11.5 87.5v25h105zM258 -49l-54 -161h-74l30 161h98z" />
    <glyph glyph-name="kgreenlandic" unicode="&#x138;" horiz-adv-x="373" 
d="M340 500v-21q0 -78 -14.5 -121.5t-53.5 -80.5l100 -277h-111l-68 204l-48 -44v-160h-105v500h105v-205l30 28q37 34 48.5 64.5t11.5 87.5v25h105z" />
    <glyph glyph-name="Lacute" unicode="&#x139;" horiz-adv-x="380" 
d="M46 0v700h116v-596h210v-104h-326zM221 924l-83 -161h-76l58 161h101z" />
    <glyph glyph-name="lacute" unicode="&#x13a;" horiz-adv-x="229" 
d="M44 157v555h105v-552q0 -38 9 -51.5t34 -13.5h24v-95h-48q-67 0 -95.5 35.5t-28.5 121.5zM215 924l-83 -161h-76l58 161h101z" />
    <glyph glyph-name="Lcommaaccent" unicode="&#x13b;" horiz-adv-x="380" 
d="M46 0v700h116v-596h210v-104h-326zM273 -49l-54 -161h-74l30 161h98z" />
    <glyph glyph-name="lcommaaccent" unicode="&#x13c;" horiz-adv-x="229" 
d="M44 157v555h105v-552q0 -38 9 -51.5t34 -13.5h24v-95h-48q-67 0 -95.5 35.5t-28.5 121.5zM196 -49l-54 -161h-74l30 161h98z" />
    <glyph glyph-name="Lcaron" unicode="&#x13d;" horiz-adv-x="380" 
d="M46 0v700h116v-596h210v-104h-326zM273 596h-51v116h108v-118q0 -56 -26 -84.5t-82 -31.5v48q28 4 39.5 19t11.5 51z" />
    <glyph glyph-name="lcaron" unicode="&#x13e;" horiz-adv-x="296" 
d="M44 157v555h105v-552q0 -38 9 -51.5t34 -13.5h24v-95h-48q-67 0 -95.5 35.5t-28.5 121.5zM239 596h-51v116h108v-118q0 -56 -26 -84.5t-82 -31.5v48q28 4 39.5 19t11.5 51z" />
    <glyph glyph-name="Ldot" unicode="&#x13f;" horiz-adv-x="380" 
d="M46 0v700h116v-596h210v-104h-326zM337 432v-108h-102v108h102z" />
    <glyph glyph-name="ldot" unicode="&#x140;" horiz-adv-x="318" 
d="M44 157v555h105v-552q0 -38 9 -51.5t34 -13.5h24v-95h-48q-67 0 -95.5 35.5t-28.5 121.5zM304 432v-108h-102v108h102z" />
    <glyph glyph-name="Lslash" unicode="&#x141;" horiz-adv-x="380" 
d="M278 359l-116 -56v-199h210v-104h-326v248l-50 -24v87l50 24v365h116v-310l116 56v-87z" />
    <glyph glyph-name="lslash" unicode="&#x142;" horiz-adv-x="240" 
d="M57 157v113l-50 -24v88l50 24v354h105v-303l54 27v-88l-54 -27v-161q0 -38 9 -51.5t34 -13.5h24v-95h-48q-67 0 -95.5 35.5t-28.5 121.5z" />
    <glyph glyph-name="Nacute" unicode="&#x143;" horiz-adv-x="470" 
d="M321 0l-161 429v-429h-114v700h103l161 -429v429h114v-700h-103zM337 924l-83 -161h-76l58 161h101z" />
    <glyph glyph-name="nacute" unicode="&#x144;" horiz-adv-x="399" 
d="M146 366v-366h-106v500h106v-42q26 54 90 54q60 0 92.5 -44t32.5 -125v-343h-106v337q0 80 -51 80q-46 0 -58 -51zM301 725l-83 -161h-76l58 161h101z" />
    <glyph glyph-name="Ncommaaccent" unicode="&#x145;" horiz-adv-x="470" 
d="M321 0l-161 429v-429h-114v700h103l161 -429v429h114v-700h-103zM308 -49l-54 -161h-74l30 161h98z" />
    <glyph glyph-name="ncommaaccent" unicode="&#x146;" horiz-adv-x="399" 
d="M146 366v-366h-106v500h106v-42q26 54 90 54q60 0 92.5 -44t32.5 -125v-343h-106v337q0 80 -51 80q-46 0 -58 -51zM261 -49l-54 -161h-74l30 161h98z" />
    <glyph glyph-name="Ncaron" unicode="&#x147;" horiz-adv-x="470" 
d="M321 0l-161 429v-429h-114v700h103l161 -429v429h114v-700h-103zM194 763l-82 161h74l49 -76l49 76h74l-82 -161h-82z" />
    <glyph glyph-name="ncaron" unicode="&#x148;" horiz-adv-x="399" 
d="M146 366v-366h-106v500h106v-42q26 54 90 54q60 0 92.5 -44t32.5 -125v-343h-106v337q0 80 -51 80q-46 0 -58 -51zM157 564l-82 161h74l49 -76l49 76h74l-82 -161h-82z" />
    <glyph glyph-name="napostrophe" unicode="&#x149;" horiz-adv-x="450" 
d="M197 366v-366h-106v500h106v-42q26 54 90 54q60 0 92.5 -44t32.5 -125v-343h-106v337q0 80 -51 80q-46 0 -58 -51zM49 596h-51v116h108v-118q0 -56 -26 -84.5t-82 -31.5v48q28 4 39.5 19t11.5 51z" />
    <glyph glyph-name="Eng" unicode="&#x14a;" horiz-adv-x="471" 
d="M424 700v-754q0 -87 -29.5 -122.5t-100.5 -35.5h-50v104h23q25 0 34 13.5t9 51.5v72l-150 400v-429h-114v700h103l161 -429v429h114z" />
    <glyph glyph-name="eng" unicode="&#x14b;" horiz-adv-x="399" 
d="M361 343v-397q0 -87 -29.5 -122.5t-100.5 -35.5h-50v95h31q25 0 34 13.5t9 51.5v389q0 80 -51 80q-46 0 -58 -51v-366h-106v500h106v-42q26 54 90 54q60 0 92.5 -44t32.5 -125z" />
    <glyph glyph-name="Omacron" unicode="&#x14c;" horiz-adv-x="446" 
d="M296 224v252q0 69 -17.5 100.5t-55.5 31.5t-55.5 -31.5t-17.5 -100.5v-252q0 -69 17.5 -100.5t55.5 -31.5t55.5 31.5t17.5 100.5zM412 491v-282q0 -109 -50.5 -165t-138.5 -56t-138.5 56t-50.5 165v282q0 109 50.5 165t138.5 56t138.5 -56t50.5 -165zM112 805v76h222v-76
h-222z" />
    <glyph glyph-name="omacron" unicode="&#x14d;" horiz-adv-x="380" 
d="M136 327v-154q0 -90 54 -90t54 90v154q0 90 -54 90t-54 -90zM350 332v-164q0 -85 -43 -132.5t-117 -47.5t-117 47.5t-43 132.5v164q0 85 43 132.5t117 47.5t117 -47.5t43 -132.5zM79 606v76h222v-76h-222z" />
    <glyph glyph-name="Obreve" unicode="&#x14e;" horiz-adv-x="446" 
d="M296 224v252q0 69 -17.5 100.5t-55.5 31.5t-55.5 -31.5t-17.5 -100.5v-252q0 -69 17.5 -100.5t55.5 -31.5t55.5 31.5t17.5 100.5zM412 491v-282q0 -109 -50.5 -165t-138.5 -56t-138.5 56t-50.5 165v282q0 109 50.5 165t138.5 56t138.5 -56t50.5 -165zM223 837
q23 0 32.5 17t11.5 55l77 -7q-7 -138 -121 -138t-121 138l77 7q2 -38 11.5 -55t32.5 -17z" />
    <glyph glyph-name="obreve" unicode="&#x14f;" horiz-adv-x="380" 
d="M136 327v-154q0 -90 54 -90t54 90v154q0 90 -54 90t-54 -90zM350 332v-164q0 -85 -43 -132.5t-117 -47.5t-117 47.5t-43 132.5v164q0 85 43 132.5t117 47.5t117 -47.5t43 -132.5zM190 640q23 0 32.5 17t11.5 55l77 -7q-7 -138 -121 -138t-121 138l77 7q2 -38 11.5 -55
t32.5 -17z" />
    <glyph glyph-name="Ohungarumlaut" unicode="&#x150;" horiz-adv-x="446" 
d="M296 224v252q0 69 -17.5 100.5t-55.5 31.5t-55.5 -31.5t-17.5 -100.5v-252q0 -69 17.5 -100.5t55.5 -31.5t55.5 31.5t17.5 100.5zM412 491v-282q0 -109 -50.5 -165t-138.5 -56t-138.5 56t-50.5 165v282q0 109 50.5 165t138.5 56t138.5 -56t50.5 -165zM257 924l-72 -161
h-74l47 161h99zM397 924l-85 -161h-75l62 161h98z" />
    <glyph glyph-name="ohungarumlaut" unicode="&#x151;" horiz-adv-x="380" 
d="M136 327v-154q0 -90 54 -90t54 90v154q0 90 -54 90t-54 -90zM350 332v-164q0 -85 -43 -132.5t-117 -47.5t-117 47.5t-43 132.5v164q0 85 43 132.5t117 47.5t117 -47.5t43 -132.5zM221 725l-72 -161h-74l47 161h99zM361 725l-85 -161h-75l62 161h98z" />
    <glyph glyph-name="OE" unicode="&#x152;" horiz-adv-x="635" 
d="M223 700h382v-104h-207v-185h178v-104h-178v-203h207v-104h-382q-189 0 -189 218v264q0 218 189 218zM223 104h59v492h-59q-38 0 -55.5 -30.5t-17.5 -98.5v-234q0 -68 17.5 -98.5t55.5 -30.5z" />
    <glyph glyph-name="oe" unicode="&#x153;" horiz-adv-x="595" 
d="M405 -12q-70 0 -107 49q-40 -49 -108 -49q-74 0 -117 47.5t-43 132.5v164q0 85 43 132.5t117 47.5q66 0 108 -50q42 50 107 50q74 0 117 -47.5t43 -132.5v-123h-214v-36q0 -90 54 -90q46 0 52 63l106 -7q-7 -72 -49 -111.5t-109 -39.5zM136 327v-154q0 -90 54 -90t54 90
v154q0 90 -54 90t-54 -90zM351 327v-28h108v28q0 90 -54 90t-54 -90z" />
    <glyph glyph-name="Racute" unicode="&#x154;" horiz-adv-x="436" 
d="M162 268v-268h-116v700h165q88 0 140 -53t52 -163q0 -136 -83 -188l104 -296h-121l-87 268h-54zM287 484q0 111 -92 111h-33v-222h33q92 0 92 111zM294 924l-83 -161h-76l58 161h101z" />
    <glyph glyph-name="racute" unicode="&#x155;" horiz-adv-x="284" 
d="M40 0v500h106v-60q28 67 94 67q24 0 37 -7v-105q-19 7 -42 7q-63 0 -89 -65v-337h-106zM247 725l-83 -161h-76l58 161h101z" />
    <glyph glyph-name="Rcommaaccent" unicode="&#x156;" horiz-adv-x="436" 
d="M162 268v-268h-116v700h165q88 0 140 -53t52 -163q0 -136 -83 -188l104 -296h-121l-87 268h-54zM287 484q0 111 -92 111h-33v-222h33q92 0 92 111zM286 -49l-54 -161h-74l30 161h98z" />
    <glyph glyph-name="rcommaaccent" unicode="&#x157;" horiz-adv-x="284" 
d="M40 0v500h106v-60q28 67 94 67q24 0 37 -7v-105q-19 7 -42 7q-63 0 -89 -65v-337h-106zM153 -49l-54 -161h-74l30 161h98z" />
    <glyph glyph-name="Rcaron" unicode="&#x158;" horiz-adv-x="436" 
d="M162 268v-268h-116v700h165q88 0 140 -53t52 -163q0 -136 -83 -188l104 -296h-121l-87 268h-54zM287 484q0 111 -92 111h-33v-222h33q92 0 92 111zM156 763l-82 161h74l49 -76l49 76h74l-82 -161h-82z" />
    <glyph glyph-name="rcaron" unicode="&#x159;" horiz-adv-x="284" 
d="M39 0v500h106v-60q28 67 94 67q24 0 37 -7v-105q-19 7 -42 7q-63 0 -89 -65v-337h-106zM113 564l-82 161h74l49 -76l49 76h74l-82 -161h-82z" />
    <glyph glyph-name="Sacute" unicode="&#x15a;" horiz-adv-x="419" 
d="M32 183v12l116 6v-19q0 -90 64 -90t64 90v19q0 42 -15 63t-55 34l-38 12q-76 24 -106.5 69t-30.5 130v14q0 89 42.5 139t130.5 50q167 0 173 -192v-18l-116 -5v25q0 86 -57 86t-57 -86v-13q0 -42 15.5 -63.5t54.5 -33.5l36 -11q77 -24 108 -69.5t31 -130.5v-18
q0 -92 -46.5 -143.5t-133.5 -51.5t-133.5 51.5t-46.5 143.5zM294 924l-83 -161h-76l58 161h101z" />
    <glyph glyph-name="sacute" unicode="&#x15b;" horiz-adv-x="351" 
d="M138 146v-15q0 -48 40 -48t40 48v10q0 28 -10 40.5t-40 22.5l-27 9q-62 21 -86.5 54.5t-24.5 100.5v9q0 60 36 97.5t104 37.5q69 0 105.5 -37.5t36.5 -97.5v-17l-106 -4v18q0 43 -35 43t-35 -43v-6q0 -29 9.5 -41t39.5 -23l38 -14q56 -20 78.5 -51.5t22.5 -94.5v-15
q0 -65 -38.5 -103t-107.5 -38t-107.5 38t-38.5 103v13zM267 725l-83 -161h-76l58 161h101z" />
    <glyph glyph-name="Scircumflex" unicode="&#x15c;" horiz-adv-x="419" 
d="M32 183v12l116 6v-19q0 -90 64 -90t64 90v19q0 42 -15 63t-55 34l-38 12q-76 24 -106.5 69t-30.5 130v14q0 89 42.5 139t130.5 50q167 0 173 -192v-18l-116 -5v25q0 86 -57 86t-57 -86v-13q0 -42 15.5 -63.5t54.5 -33.5l36 -11q77 -24 108 -69.5t31 -130.5v-18
q0 -92 -46.5 -143.5t-133.5 -51.5t-133.5 51.5t-46.5 143.5zM77 763l82 161h82l82 -161h-74l-49 76l-49 -76h-74z" />
    <glyph glyph-name="scircumflex" unicode="&#x15d;" horiz-adv-x="351" 
d="M138 146v-15q0 -48 40 -48t40 48v10q0 28 -10 40.5t-40 22.5l-27 9q-62 21 -86.5 54.5t-24.5 100.5v9q0 60 36 97.5t104 37.5q69 0 105.5 -37.5t36.5 -97.5v-17l-106 -4v18q0 43 -35 43t-35 -43v-6q0 -29 9.5 -41t39.5 -23l38 -14q56 -20 78.5 -51.5t22.5 -94.5v-15
q0 -65 -38.5 -103t-107.5 -38t-107.5 38t-38.5 103v13zM45 564l82 161h82l82 -161h-74l-49 76l-49 -76h-74z" />
    <glyph glyph-name="Scedilla" unicode="&#x15e;" horiz-adv-x="419" 
d="M121 -204l42 59q16 -14 34 -14q23 0 23 26q0 30 -44 40l-6 8l21 74q-77 6 -118 56.5t-41 137.5v12l116 6v-19q0 -90 64 -90t64 90v19q0 42 -15 63t-55 34l-38 12q-76 24 -106.5 69t-30.5 130v14q0 89 42.5 139t130.5 50q167 0 173 -192v-18l-116 -5v25q0 86 -57 86
t-57 -86v-13q0 -42 15.5 -63.5t54.5 -33.5l36 -11q77 -24 108 -69.5t31 -130.5v-18q0 -75 -31 -123t-89 -64l-15 -54q56 -27 56 -82v-6q0 -42 -27 -67t-74 -25q-55 0 -91 34z" />
    <glyph glyph-name="scedilla" unicode="&#x15f;" horiz-adv-x="351" 
d="M79 -204l42 59q16 -14 34 -14q23 0 23 26q0 30 -44 40l-6 8l22 75q-57 7 -87.5 44t-30.5 95v13l106 4v-15q0 -48 40 -48t40 48v10q0 28 -10 40.5t-40 22.5l-27 9q-62 21 -86.5 54.5t-24.5 100.5v9q0 60 36 97.5t104 37.5q69 0 105.5 -37.5t36.5 -97.5v-17l-106 -4v18
q0 43 -35 43t-35 -43v-6q0 -29 9.5 -41t39.5 -23l38 -14q56 -20 78.5 -51.5t22.5 -94.5v-15q0 -51 -24.5 -86t-69.5 -48l-15 -53q56 -27 56 -82v-6q0 -42 -27 -67t-74 -25q-55 0 -91 34z" />
    <glyph glyph-name="Scaron" unicode="&#x160;" horiz-adv-x="419" 
d="M32 183v12l116 6v-19q0 -90 64 -90t64 90v19q0 42 -15 63t-55 34l-38 12q-76 24 -106.5 69t-30.5 130v14q0 89 42.5 139t130.5 50q167 0 173 -192v-18l-116 -5v25q0 86 -57 86t-57 -86v-13q0 -42 15.5 -63.5t54.5 -33.5l36 -11q77 -24 108 -69.5t31 -130.5v-18
q0 -92 -46.5 -143.5t-133.5 -51.5t-133.5 51.5t-46.5 143.5zM159 763l-82 161h74l49 -76l49 76h74l-82 -161h-82z" />
    <glyph glyph-name="scaron" unicode="&#x161;" horiz-adv-x="351" 
d="M138 146v-15q0 -48 40 -48t40 48v10q0 28 -10 40.5t-40 22.5l-27 9q-62 21 -86.5 54.5t-24.5 100.5v9q0 60 36 97.5t104 37.5q69 0 105.5 -37.5t36.5 -97.5v-17l-106 -4v18q0 43 -35 43t-35 -43v-6q0 -29 9.5 -41t39.5 -23l38 -14q56 -20 78.5 -51.5t22.5 -94.5v-15
q0 -65 -38.5 -103t-107.5 -38t-107.5 38t-38.5 103v13zM128 564l-82 161h74l49 -76l49 76h74l-82 -161h-82z" />
    <glyph glyph-name="Tcommaaccent" unicode="&#x162;" horiz-adv-x="386" 
d="M80 -204l42 59q16 -14 34 -14q23 0 23 26q0 30 -44 40l-6 8l25 85h-19v596h-126v104h368v-104h-126v-596h-18l-17 -58q56 -27 56 -82v-6q0 -42 -27 -67t-74 -25q-55 0 -91 34z" />
    <glyph glyph-name="tcommaaccent" unicode="&#x163;" horiz-adv-x="272" 
d="M50 -204l42 59q16 -14 34 -14q23 0 23 26q0 30 -44 40l-6 8l28 93q-68 25 -68 149v248h-48v95h48v142h106v-142h85v-95h-85v-245q0 -38 9.5 -51.5t33.5 -13.5h44v-95h-50l-16 -58q56 -27 56 -82v-6q0 -42 -27 -67t-74 -25q-55 0 -91 34z" />
    <glyph glyph-name="Tcaron" unicode="&#x164;" horiz-adv-x="386" 
d="M9 596v104h368v-104h-126v-596h-116v596h-126zM152 763l-82 161h74l49 -76l49 76h74l-82 -161h-82z" />
    <glyph glyph-name="tcaron" unicode="&#x165;" horiz-adv-x="380" 
d="M11 405v95h48v142h106v-142h85v-95h-85v-245q0 -38 9.5 -51.5t33.5 -13.5h44v-95h-68q-67 0 -96 35.5t-29 121.5v248h-48zM320 596h-51v116h108v-118q0 -56 -26 -84.5t-82 -31.5v48q28 4 39.5 19t11.5 51z" />
    <glyph glyph-name="Tbar" unicode="&#x166;" horiz-adv-x="386" 
d="M62 310v80h73v206h-126v104h368v-104h-126v-206h74v-80h-74v-310h-116v310h-73z" />
    <glyph glyph-name="tbar" unicode="&#x167;" horiz-adv-x="272" 
d="M20 308h39v97h-48v95h48v142h106v-142h85v-95h-85v-97h66v-77h-66v-71q0 -38 9.5 -51.5t33.5 -13.5h44v-95h-68q-67 0 -96 35.5t-29 121.5v74h-39v77z" />
    <glyph glyph-name="Utilde" unicode="&#x168;" horiz-adv-x="458" 
d="M229 -12q-88 0 -138 55.5t-50 161.5v495h116v-480q0 -67 17 -97.5t55 -30.5t55 30.5t17 97.5v480h116v-495q0 -106 -50 -161.5t-138 -55.5zM226 800q-20 18 -32 18q-17 0 -20 -39l-71 7q4 119 75 119q27 0 55 -23q19 -18 32 -18q17 0 20 38l71 -6q-4 -120 -75 -120
q-29 0 -55 24z" />
    <glyph glyph-name="utilde" unicode="&#x169;" horiz-adv-x="399" 
d="M253 134v366h106v-500h-106v42q-26 -54 -90 -54q-60 0 -92.5 44t-32.5 125v343h106v-337q0 -80 51 -80q46 0 58 51zM192 601q-20 18 -32 18q-17 0 -20 -39l-71 7q4 119 75 119q27 0 55 -23q19 -18 32 -18q17 0 20 38l71 -6q-4 -120 -75 -120q-29 0 -55 24z" />
    <glyph glyph-name="Umacron" unicode="&#x16a;" horiz-adv-x="458" 
d="M229 -12q-88 0 -138 55.5t-50 161.5v495h116v-480q0 -67 17 -97.5t55 -30.5t55 30.5t17 97.5v480h116v-495q0 -106 -50 -161.5t-138 -55.5zM118 805v76h222v-76h-222z" />
    <glyph glyph-name="umacron" unicode="&#x16b;" horiz-adv-x="399" 
d="M253 134v366h106v-500h-106v42q-26 -54 -90 -54q-60 0 -92.5 44t-32.5 125v343h106v-337q0 -80 51 -80q46 0 58 51zM85 606v76h222v-76h-222z" />
    <glyph glyph-name="Ubreve" unicode="&#x16c;" horiz-adv-x="458" 
d="M229 -12q-88 0 -138 55.5t-50 161.5v495h116v-480q0 -67 17 -97.5t55 -30.5t55 30.5t17 97.5v480h116v-495q0 -106 -50 -161.5t-138 -55.5zM229 837q23 0 32.5 17t11.5 55l77 -7q-7 -138 -121 -138t-121 138l77 7q2 -38 11.5 -55t32.5 -17z" />
    <glyph glyph-name="ubreve" unicode="&#x16d;" horiz-adv-x="399" 
d="M253 134v366h106v-500h-106v42q-26 -54 -90 -54q-60 0 -92.5 44t-32.5 125v343h106v-337q0 -80 51 -80q46 0 58 51zM196 640q23 0 32.5 17t11.5 55l77 -7q-7 -138 -121 -138t-121 138l77 7q2 -38 11.5 -55t32.5 -17z" />
    <glyph glyph-name="Uring" unicode="&#x16e;" horiz-adv-x="458" 
d="M229 -12q-88 0 -138 55.5t-50 161.5v495h116v-480q0 -67 17 -97.5t55 -30.5t55 30.5t17 97.5v480h116v-495q0 -106 -50 -161.5t-138 -55.5zM318 841q0 -40 -25.5 -63.5t-63.5 -23.5t-63.5 23.5t-25.5 63.5t25.5 63.5t63.5 23.5t63.5 -23.5t25.5 -63.5zM199 841
q0 -34 30 -34t30 34t-30 34t-30 -34z" />
    <glyph glyph-name="uring" unicode="&#x16f;" horiz-adv-x="399" 
d="M253 134v366h106v-500h-106v42q-26 -54 -90 -54q-60 0 -92.5 44t-32.5 125v343h106v-337q0 -80 51 -80q46 0 58 51zM285 642q0 -40 -25.5 -63.5t-63.5 -23.5t-63.5 23.5t-25.5 63.5t25.5 63.5t63.5 23.5t63.5 -23.5t25.5 -63.5zM166 642q0 -34 30 -34t30 34t-30 34
t-30 -34z" />
    <glyph glyph-name="Uhungarumlaut" unicode="&#x170;" horiz-adv-x="458" 
d="M229 -12q-88 0 -138 55.5t-50 161.5v495h116v-480q0 -67 17 -97.5t55 -30.5t55 30.5t17 97.5v480h116v-495q0 -106 -50 -161.5t-138 -55.5zM264 924l-72 -161h-74l47 161h99zM404 924l-85 -161h-75l62 161h98z" />
    <glyph glyph-name="uhungarumlaut" unicode="&#x171;" horiz-adv-x="399" 
d="M253 134v366h106v-500h-106v42q-26 -54 -90 -54q-60 0 -92.5 44t-32.5 125v343h106v-337q0 -80 51 -80q46 0 58 51zM231 725l-72 -161h-74l47 161h99zM371 725l-85 -161h-75l62 161h98z" />
    <glyph glyph-name="Uogonek" unicode="&#x172;" horiz-adv-x="458" 
d="M417 205q0 -168 -120 -207q-50 -44 -50 -96v-5q0 -33 25 -33q15 0 27 15l53 -55q-36 -43 -95 -43q-47 0 -73 25.5t-26 70.5v5q0 63 49 107q-78 7 -122 61.5t-44 154.5v495h116v-480q0 -67 17 -97.5t55 -30.5t55 30.5t17 97.5v480h116v-495z" />
    <glyph glyph-name="uogonek" unicode="&#x173;" horiz-adv-x="399" 
d="M253 0v42q-26 -54 -90 -54q-60 0 -92.5 44t-32.5 125v343h106v-337q0 -80 51 -80q46 0 58 51v366h106v-500h-28q-52 -46 -52 -98v-5q0 -33 25 -33q15 0 27 15l53 -55q-36 -43 -95 -43q-47 0 -73 25.5t-26 70.5v5q0 32 17 64.5t46 53.5z" />
    <glyph glyph-name="Wcircumflex" unicode="&#x174;" horiz-adv-x="670" 
d="M391 700l77 -458l76 458h118l-136 -700h-111l-80 474l-80 -474h-111l-136 700h118l76 -458l78 458h111zM212 763l82 161h82l82 -161h-74l-49 76l-49 -76h-74z" />
    <glyph glyph-name="wcircumflex" unicode="&#x175;" horiz-adv-x="576" 
d="M240 500h96l65 -310l60 310h109l-114 -500h-100l-68 326l-68 -326h-100l-114 500h109l60 -310zM165 564l82 161h82l82 -161h-74l-49 76l-49 -76h-74z" />
    <glyph glyph-name="Ycircumflex" unicode="&#x176;" horiz-adv-x="426" 
d="M155 0v317l-147 383h119l86 -248l86 248h119l-147 -383v-317h-116zM90 763l82 161h82l82 -161h-74l-49 76l-49 -76h-74z" />
    <glyph glyph-name="ycircumflex" unicode="&#x177;" horiz-adv-x="367" 
d="M113 500l67 -293l74 293h108l-138 -543q-26 -104 -53.5 -136t-90.5 -32h-42v95h30q17 0 26.5 10t16.5 38l20 82l-126 486h108zM59 564l82 161h82l82 -161h-74l-49 76l-49 -76h-74z" />
    <glyph glyph-name="Ydieresis" unicode="&#x178;" horiz-adv-x="426" 
d="M155 0v317l-147 383h119l86 -248l86 248h119l-147 -383v-317h-116zM185 893v-101h-94v101h94zM335 893v-101h-94v101h94z" />
    <glyph glyph-name="Zacute" unicode="&#x179;" horiz-adv-x="383" 
d="M26 85l196 511h-189v104h324v-85l-196 -511h196v-104h-331v85zM299 924l-83 -161h-76l58 161h101z" />
    <glyph glyph-name="zacute" unicode="&#x17a;" horiz-adv-x="345" 
d="M316 500v-79l-161 -325h168v-96h-301v79l161 325h-153v96h286zM273 725l-83 -161h-76l58 161h101z" />
    <glyph glyph-name="Zdotaccent" unicode="&#x17b;" horiz-adv-x="383" 
d="M26 85l196 511h-189v104h324v-85l-196 -511h196v-104h-331v85zM250 896v-108h-102v108h102z" />
    <glyph glyph-name="zdotaccent" unicode="&#x17c;" horiz-adv-x="345" 
d="M316 500v-79l-161 -325h168v-96h-301v79l161 325h-153v96h286zM226 697v-108h-102v108h102z" />
    <glyph glyph-name="Zcaron" unicode="&#x17d;" horiz-adv-x="383" 
d="M26 85l196 511h-189v104h324v-85l-196 -511h196v-104h-331v85zM157 763l-82 161h74l49 -76l49 76h74l-82 -161h-82z" />
    <glyph glyph-name="zcaron" unicode="&#x17e;" horiz-adv-x="345" 
d="M316 500v-79l-161 -325h168v-96h-301v79l161 325h-153v96h286zM133 564l-82 161h74l49 -76l49 76h74l-82 -161h-82z" />
    <glyph glyph-name="longs" unicode="&#x17f;" horiz-adv-x="254" 
d="M15 405v95h49v54q0 87 29.5 122.5t100.5 35.5h50v-95h-31q-25 0 -34 -13.5t-9 -51.5v-552h-106v405h-49z" />
    <glyph glyph-name="uni0191" unicode="&#x191;" horiz-adv-x="385" 
d="M46 700h323v-104h-207v-194h185v-104h-185v-352q0 -87 -29.5 -122.5t-100.5 -35.5h-50v104h21q25 0 34 13.5t9 51.5v743z" />
    <glyph glyph-name="florin" unicode="&#x192;" horiz-adv-x="254" 
d="M64 -52v457h-49v95h49v54q0 87 29.5 122.5t100.5 35.5h50v-95h-31q-25 0 -34 -13.5t-9 -51.5v-52h74v-95h-74v-459q0 -87 -29.5 -122.5t-100.5 -35.5h-50v95h31q25 0 34 13.5t9 51.5z" />
    <glyph glyph-name="Aringacute" unicode="&#x1fa;" horiz-adv-x="444" 
d="M311 751q0 -41 -28 -66l157 -685h-119l-29 142h-140l-29 -142h-119l156 685q-27 24 -27 66q0 40 25.5 63.5t63.5 23.5t63.5 -23.5t25.5 -63.5zM222 486l-48 -240h96zM310 958l-54 -100h-72l34 100h92zM192 751q0 -34 30 -34t30 34t-30 34t-30 -34z" />
    <glyph glyph-name="aringacute" unicode="&#x1fb;" horiz-adv-x="379" 
d="M178 83q39 0 58 46v79h-51q-55 0 -55 -63v-9q0 -53 48 -53zM43 356v5q0 71 38 111t111 40t111 -40t38 -111v-361h-105v40q-23 -52 -89 -52q-53 0 -87.5 37t-34.5 106v13q0 72 42 113t117 41h52v53q0 32 -12 49t-32 17q-44 0 -44 -67zM279 642q0 -40 -25.5 -63.5
t-63.5 -23.5t-63.5 23.5t-25.5 63.5t25.5 63.5t63.5 23.5t63.5 -23.5t25.5 -63.5zM160 642q0 -34 30 -34t30 34t-30 34t-30 -34zM278 849l-54 -100h-72l34 100h92z" />
    <glyph glyph-name="AEacute" unicode="&#x1fc;" horiz-adv-x="661" 
d="M299 142h-130l-41 -142h-124l216 700h402v-104h-207v-185h178v-104h-178v-203h207v-104h-323v142zM299 582l-99 -336h99v336zM503 924l-83 -161h-76l58 161h101z" />
    <glyph glyph-name="aeacute" unicode="&#x1fd;" horiz-adv-x="586" 
d="M192 512q68 0 101 -48q37 48 104 48q72 0 115.5 -48t43.5 -132v-123h-214v-36q0 -90 54 -90q46 0 52 63l106 -7q-7 -72 -49 -111.5t-109 -39.5q-80 0 -124 56q-40 -56 -125 -56q-53 0 -87.5 37t-34.5 106v13q0 72 42 113t117 41h52v53q0 32 -12 49t-32 17q-44 0 -44 -67
l-105 6v5q0 71 38 111t111 40zM178 83q39 0 58 46v79h-51q-55 0 -55 -63v-9q0 -53 48 -53zM342 327v-28h108v28q0 90 -54 90t-54 -90zM396 725l-83 -161h-76l58 161h101z" />
    <glyph glyph-name="Oslashacute" unicode="&#x1fe;" horiz-adv-x="446" 
d="M52 -32l29 80q-47 56 -47 161v282q0 109 50.5 165t138.5 56q53 0 94 -21l15 41h62l-30 -80q48 -59 48 -161v-282q0 -109 -50.5 -165t-138.5 -56q-53 0 -94 21l-15 -41h-62zM296 224v241l-127 -345q18 -28 54 -28q38 0 55.5 31.5t17.5 100.5zM150 476v-241l126 345
q-18 28 -53 28q-38 0 -55.5 -31.5t-17.5 -100.5zM324 924l-83 -161h-76l58 161h101z" />
    <glyph glyph-name="oslashacute" unicode="&#x1ff;" horiz-adv-x="380" 
d="M54 -35l24 65q-48 48 -48 138v164q0 85 43 132.5t117 47.5q36 0 64 -12l14 38h59l-26 -68q49 -49 49 -138v-164q0 -85 -43 -132.5t-117 -47.5q-36 0 -64 12l-13 -35h-59zM136 327v-143l83 224q-12 9 -29 9q-54 0 -54 -90zM190 83q54 0 54 90v142l-84 -223q10 -9 30 -9z
M291 725l-83 -161h-76l58 161h101z" />
    <glyph glyph-name="Scommaaccent" unicode="&#x218;" horiz-adv-x="419" 
d="M32 183v12l116 6v-19q0 -90 64 -90t64 90v19q0 42 -15 63t-55 34l-38 12q-76 24 -106.5 69t-30.5 130v14q0 89 42.5 139t130.5 50q167 0 173 -192v-18l-116 -5v25q0 86 -57 86t-57 -86v-13q0 -42 15.5 -63.5t54.5 -33.5l36 -11q77 -24 108 -69.5t31 -130.5v-18
q0 -92 -46.5 -143.5t-133.5 -51.5t-133.5 51.5t-46.5 143.5zM283 -49l-54 -161h-74l30 161h98z" />
    <glyph glyph-name="scommaaccent" unicode="&#x219;" horiz-adv-x="351" 
d="M138 146v-15q0 -48 40 -48t40 48v10q0 28 -10 40.5t-40 22.5l-27 9q-62 21 -86.5 54.5t-24.5 100.5v9q0 60 36 97.5t104 37.5q69 0 105.5 -37.5t36.5 -97.5v-17l-106 -4v18q0 43 -35 43t-35 -43v-6q0 -29 9.5 -41t39.5 -23l38 -14q56 -20 78.5 -51.5t22.5 -94.5v-15
q0 -65 -38.5 -103t-107.5 -38t-107.5 38t-38.5 103v13zM243 -49l-54 -161h-74l30 161h98z" />
    <glyph glyph-name="uni021A" unicode="&#x21a;" horiz-adv-x="386" 
d="M9 596v104h368v-104h-126v-596h-116v596h-126zM243 -49l-54 -161h-74l30 161h98z" />
    <glyph glyph-name="uni021B" unicode="&#x21b;" horiz-adv-x="272" 
d="M11 405v95h48v142h106v-142h85v-95h-85v-245q0 -38 9.5 -51.5t33.5 -13.5h44v-95h-68q-67 0 -96 35.5t-29 121.5v248h-48zM217 -49l-54 -161h-74l30 161h98z" />
    <glyph glyph-name="dotlessj" unicode="&#x237;" horiz-adv-x="198" 
d="M152 500v-549q0 -90 -32.5 -126.5t-106.5 -36.5h-34v96h23q27 0 35.5 14t8.5 54v548h106z" />
    <glyph glyph-name="apostrophe" unicode="&#x2bc;" 
d="M136 614h-51v116h108v-118q0 -56 -26 -84.5t-82 -31.5v48q28 4 39.5 19t11.5 51z" />
    <glyph glyph-name="circumflex" unicode="&#x2c6;" 
d="M16 569l82 161h82l82 -161h-74l-49 76l-49 -76h-74z" />
    <glyph glyph-name="caron" unicode="&#x2c7;" 
d="M98 569l-82 161h74l49 -76l49 76h74l-82 -161h-82z" />
    <glyph glyph-name="uni02C9" unicode="&#x2c9;" 
d="M28 610v76h222v-76h-222z" />
    <glyph glyph-name="breve" unicode="&#x2d8;" 
d="M139 645q23 0 32.5 17t11.5 55l77 -7q-7 -138 -121 -138t-121 138l77 7q2 -38 11.5 -55t32.5 -17z" />
    <glyph glyph-name="dotaccent" unicode="&#x2d9;" 
d="M190 702v-108h-102v108h102z" />
    <glyph glyph-name="ring" unicode="&#x2da;" 
d="M228 647q0 -40 -25.5 -63.5t-63.5 -23.5t-63.5 23.5t-25.5 63.5t25.5 63.5t63.5 23.5t63.5 -23.5t25.5 -63.5zM109 647q0 -34 30 -34t30 34t-30 34t-30 -34z" />
    <glyph glyph-name="ogonek" unicode="&#x2db;" 
d="M105 0h78q-52 -46 -52 -98v-5q0 -33 25 -33q15 0 27 15l53 -55q-36 -43 -95 -43q-47 0 -73 25.5t-26 70.5v5q0 32 17 64.5t46 53.5z" />
    <glyph glyph-name="tilde" unicode="&#x2dc;" 
d="M135 607q-20 18 -32 18q-17 0 -20 -39l-71 7q4 119 75 119q27 0 55 -23q19 -18 32 -18q17 0 20 38l71 -6q-4 -120 -75 -120q-29 0 -55 24z" />
    <glyph glyph-name="hungarumlaut" unicode="&#x2dd;" 
d="M142 730l-72 -161h-74l47 161h99zM282 730l-85 -161h-75l62 161h98z" />
    <glyph glyph-name="gravecomb" unicode="&#x300;" horiz-adv-x="0" 
d="M-212 569l-83 161h101l58 -161h-76z" />
    <glyph glyph-name="acutecomb" unicode="&#x301;" horiz-adv-x="0" 
d="M-130 730l-83 -161h-76l58 161h101z" />
    <glyph glyph-name="uni0302" unicode="&#x302;" horiz-adv-x="0" 
d="M-334 569l82 161h82l82 -161h-74l-49 76l-49 -76h-74z" />
    <glyph glyph-name="tildecomb" unicode="&#x303;" horiz-adv-x="0" 
d="M-216 607q-20 18 -32 18q-17 0 -20 -39l-71 7q4 119 75 119q27 0 55 -23q19 -18 32 -18q17 0 20 38l71 -6q-4 -120 -75 -120q-29 0 -55 24z" />
    <glyph glyph-name="uni0304" unicode="&#x304;" horiz-adv-x="0" 
d="M-323 611v76h222v-76h-222z" />
    <glyph glyph-name="uni0306" unicode="&#x306;" horiz-adv-x="0" 
d="M-212 645q23 0 32.5 17t11.5 55l77 -7q-7 -138 -121 -138t-121 138l77 7q2 -38 11.5 -55t32.5 -17z" />
    <glyph glyph-name="uni0307" unicode="&#x307;" horiz-adv-x="0" 
d="M-161 702v-108h-102v108h102z" />
    <glyph glyph-name="uni0308" unicode="&#x308;" horiz-adv-x="0" 
d="M-223 699v-101h-94v101h94zM-73 699v-101h-94v101h94z" />
    <glyph glyph-name="uni030A" unicode="&#x30a;" horiz-adv-x="0" 
d="M-123 647q0 -40 -25.5 -63.5t-63.5 -23.5t-63.5 23.5t-25.5 63.5t25.5 63.5t63.5 23.5t63.5 -23.5t25.5 -63.5zM-242 647q0 -34 30 -34t30 34t-30 34t-30 -34z" />
    <glyph glyph-name="uni030C" unicode="&#x30c;" horiz-adv-x="0" 
d="M-253 569l-82 161h74l49 -76l49 76h74l-82 -161h-82z" />
    <glyph glyph-name="uni0327" unicode="&#x327;" horiz-adv-x="0" 
d="M-305 -204l42 59q16 -14 34 -14q23 0 23 26q0 30 -44 40l-6 8l25 85h79l-17 -58q56 -27 56 -82v-6q0 -42 -27 -67t-74 -25q-55 0 -91 34z" />
    <glyph glyph-name="uni03A9" unicode="&#x3a9;" horiz-adv-x="454" 
d="M227 712q88 0 138.5 -56t50.5 -165v-213q0 -131 -59 -174h56v-104h-162v94q31 17 40 57t9 121v204q0 69 -17.5 100.5t-55.5 31.5t-55.5 -31.5t-17.5 -100.5v-204q0 -81 9 -121t40 -57v-94h-162v104h56q-59 43 -59 174v213q0 109 50.5 165t138.5 56z" />
    <glyph glyph-name="uni0400" unicode="&#x400;" horiz-adv-x="399" 
d="M46 0v700h323v-104h-207v-185h178v-104h-178v-203h207v-104h-323zM193 763l-83 161h101l58 -161h-76z" />
    <glyph glyph-name="afii10023" unicode="&#x401;" horiz-adv-x="399" 
d="M46 0v700h323v-104h-207v-185h178v-104h-178v-203h207v-104h-323zM181 893v-101h-94v101h94zM331 893v-101h-94v101h94z" />
    <glyph glyph-name="afii10051" unicode="&#x402;" horiz-adv-x="513" 
d="M368 277q0 46 -13.5 65.5t-43.5 19.5q-32 0 -61 -24v-338h-116v596h-126v104h368v-104h-126v-166q45 32 99 32q66 0 100.5 -45t34.5 -129v-274q0 -87 -29.5 -122.5t-100.5 -35.5h-50v104h21q25 0 34 13.5t9 51.5v252z" />
    <glyph glyph-name="afii10052" unicode="&#x403;" horiz-adv-x="391" 
d="M46 0v700h340v-104h-224v-596h-116zM308 924l-83 -161h-76l58 161h101z" />
    <glyph glyph-name="afii10053" unicode="&#x404;" horiz-adv-x="438" 
d="M150 402h111v-104h-111v-74q0 -69 17.5 -100.5t55.5 -31.5t55.5 31.5t17.5 100.5v12l116 -5v-22q0 -109 -50.5 -165t-138.5 -56t-138.5 56t-50.5 165v282q0 109 50.5 165t138.5 56t138.5 -56t50.5 -165v-22l-116 -5v12q0 69 -17.5 100.5t-55.5 31.5t-55.5 -31.5
t-17.5 -100.5v-74z" />
    <glyph glyph-name="afii10054" unicode="&#x405;" horiz-adv-x="419" 
d="M32 183v12l116 6v-19q0 -90 64 -90t64 90v19q0 42 -15 63t-55 34l-38 12q-76 24 -106.5 69t-30.5 130v14q0 89 42.5 139t130.5 50q167 0 173 -192v-18l-116 -5v25q0 86 -57 86t-57 -86v-13q0 -42 15.5 -63.5t54.5 -33.5l36 -11q77 -24 108 -69.5t31 -130.5v-18
q0 -92 -46.5 -143.5t-133.5 -51.5t-133.5 51.5t-46.5 143.5z" />
    <glyph glyph-name="afii10055" unicode="&#x406;" horiz-adv-x="208" 
d="M162 700v-700h-116v700h116z" />
    <glyph glyph-name="afii10056" unicode="&#x407;" horiz-adv-x="208" 
d="M162 700v-700h-116v700h116zM76 893v-101h-94v101h94zM226 893v-101h-94v101h94z" />
    <glyph glyph-name="afii10057" unicode="&#x408;" horiz-adv-x="395" 
d="M11 186v11l116 5v-6q0 -104 55 -104t55 104v504h116v-514q0 -96 -44.5 -147t-126.5 -51t-126.5 51t-44.5 147z" />
    <glyph glyph-name="afii10058" unicode="&#x409;" horiz-adv-x="700" 
d="M677 217v-18q0 -98 -46.5 -148.5t-135.5 -50.5h-173v596h-127v-447q0 -89 -34 -125t-116 -36h-39v104h31q22 0 32 13.5t10 47.5v547h359v-283h57q89 0 135.5 -50.5t46.5 -149.5zM562 203v11q0 99 -82 99h-42v-209h42q82 0 82 99z" />
    <glyph glyph-name="afii10059" unicode="&#x40a;" horiz-adv-x="670" 
d="M292 0v307h-130v-307h-116v700h116v-289h130v289h116v-283h57q89 0 135.5 -50.5t46.5 -149.5v-18q0 -98 -46.5 -148.5t-135.5 -50.5h-173zM532 203v11q0 99 -82 99h-42v-209h42q82 0 82 99z" />
    <glyph glyph-name="afii10060" unicode="&#x40b;" horiz-adv-x="513" 
d="M368 0v277q0 46 -13.5 65.5t-43.5 19.5q-32 0 -61 -24v-338h-116v595h-126v105h368v-105h-126v-165q45 32 99 32q66 0 100.5 -45t34.5 -129v-288h-116z" />
    <glyph glyph-name="afii10061" unicode="&#x40c;" horiz-adv-x="438" 
d="M392 700v-52q0 -96 -17.5 -153.5t-66.5 -110.5l130 -384h-121l-97 302l-58 -53v-249h-116v700h116v-302l35 33q46 45 62.5 90.5t16.5 127.5v51h116zM320 924l-83 -161h-76l58 161h101z" />
    <glyph glyph-name="uni040D" unicode="&#x40d;" horiz-adv-x="470" 
d="M149 0l161 429v-429h114v700h-103l-161 -429v429h-114v-700h103zM220 763l-83 161h101l58 -161h-76z" />
    <glyph glyph-name="afii10062" unicode="&#x40e;" horiz-adv-x="403" 
d="M126 152l25 91l-143 457h118l77 -277l74 277h118l-164 -580q-19 -69 -48.5 -94.5t-79.5 -25.5h-53v104h27q19 0 30 10t19 38zM201 837q23 0 32.5 17t11.5 55l77 -7q-7 -138 -121 -138t-121 138l77 7q2 -38 11.5 -55t32.5 -17z" />
    <glyph glyph-name="afii10145" unicode="&#x40f;" horiz-adv-x="452" 
d="M290 104v596h116v-700h-122v-120h-116v120h-122v700h116v-596h128z" />
    <glyph glyph-name="afii10017" unicode="&#x410;" horiz-adv-x="444" 
d="M321 0l-29 142h-140l-29 -142h-119l160 700h116l160 -700h-119zM222 486l-48 -240h96z" />
    <glyph glyph-name="afii10018" unicode="&#x411;" horiz-adv-x="424" 
d="M46 700h305v-104h-189v-179h57q89 0 135.5 -50.5t46.5 -149.5v-18q0 -98 -46.5 -148.5t-135.5 -50.5h-173v700zM286 203v11q0 99 -82 99h-42v-209h42q82 0 82 99z" />
    <glyph glyph-name="afii10019" unicode="&#x412;" horiz-adv-x="429" 
d="M217 0h-171v700h162q181 0 181 -195q0 -50 -19 -87t-52 -53q39 -18 62 -59t23 -101q0 -102 -48.5 -153.5t-137.5 -51.5zM208 307h-46v-203h44q41 0 61 24t20 79q0 100 -79 100zM162 411h32q41 0 60 21.5t19 69.5q0 49 -19 71.5t-60 22.5h-32v-185z" />
    <glyph glyph-name="afii10020" unicode="&#x413;" horiz-adv-x="391" 
d="M46 0v700h340v-104h-224v-596h-116z" />
    <glyph glyph-name="afii10021" unicode="&#x414;" horiz-adv-x="465" 
d="M453 104v-224h-116v120h-215v-120h-116v224h51q28 136 28 325v271h313v-596h55zM174 104h108v492h-81v-175q0 -168 -27 -317z" />
    <glyph glyph-name="afii10022" unicode="&#x415;" horiz-adv-x="399" 
d="M46 0v700h323v-104h-207v-185h178v-104h-178v-203h207v-104h-323z" />
    <glyph glyph-name="afii10024" unicode="&#x416;" horiz-adv-x="619" 
d="M251 0v262l-38 36l-91 -298h-119l123 379q-50 56 -67.5 114.5t-17.5 167.5v39h116v-41q0 -88 11 -132t50 -86l33 -36v295h116v-295l33 36q39 42 50 86t11 132v41h116v-39q0 -109 -17.5 -167.5t-67.5 -114.5l123 -379h-119l-91 298l-38 -36v-262h-116z" />
    <glyph glyph-name="afii10025" unicode="&#x417;" horiz-adv-x="408" 
d="M139 206v-23q0 -94 66 -94t66 94v25q0 55 -20 81t-65 26h-37v101h36q38 0 55 22t17 74v19q0 79 -55 79t-55 -79v-26l-114 5v31q0 81 45.5 126t123.5 45q77 0 123 -45t46 -124v-43q0 -106 -72 -134q86 -29 86 -145v-43q0 -88 -48 -139t-132 -51t-132 51t-48 139v23z" />
    <glyph glyph-name="afii10026" unicode="&#x418;" horiz-adv-x="470" 
d="M310 429l-161 -429h-103v700h114v-429l161 429h103v-700h-114v429z" />
    <glyph glyph-name="afii10027" unicode="&#x419;" horiz-adv-x="470" 
d="M310 429l-161 -429h-103v700h114v-429l161 429h103v-700h-114v429zM235 837q23 0 32.5 17t11.5 55l77 -7q-7 -138 -121 -138t-121 138l77 7q2 -38 11.5 -55t32.5 -17z" />
    <glyph glyph-name="afii10028" unicode="&#x41a;" horiz-adv-x="438" 
d="M392 700v-52q0 -96 -17.5 -153.5t-66.5 -110.5l130 -384h-121l-97 302l-58 -53v-249h-116v700h116v-302l35 33q46 45 62.5 90.5t16.5 127.5v51h116z" />
    <glyph glyph-name="afii10029" unicode="&#x41b;" horiz-adv-x="479" 
d="M79 153v547h353v-700h-116v595h-121v-446q0 -89 -34 -125t-116 -36h-39v104h31q22 0 32 13.5t10 47.5z" />
    <glyph glyph-name="afii10030" unicode="&#x41c;" horiz-adv-x="554" 
d="M240 177l-80 220v-397h-114v700h103l128 -365l128 365h103v-700h-114v397l-80 -220h-74z" />
    <glyph glyph-name="afii10031" unicode="&#x41d;" horiz-adv-x="454" 
d="M292 0v307h-130v-307h-116v700h116v-289h130v289h116v-700h-116z" />
    <glyph glyph-name="afii10032" unicode="&#x41e;" horiz-adv-x="446" 
d="M296 224v252q0 69 -17.5 100.5t-55.5 31.5t-55.5 -31.5t-17.5 -100.5v-252q0 -69 17.5 -100.5t55.5 -31.5t55.5 31.5t17.5 100.5zM412 491v-282q0 -109 -50.5 -165t-138.5 -56t-138.5 56t-50.5 165v282q0 109 50.5 165t138.5 56t138.5 -56t50.5 -165z" />
    <glyph glyph-name="afii10033" unicode="&#x41f;" horiz-adv-x="451" 
d="M289 0v596h-127v-596h-116v700h359v-700h-116z" />
    <glyph glyph-name="afii10034" unicode="&#x420;" horiz-adv-x="430" 
d="M211 256h-49v-256h-116v700h165q87 0 139.5 -56t52.5 -166t-52.5 -166t-139.5 -56zM287 478q0 117 -92 117h-33v-234h33q92 0 92 117z" />
    <glyph glyph-name="afii10035" unicode="&#x421;" horiz-adv-x="438" 
d="M223 92q38 0 55.5 31.5t17.5 100.5v12l116 -5v-22q0 -109 -50.5 -165t-138.5 -56t-138.5 56t-50.5 165v282q0 109 50.5 165t138.5 56t138.5 -56t50.5 -165v-22l-116 -5v12q0 69 -17.5 100.5t-55.5 31.5t-55.5 -31.5t-17.5 -100.5v-252q0 -69 17.5 -100.5t55.5 -31.5z" />
    <glyph glyph-name="afii10036" unicode="&#x422;" horiz-adv-x="386" 
d="M9 596v104h368v-104h-126v-596h-116v596h-126z" />
    <glyph glyph-name="afii10037" unicode="&#x423;" horiz-adv-x="403" 
d="M126 152l25 91l-143 457h118l77 -277l74 277h118l-164 -580q-19 -69 -48.5 -94.5t-79.5 -25.5h-53v104h27q19 0 30 10t19 38z" />
    <glyph glyph-name="afii10038" unicode="&#x424;" horiz-adv-x="558" 
d="M26 303v94q0 107 48.5 162t136.5 55h12v86h112v-86h12q88 0 136.5 -55t48.5 -162v-94q0 -107 -48.5 -162t-136.5 -55h-12v-86h-112v86h-12q-88 0 -136.5 55t-48.5 162zM135 379v-58q0 -69 19 -100t58 -31h11v320h-11q-39 0 -58 -31t-19 -100zM423 321v58q0 69 -19 100
t-58 31h-11v-320h11q39 0 58 31t19 100z" />
    <glyph glyph-name="afii10039" unicode="&#x425;" horiz-adv-x="444" 
d="M313 0l-91 251l-91 -251h-120l135 362l-125 338h120l81 -228l81 228h120l-125 -338l135 -362h-120z" />
    <glyph glyph-name="afii10040" unicode="&#x426;" horiz-adv-x="474" 
d="M460 104v-224h-116v120h-298v700h116v-596h128v596h116v-596h54z" />
    <glyph glyph-name="afii10041" unicode="&#x427;" horiz-adv-x="435" 
d="M149 700v-273q0 -47 14 -66t45 -19q37 0 65 23v335h116v-700h-116v270q-42 -32 -102 -32q-66 0 -102 44.5t-36 128.5v289h116z" />
    <glyph glyph-name="afii10042" unicode="&#x428;" horiz-adv-x="690" 
d="M528 104v596h116v-700h-598v700h116v-596h125v596h116v-596h125z" />
    <glyph glyph-name="afii10043" unicode="&#x429;" horiz-adv-x="712" 
d="M644 104h54v-224h-116v120h-535v700h115v-596h125v596h116v-596h125v596h116v-596z" />
    <glyph glyph-name="afii10044" unicode="&#x42a;" horiz-adv-x="507" 
d="M8 596v104h237v-283h57q89 0 135.5 -50.5t46.5 -149.5v-18q0 -98 -46.5 -148.5t-135.5 -50.5h-173v596h-121zM369 203v11q0 99 -82 99h-42v-209h42q82 0 82 99z" />
    <glyph glyph-name="afii10045" unicode="&#x42b;" horiz-adv-x="617" 
d="M46 700h116v-283h57q89 0 135.5 -50.5t46.5 -149.5v-18q0 -98 -46.5 -148.5t-135.5 -50.5h-173v700zM286 203v11q0 99 -82 99h-42v-209h42q82 0 82 99zM571 700v-700h-116v700h116z" />
    <glyph glyph-name="afii10046" unicode="&#x42c;" horiz-adv-x="424" 
d="M46 700h116v-283h57q89 0 135.5 -50.5t46.5 -149.5v-18q0 -98 -46.5 -148.5t-135.5 -50.5h-173v700zM286 203v11q0 99 -82 99h-42v-209h42q82 0 82 99z" />
    <glyph glyph-name="afii10047" unicode="&#x42d;" horiz-adv-x="438" 
d="M177 402h111v74q0 69 -17.5 100.5t-55.5 31.5t-55.5 -31.5t-17.5 -100.5v-12l-116 5v22q0 109 50.5 165t138.5 56t138.5 -56t50.5 -165v-282q0 -109 -50.5 -165t-138.5 -56t-138.5 56t-50.5 165v22l116 5v-12q0 -69 17.5 -100.5t55.5 -31.5t55.5 31.5t17.5 100.5v74h-111
v104z" />
    <glyph glyph-name="afii10048" unicode="&#x42e;" horiz-adv-x="622" 
d="M588 491v-282q0 -109 -50.5 -165t-138.5 -56t-138.5 56t-50.5 165v90h-48v-299h-115v700h115v-297h48v88q0 109 50.5 165t138.5 56t138.5 -56t50.5 -165zM472 224v252q0 69 -17.5 100.5t-55.5 31.5t-55.5 -31.5t-17.5 -100.5v-252q0 -69 17.5 -100.5t55.5 -31.5
t55.5 31.5t17.5 100.5z" />
    <glyph glyph-name="afii10049" unicode="&#x42f;" horiz-adv-x="436" 
d="M274 0v268h-54l-87 -268h-121l104 296q-83 52 -83 188q0 110 52 163t140 53h165v-700h-116zM149 484q0 -111 92 -111h33v222h-33q-92 0 -92 -111z" />
    <glyph glyph-name="afii10065" unicode="&#x430;" horiz-adv-x="379" 
d="M178 83q39 0 58 46v79h-51q-55 0 -55 -63v-9q0 -53 48 -53zM43 356v5q0 70 38.5 110.5t110.5 40.5t110.5 -40.5t38.5 -110.5v-361h-105v40q-23 -52 -89 -52q-53 0 -87.5 37t-34.5 106v13q0 72 42 113t117 41h52v55q0 64 -44 64t-44 -64v-3z" />
    <glyph glyph-name="afii10066" unicode="&#x431;" horiz-adv-x="389" 
d="M249 178v148q0 87 -53 87q-37 0 -53 -39v-196q0 -50 13 -72t40 -22t40 22t13 72zM357 338v-178q0 -80 -44 -126t-117 -46t-117 46t-44 126v318q0 89 32 135.5t116 68.5l118 31l21 -94l-114 -29q-65 -17 -65 -85v-41q24 45 82 45q60 0 96 -43t36 -128z" />
    <glyph glyph-name="afii10067" unicode="&#x432;" horiz-adv-x="368" 
d="M205 0h-165v500h156q66 0 101.5 -37t35.5 -97v-13q0 -63 -47 -92q57 -26 57 -101v-22q0 -63 -36 -100.5t-102 -37.5zM229 349v10q0 47 -44 47h-41v-104h41q44 0 44 47zM144 212v-119h46q49 0 49 54v12q0 53 -49 53h-46z" />
    <glyph glyph-name="afii10068" unicode="&#x433;" horiz-adv-x="309" 
d="M146 405v-405h-106v500h258v-95h-152z" />
    <glyph glyph-name="afii10069" unicode="&#x434;" horiz-adv-x="381" 
d="M374 95v-205h-106v110h-157v-110h-106v205h44q19 109 19 240v165h258v-405h48zM153 95h71v309h-54v-72q0 -144 -17 -237z" />
    <glyph glyph-name="afii10070" unicode="&#x435;" horiz-adv-x="380" 
d="M242 146l106 -7q-7 -72 -49 -111.5t-109 -39.5q-74 0 -117 47.5t-43 132.5v164q0 85 43 132.5t117 47.5t117 -47.5t43 -132.5v-123h-214v-36q0 -90 54 -90q46 0 52 63zM136 327v-28h108v28q0 90 -54 90t-54 -90z" />
    <glyph glyph-name="afii10072" unicode="&#x436;" horiz-adv-x="512" 
d="M308 0h-104v156l-38 34l-58 -190h-107l88 263q-30 35 -40.5 80.5t-10.5 125.5v31h104v-31q0 -78 9.5 -110.5t36.5 -59.5l16 -16v217h104v-217l16 16q27 27 36.5 59.5t9.5 110.5v31h104v-31q0 -80 -10.5 -125.5t-40.5 -80.5l88 -263h-107l-58 190l-38 -34v-156z" />
    <glyph glyph-name="afii10073" unicode="&#x437;" horiz-adv-x="352" 
d="M175 80q23 0 36 14.5t13 41.5v26q0 50 -55 50h-47v91h45q45 0 45 51v19q0 21 -10 34t-28 13t-28 -13t-10 -34v-17l-104 5v23q0 56 40 92t102 36t102 -36t40 -92v-36q0 -67 -49 -88q61 -21 61 -94v-40q0 -60 -40.5 -99t-112.5 -39t-112.5 39t-40.5 99v27l104 5v-22
q0 -27 13 -41.5t36 -14.5z" />
    <glyph glyph-name="afii10074" unicode="&#x438;" horiz-adv-x="389" 
d="M142 214l114 286h93v-500h-102v286l-114 -286h-93v500h102v-286z" />
    <glyph glyph-name="afii10075" unicode="&#x439;" horiz-adv-x="389" 
d="M142 214l114 286h93v-500h-102v286l-114 -286h-93v500h102v-286zM194 640q23 0 32.5 17t11.5 55l77 -7q-7 -138 -121 -138t-121 138l77 7q2 -38 11.5 -55t32.5 -17z" />
    <glyph glyph-name="afii10076" unicode="&#x43a;" horiz-adv-x="373" 
d="M340 500v-21q0 -78 -14.5 -121.5t-53.5 -80.5l100 -277h-111l-68 204l-48 -44v-160h-105v500h105v-205l30 28q37 34 48.5 64.5t11.5 87.5v25h105z" />
    <glyph glyph-name="afii10077" unicode="&#x43b;" horiz-adv-x="415" 
d="M172 404v-254q0 -90 -32.5 -126t-107.5 -36h-29v95h19q27 0 35.5 14t8.5 54v349h309v-500h-106v404h-97z" />
    <glyph glyph-name="afii10078" unicode="&#x43c;" horiz-adv-x="452" 
d="M246 119h-40l-65 169v-288h-101v500h91l95 -249l95 249h91v-500h-101v288z" />
    <glyph glyph-name="afii10079" unicode="&#x43d;" horiz-adv-x="384" 
d="M344 500v-500h-106v208h-92v-208h-106v500h106v-196h92v196h106z" />
    <glyph glyph-name="afii10080" unicode="&#x43e;" horiz-adv-x="380" 
d="M136 327v-154q0 -90 54 -90t54 90v154q0 90 -54 90t-54 -90zM350 332v-164q0 -85 -43 -132.5t-117 -47.5t-117 47.5t-43 132.5v164q0 85 43 132.5t117 47.5t117 -47.5t43 -132.5z" />
    <glyph glyph-name="afii10081" unicode="&#x43f;" horiz-adv-x="388" 
d="M348 500v-500h-106v404h-96v-404h-106v500h308z" />
    <glyph glyph-name="afii10082" unicode="&#x440;" horiz-adv-x="391" 
d="M146 376v-251q14 -41 54 -41q55 0 55 86v161q0 86 -55 86q-40 0 -54 -41zM361 340v-179q0 -87 -36 -129.5t-93 -42.5q-64 0 -86 48v-255h-106v718h106v-36q22 48 86 48q57 0 93 -42.5t36 -129.5z" />
    <glyph glyph-name="afii10083" unicode="&#x441;" horiz-adv-x="375" 
d="M190 83q54 0 54 90v3l106 -5v-3q0 -85 -43 -132.5t-117 -47.5t-117 47.5t-43 132.5v164q0 85 43 132.5t117 47.5t117 -47.5t43 -132.5v-3l-106 -5v3q0 90 -54 90t-54 -90v-154q0 -90 54 -90z" />
    <glyph glyph-name="afii10084" unicode="&#x442;" horiz-adv-x="334" 
d="M9 405v95h316v-95h-105v-405h-106v405h-105z" />
    <glyph glyph-name="afii10085" unicode="&#x443;" horiz-adv-x="367" 
d="M113 500l67 -293l74 293h108l-138 -543q-26 -104 -53.5 -136t-90.5 -32h-42v95h30q17 0 26.5 10t16.5 38l20 82l-126 486h108z" />
    <glyph glyph-name="afii10086" unicode="&#x444;" horiz-adv-x="596" 
d="M30 161v179q0 87 36 129.5t93 42.5q64 0 86 -48v248h106v-248q22 48 86 48q57 0 93 -42.5t36 -129.5v-179q0 -87 -36 -129.5t-93 -42.5q-64 0 -86 48v-255h-106v255q-22 -48 -86 -48q-57 0 -93 42.5t-36 129.5zM245 125v251q-14 41 -54 41q-55 0 -55 -86v-161
q0 -86 55 -86q40 0 54 41zM351 376v-251q14 -41 54 -41q55 0 55 86v161q0 86 -55 86q-40 0 -54 -41z" />
    <glyph glyph-name="afii10087" unicode="&#x445;" horiz-adv-x="354" 
d="M124 500l53 -152l53 152h112l-97 -244l103 -256h-113l-58 164l-58 -164h-113l103 256l-97 244h112z" />
    <glyph glyph-name="afii10088" unicode="&#x446;" horiz-adv-x="402" 
d="M347 500v-405h47v-205h-106v110h-248v500h106v-405h95v405h106z" />
    <glyph glyph-name="afii10089" unicode="&#x447;" horiz-adv-x="370" 
d="M138 500v-183q0 -77 43 -77q28 0 43 15v245h106v-500h-106v166q-27 -21 -68 -21q-60 0 -92 42t-32 121v192h106z" />
    <glyph glyph-name="afii10090" unicode="&#x448;" horiz-adv-x="578" 
d="M538 500v-500h-498v500h106v-404h90v404h106v-404h90v404h106z" />
    <glyph glyph-name="afii10091" unicode="&#x449;" horiz-adv-x="593" 
d="M538 500v-405h47v-205h-106v110h-439v500h106v-405h90v405h106v-405h90v405h106z" />
    <glyph glyph-name="afii10092" unicode="&#x44a;" horiz-adv-x="420" 
d="M9 404v96h207v-174h47q64 0 103 -40.5t39 -114.5v-16q0 -74 -39 -114.5t-103 -40.5h-153v404h-101zM245 231h-29v-136h29q54 0 54 62v12q0 62 -54 62z" />
    <glyph glyph-name="afii10093" unicode="&#x44b;" horiz-adv-x="514" 
d="M368 0v500h106v-500h-106zM146 231h29q54 0 54 -62v-12q0 -62 -54 -62h-29v136zM146 326v174h-106v-500h153q64 0 103 40.5t39 114.5v16q0 74 -39 114.5t-103 40.5h-47z" />
    <glyph glyph-name="afii10094" unicode="&#x44c;" horiz-adv-x="350" 
d="M175 231h-29v-136h29q54 0 54 62v12q0 62 -54 62zM146 500v-174h47q64 0 103 -40.5t39 -114.5v-16q0 -74 -39 -114.5t-103 -40.5h-153v500h106z" />
    <glyph glyph-name="afii10095" unicode="&#x44d;" horiz-adv-x="375" 
d="M161 296h78v31q0 90 -54 90t-54 -90v-3l-106 5v3q0 85 43 132.5t117 47.5t117 -47.5t43 -132.5v-164q0 -85 -43 -132.5t-117 -47.5t-117 47.5t-43 132.5v3l106 5v-3q0 -90 54 -90t54 90v29h-78v94z" />
    <glyph glyph-name="afii10096" unicode="&#x44e;" horiz-adv-x="533" 
d="M501 332v-164q0 -85 -43 -132.5t-117 -47.5t-117 47.5t-43 132.5v33h-35v-201h-106v500h106v-203h35v35q0 85 43 132.5t117 47.5t117 -47.5t43 -132.5zM287 327v-154q0 -90 54 -90t54 90v154q0 90 -54 90t-54 -90z" />
    <glyph glyph-name="afii10097" unicode="&#x44f;" horiz-adv-x="361" 
d="M25 340q0 75 41 117.5t107 42.5h148v-500h-106v181h-29l-70 -181h-105l81 202q-67 42 -67 138zM131 340q0 -65 51 -65h33v131h-33q-51 0 -51 -66z" />
    <glyph glyph-name="uni0450" unicode="&#x450;" horiz-adv-x="380" 
d="M242 146l106 -7q-7 -72 -49 -111.5t-109 -39.5q-74 0 -117 47.5t-43 132.5v164q0 85 43 132.5t117 47.5t117 -47.5t43 -132.5v-123h-214v-36q0 -90 54 -90q46 0 52 63zM136 327v-28h108v28q0 90 -54 90t-54 -90zM172 564l-83 161h101l58 -161h-76z" />
    <glyph glyph-name="afii10071" unicode="&#x451;" horiz-adv-x="380" 
d="M242 146l106 -7q-7 -72 -49 -111.5t-109 -39.5q-74 0 -117 47.5t-43 132.5v164q0 85 43 132.5t117 47.5t117 -47.5t43 -132.5v-123h-214v-36q0 -90 54 -90q46 0 52 63zM136 327v-28h108v28q0 90 -54 90t-54 -90zM162 694v-101h-94v101h94zM312 694v-101h-94v101h94z" />
    <glyph glyph-name="afii10099" unicode="&#x452;" horiz-adv-x="399" 
d="M361 343v-397q0 -87 -29.5 -122.5t-100.5 -35.5h-50v95h31q25 0 34 13.5t9 51.5v389q0 80 -51 80q-46 0 -58 -51v-366h-106v575h-42v78h42v59h106v-59h90v-78h-90v-117q26 54 90 54q60 0 92.5 -44t32.5 -125z" />
    <glyph glyph-name="afii10100" unicode="&#x453;" horiz-adv-x="309" 
d="M146 405v-405h-106v500h258v-95h-152zM261 725l-83 -161h-76l58 161h101z" />
    <glyph glyph-name="afii10101" unicode="&#x454;" horiz-adv-x="375" 
d="M136 296h78v-94h-78v-29q0 -90 54 -90t54 90v3l106 -5v-3q0 -85 -43 -132.5t-117 -47.5t-117 47.5t-43 132.5v164q0 85 43 132.5t117 47.5t117 -47.5t43 -132.5v-3l-106 -5v3q0 90 -54 90t-54 -90v-31z" />
    <glyph glyph-name="afii10102" unicode="&#x455;" horiz-adv-x="351" 
d="M138 146v-15q0 -48 40 -48t40 48v10q0 28 -10 40.5t-40 22.5l-27 9q-62 21 -86.5 54.5t-24.5 100.5v9q0 60 36 97.5t104 37.5q69 0 105.5 -37.5t36.5 -97.5v-17l-106 -4v18q0 43 -35 43t-35 -43v-6q0 -29 9.5 -41t39.5 -23l38 -14q56 -20 78.5 -51.5t22.5 -94.5v-15
q0 -65 -38.5 -103t-107.5 -38t-107.5 38t-38.5 103v13z" />
    <glyph glyph-name="afii10103" unicode="&#x456;" horiz-adv-x="198" 
d="M46 0v500h106v-500h-106zM46 590v122h106v-122h-106z" />
    <glyph glyph-name="afii10104" unicode="&#x457;" horiz-adv-x="198" 
d="M46 0v500h106v-500h-106zM71 694v-101h-94v101h94zM221 694v-101h-94v101h94z" />
    <glyph glyph-name="afii10105" unicode="&#x458;" horiz-adv-x="198" 
d="M46 590v122h106v-122h-106zM152 500v-549q0 -90 -32.5 -126.5t-106.5 -36.5h-34v96h23q27 0 35.5 14t8.5 54v548h106z" />
    <glyph glyph-name="afii10106" unicode="&#x459;" horiz-adv-x="578" 
d="M172 404v-218q0 -114 -29.5 -156t-110.5 -42h-29v95h19q27 0 35.5 14t8.5 54v349h308v-174h47q64 0 103 -40.5t39 -114.5v-16q0 -74 -39 -114.5t-103 -40.5h-153v404h-96zM403 231h-29v-136h29q54 0 54 62v12q0 62 -54 62z" />
    <glyph glyph-name="afii10107" unicode="&#x45a;" horiz-adv-x="548" 
d="M344 500v-174h47q64 0 103 -40.5t39 -114.5v-16q0 -74 -39 -114.5t-103 -40.5h-153v208h-92v-208h-106v500h106v-197h92v197h106zM373 231h-29v-136h29q54 0 54 62v12q0 62 -54 62z" />
    <glyph glyph-name="afii10108" unicode="&#x45b;" horiz-adv-x="399" 
d="M-2 653h42v59h106v-59h90v-78h-90v-117q26 54 90 54q60 0 92.5 -44t32.5 -125v-343h-106v337q0 80 -51 80q-46 0 -58 -51v-366h-106v575h-42v78z" />
    <glyph glyph-name="afii10109" unicode="&#x45c;" horiz-adv-x="373" 
d="M340 500v-21q0 -78 -14.5 -121.5t-53.5 -80.5l100 -277h-111l-68 204l-48 -44v-160h-105v500h105v-205l30 28q37 34 48.5 64.5t11.5 87.5v25h105zM279 725l-83 -161h-76l58 161h101z" />
    <glyph glyph-name="uni045D" unicode="&#x45d;" horiz-adv-x="389" 
d="M256 500l-114 -286v286h-102v-500h93l114 286v-286h102v500h-93zM178 564l-83 161h101l58 -161h-76z" />
    <glyph glyph-name="afii10110" unicode="&#x45e;" horiz-adv-x="367" 
d="M113 500l67 -293l74 293h108l-138 -543q-26 -104 -53.5 -136t-90.5 -32h-42v95h30q17 0 26.5 10t16.5 38l20 82l-126 486h108zM183 640q23 0 32.5 17t11.5 55l77 -7q-7 -138 -121 -138t-121 138l77 7q2 -38 11.5 -55t32.5 -17z" />
    <glyph glyph-name="afii10193" unicode="&#x45f;" horiz-adv-x="388" 
d="M348 500v-500h-102v-110h-106v110h-100v500h106v-405h96v405h106z" />
    <glyph glyph-name="afii10050" unicode="&#x490;" horiz-adv-x="391" 
d="M386 840v-244h-224v-596h-116v700h224v140h116z" />
    <glyph glyph-name="afii10098" unicode="&#x491;" horiz-adv-x="310" 
d="M193 500v108h106v-203h-152v-405h-106v500h152z" />
    <glyph glyph-name="Wgrave" unicode="&#x1e80;" horiz-adv-x="670" 
d="M391 700l77 -458l76 458h118l-136 -700h-111l-80 474l-80 -474h-111l-136 700h118l76 -458l78 458h111zM309 763l-83 161h101l58 -161h-76z" />
    <glyph glyph-name="wgrave" unicode="&#x1e81;" horiz-adv-x="576" 
d="M336 500h-96l-65 -310l-60 310h-109l114 -500h100l68 326l68 -326h100l114 500h-109l-60 -310zM263 564l-83 161h101l58 -161h-76z" />
    <glyph glyph-name="Wacute" unicode="&#x1e82;" horiz-adv-x="670" 
d="M391 700l77 -458l76 458h118l-136 -700h-111l-80 474l-80 -474h-111l-136 700h118l76 -458l78 458h111zM445 924l-83 -161h-76l58 161h101z" />
    <glyph glyph-name="wacute" unicode="&#x1e83;" horiz-adv-x="576" 
d="M240 500h96l65 -310l60 310h109l-114 -500h-100l-68 326l-68 -326h-100l-114 500h109l60 -310zM395 725l-83 -161h-76l58 161h101z" />
    <glyph glyph-name="Wdieresis" unicode="&#x1e84;" horiz-adv-x="670" 
d="M391 700l77 -458l76 458h118l-136 -700h-111l-80 474l-80 -474h-111l-136 700h118l76 -458l78 458h111zM307 893v-101h-94v101h94zM457 893v-101h-94v101h94z" />
    <glyph glyph-name="wdieresis" unicode="&#x1e85;" horiz-adv-x="576" 
d="M336 500h-96l-65 -310l-60 310h-109l114 -500h100l68 326l68 -326h100l114 500h-109l-60 -310zM260 694v-101h-94v101h94zM410 694v-101h-94v101h94z" />
    <glyph glyph-name="Ygrave" unicode="&#x1ef2;" horiz-adv-x="426" 
d="M155 0v317l-147 383h119l86 -248l86 248h119l-147 -383v-317h-116zM187 763l-83 161h101l58 -161h-76z" />
    <glyph glyph-name="ygrave" unicode="&#x1ef3;" horiz-adv-x="367" 
d="M113 500l67 -293l74 293h108l-138 -543q-26 -104 -53.5 -136t-90.5 -32h-42v95h30q17 0 26.5 10t16.5 38l20 82l-126 486h108zM165 564l-83 161h101l58 -161h-76z" />
    <glyph glyph-name="thinspace" unicode="&#x2009;" horiz-adv-x="140" 
 />
    <glyph glyph-name="uni2010" unicode="&#x2010;" horiz-adv-x="302" 
d="M33 278v94h236v-94h-236z" />
    <glyph glyph-name="figuredash" unicode="&#x2012;" horiz-adv-x="430" 
d="M394 278h-358v96h358v-96z" />
    <glyph glyph-name="endash" unicode="&#x2013;" horiz-adv-x="358" 
d="M358 278h-358v96h358v-96z" />
    <glyph glyph-name="emdash" unicode="&#x2014;" horiz-adv-x="717" 
d="M717 279h-717v95h717v-95z" />
    <glyph glyph-name="afii00208" unicode="&#x2015;" horiz-adv-x="717" 
d="M645 279h-573v95h573v-95z" />
    <glyph glyph-name="uni2016" unicode="&#x2016;" horiz-adv-x="387" 
d="M78 -130v879h87v-879h-87zM222 -130v879h87v-879h-87z" />
    <glyph glyph-name="underscoredbl" unicode="&#x2017;" horiz-adv-x="481" 
d="M38 -214v74h405v-74h-405zM38 -101v74h405v-74h-405z" />
    <glyph glyph-name="quoteleft" unicode="&#x2018;" horiz-adv-x="194" 
d="M100 652h53v-122h-112v130q0 57 26.5 85t85.5 32v-51q-29 -5 -41 -19t-12 -45v-10z" />
    <glyph glyph-name="quoteright" unicode="&#x2019;" horiz-adv-x="194" 
d="M94 655h-53v122h112v-130q0 -57 -26.5 -85t-85.5 -32v51q29 5 41 19t12 45v10z" />
    <glyph glyph-name="quotesinglbase" unicode="&#x201a;" horiz-adv-x="194" 
d="M94 0h-53v122h112v-130q0 -57 -26.5 -85t-85.5 -32v51q29 5 41 19t12 45v10z" />
    <glyph glyph-name="quotereversed" unicode="&#x201b;" horiz-adv-x="194" 
d="M153 655h-53v-10q0 -31 12 -45t41 -19v-51q-59 4 -85.5 32t-26.5 85v130h112v-122z" />
    <glyph glyph-name="quotedblleft" unicode="&#x201c;" horiz-adv-x="348" 
d="M254 652h53v-122h-112v130q0 57 26.5 85t85.5 32v-51q-29 -5 -41 -19t-12 -45v-10zM100 652h53v-122h-112v130q0 57 26.5 85t85.5 32v-51q-29 -5 -41 -19t-12 -45v-10z" />
    <glyph glyph-name="quotedblright" unicode="&#x201d;" horiz-adv-x="348" 
d="M248 655h-53v122h112v-130q0 -57 -26.5 -85t-85.5 -32v51q29 5 41 19t12 45v10zM94 655h-53v122h112v-130q0 -57 -26.5 -85t-85.5 -32v51q29 5 41 19t12 45v10z" />
    <glyph glyph-name="quotedblbase" unicode="&#x201e;" horiz-adv-x="348" 
d="M248 0h-53v122h112v-130q0 -57 -26.5 -85t-85.5 -32v51q29 5 41 19t12 45v10zM94 0h-53v122h112v-130q0 -57 -26.5 -85t-85.5 -32v51q29 5 41 19t12 45v10z" />
    <glyph glyph-name="uni201F" unicode="&#x201f;" horiz-adv-x="348" 
d="M307 655h-53v-10q0 -31 12 -45t41 -19v-51q-59 4 -85.5 32t-26.5 85v130h112v-122zM153 655h-53v-10q0 -31 12 -45t41 -19v-51q-59 4 -85.5 32t-26.5 85v130h112v-122z" />
    <glyph glyph-name="dagger" unicode="&#x2020;" horiz-adv-x="409" 
d="M364 580v-92h-108v-619h-103v619h-108v92h108v168h103v-168h108z" />
    <glyph glyph-name="daggerdbl" unicode="&#x2021;" horiz-adv-x="409" 
d="M45 37v91h108v360h-108v92h108v168h103v-168h108v-92h-108v-360h108v-91h-108v-168h-103v168h-108z" />
    <glyph glyph-name="bullet" unicode="&#x2022;" horiz-adv-x="286" 
d="M33 326q0 46 32 78.5t78 32.5t78 -32.5t32 -78.5t-32 -78.5t-78 -32.5t-78 32.5t-32 78.5z" />
    <glyph glyph-name="onedotenleader" unicode="&#x2024;" horiz-adv-x="194" 
d="M153 122v-122h-112v122h112z" />
    <glyph glyph-name="twodotenleader" unicode="&#x2025;" horiz-adv-x="388" 
d="M153 122v-122h-112v122h112zM347 122v-122h-112v122h112z" />
    <glyph glyph-name="ellipsis" unicode="&#x2026;" horiz-adv-x="582" 
d="M153 122v-122h-112v122h112zM541 122v-122h-112v122h112zM347 122v-122h-112v122h112z" />
    <glyph glyph-name="perthousand" unicode="&#x2030;" horiz-adv-x="864" 
d="M145 335q-52 0 -79.5 34t-27.5 89v131q0 55 27.5 89t79.5 34t79.5 -34t27.5 -89v-131q0 -55 -27.5 -89t-79.5 -34zM145 632q-22 0 -22 -33v-151q0 -33 22 -33t22 33v151q0 33 -22 33zM452 700l-208 -700h-80l208 700h80zM471 -12q-52 0 -79.5 34t-27.5 89v131
q0 55 27.5 89t79.5 34t79.5 -34t27.5 -89v-131q0 -55 -27.5 -89t-79.5 -34zM471 285q-22 0 -22 -33v-151q0 -33 22 -33t22 33v151q0 33 -22 33zM719 -12q-52 0 -79.5 34t-27.5 89v131q0 55 27.5 89t79.5 34t79.5 -34t27.5 -89v-131q0 -55 -27.5 -89t-79.5 -34zM719 285
q-22 0 -22 -33v-151q0 -33 22 -33t22 33v151q0 33 -22 33z" />
    <glyph glyph-name="minute" unicode="&#x2032;" horiz-adv-x="180" 
d="M23 471l35 229h100l-57 -229h-78z" />
    <glyph glyph-name="second" unicode="&#x2033;" horiz-adv-x="323" 
d="M23 471l35 229h100l-57 -229h-78zM165 471l35 229h100l-57 -229h-78z" />
    <glyph glyph-name="guilsinglleft" unicode="&#x2039;" horiz-adv-x="209" 
d="M25 341l158 129v-95l-81 -63l81 -63v-95l-158 129v58z" />
    <glyph glyph-name="guilsinglright" unicode="&#x203a;" horiz-adv-x="209" 
d="M25 470l158 -129v-58l-158 -129v95l81 63l-81 63v95z" />
    <glyph glyph-name="exclamdbl" unicode="&#x203c;" horiz-adv-x="392" 
d="M241 218l-15 378v104h112v-104l-15 -378h-82zM336 118v-118h-108v118h108zM69 218l-15 378v104h112v-104l-15 -378h-82zM164 118v-118h-108v118h108z" />
    <glyph glyph-name="uni203E" unicode="&#x203e;" 
d="M28 610v76h222v-76h-222z" />
    <glyph glyph-name="fraction" unicode="&#x2044;" horiz-adv-x="133" 
d="M223 700l-230 -700h-83l230 700h83z" />
    <glyph glyph-name="zerosuperior" unicode="&#x2070;" 
d="M139 626q-29 0 -29 -54v-207q0 -54 29 -54t29 54v207q0 54 -29 54zM139 229q-55 0 -87 34.5t-32 97.5v215q0 63 32 97.5t87 34.5t87 -34.5t32 -97.5v-215q0 -63 -32 -97.5t-87 -34.5z" />
    <glyph glyph-name="uni2071" unicode="&#x2071;" 
d="M94 237v325h90v-325h-90zM94 607v93h90v-93h-90z" />
    <glyph glyph-name="foursuperior" unicode="&#x2074;" 
d="M103 404h55v128zM277 404v-81h-34v-86h-85v86h-132v72l132 305h85v-296h34z" />
    <glyph glyph-name="fivesuperior" unicode="&#x2075;" 
d="M163 311q16 0 21.5 13.5t5.5 46.5v40q0 34 -5 46t-17 12q-16 0 -19 -25h-88v256h202v-82h-112v-84q17 15 41 15q43 0 65.5 -32.5t22.5 -114.5v-32q0 -70 -27.5 -105.5t-89.5 -35.5q-61 0 -89 35.5t-28 105.5v14l90 3v-23q0 -53 27 -53z" />
    <glyph glyph-name="sixsuperior" unicode="&#x2076;" 
d="M188 371v14q0 62 -30 62t-30 -58v-18q0 -63 30 -63t30 63zM276 388v-20q0 -66 -31 -102.5t-87 -36.5t-87 36.5t-31 102.5v20q0 54 18 107l71 205h95l-58 -175q52 0 81 -35.5t29 -101.5z" />
    <glyph glyph-name="sevensuperior" unicode="&#x2077;" 
d="M44 623v77h233v-67l-110 -396h-93l108 386h-138z" />
    <glyph glyph-name="eightsuperior" unicode="&#x2078;" 
d="M158 633q-25 0 -25 -45v-18q0 -45 25 -45t25 45v18q0 45 -25 45zM158 451q-32 0 -32 -62v-22q0 -62 32 -62t32 62v22q0 62 -32 62zM158 230q-120 0 -120 140v17q0 78 45 104q-34 24 -34 82v15q0 57 28 88.5t81 31.5t81 -31.5t28 -88.5v-15q0 -58 -34 -82q45 -26 45 -104
v-17q0 -140 -120 -140z" />
    <glyph glyph-name="ninesuperior" unicode="&#x2079;" 
d="M128 566v-14q0 -62 30 -62t30 58v18q0 63 -30 63t-30 -63zM40 549v20q0 66 31 102.5t87 36.5t87 -36.5t31 -102.5v-20q0 -55 -18 -107l-71 -205h-95l58 175q-52 0 -81 35.5t-29 101.5z" />
    <glyph glyph-name="uni207A" unicode="&#x207a;" 
d="M97 345v86h-78v72h78v86h84v-86h78v-72h-78v-86h-84z" />
    <glyph glyph-name="uni207B" unicode="&#x207b;" 
d="M259 431h-240v72h240v-72z" />
    <glyph glyph-name="uni207C" unicode="&#x207c;" 
d="M259 494h-240v72h240v-72zM259 370h-240v72h240v-72z" />
    <glyph glyph-name="uni207D" unicode="&#x207d;" 
d="M79 351v235q0 136 121 179l24 -78q-55 -25 -55 -104v-229q0 -79 55 -104l-24 -78q-121 43 -121 179z" />
    <glyph glyph-name="uni207E" unicode="&#x207e;" 
d="M199 586v-235q0 -136 -121 -179l-24 78q55 25 55 104v229q0 79 -55 104l24 78q121 -43 121 -179z" />
    <glyph glyph-name="uni207F" unicode="&#x207f;" 
d="M111 497v-260h-84v351h84v-27q21 36 61 36q43 0 60.5 -31t17.5 -100v-229h-84v249q0 34 -25 34q-21 0 -30 -23z" />
    <glyph glyph-name="zeroinferior" unicode="&#x2080;" 
d="M139 263q-29 0 -29 -54v-207q0 -54 29 -54t29 54v207q0 54 -29 54zM139 -134q-55 0 -87 34.5t-32 97.5v215q0 63 32 97.5t87 34.5t87 -34.5t32 -97.5v-215q0 -63 -32 -97.5t-87 -34.5z" />
    <glyph glyph-name="oneinferior" unicode="&#x2081;" 
d="M254 -126h-208v81h60v289l-60 -26v83l76 36h73v-382h59v-81z" />
    <glyph glyph-name="twoinferior" unicode="&#x2082;" 
d="M46 195v17q0 65 30 99t86 34t86 -34t30 -99v-11q0 -61 -31 -109l-88 -137h119v-81h-230v69l122 193q18 28 18 65v13q0 45 -26 45t-26 -45v-22z" />
    <glyph glyph-name="threeinferior" unicode="&#x2083;" 
d="M187 -1v35q0 33 -6.5 45.5t-21.5 12.5q-11 0 -24 -10l-46 46l78 126h-112v83h210v-77l-65 -101q77 -5 77 -118v-36q0 -139 -116 -139q-117 0 -117 139v18l90 3v-27q0 -52 27 -52q15 0 20.5 12t5.5 40z" />
    <glyph glyph-name="fourinferior" unicode="&#x2084;" 
d="M103 41h55v128zM277 41v-81h-34v-86h-85v86h-132v72l132 305h85v-296h34z" />
    <glyph glyph-name="fiveinferior" unicode="&#x2085;" 
d="M163 -52q16 0 21.5 13.5t5.5 46.5v40q0 34 -5 46t-17 12q-16 0 -19 -25h-88v256h202v-82h-112v-84q17 15 41 15q43 0 65.5 -32.5t22.5 -114.5v-32q0 -70 -27.5 -105.5t-89.5 -35.5q-61 0 -89 35.5t-28 105.5v14l90 3v-23q0 -53 27 -53z" />
    <glyph glyph-name="sixinferior" unicode="&#x2086;" 
d="M188 8v14q0 62 -30 62t-30 -58v-18q0 -63 30 -63t30 63zM276 25v-20q0 -66 -31 -102.5t-87 -36.5t-87 36.5t-31 102.5v20q0 55 18 107l71 205h95l-58 -175q52 0 81 -35.5t29 -101.5z" />
    <glyph glyph-name="seveninferior" unicode="&#x2087;" 
d="M44 260v77h233v-67l-110 -396h-93l108 386h-138z" />
    <glyph glyph-name="eightinferior" unicode="&#x2088;" 
d="M158 270q-25 0 -25 -45v-18q0 -45 25 -45t25 45v18q0 45 -25 45zM158 88q-32 0 -32 -62v-22q0 -62 32 -62t32 62v22q0 62 -32 62zM158 -133q-120 0 -120 140v17q0 78 45 104q-34 24 -34 82v15q0 57 28 88.5t81 31.5t81 -31.5t28 -88.5v-15q0 -58 -34 -82q45 -26 45 -104
v-17q0 -140 -120 -140z" />
    <glyph glyph-name="nineinferior" unicode="&#x2089;" 
d="M128 203v-14q0 -62 30 -62t30 58v18q0 63 -30 63t-30 -63zM40 186v20q0 66 31 102.5t87 36.5t87 -36.5t31 -102.5v-20q0 -54 -18 -107l-71 -205h-95l58 175q-52 0 -81 35.5t-29 101.5z" />
    <glyph glyph-name="uni208A" unicode="&#x208a;" 
d="M97 -18v86h-78v72h78v86h84v-86h78v-72h-78v-86h-84z" />
    <glyph glyph-name="uni208B" unicode="&#x208b;" 
d="M259 68h-240v72h240v-72z" />
    <glyph glyph-name="uni208C" unicode="&#x208c;" 
d="M259 131h-240v72h240v-72zM259 7h-240v72h240v-72z" />
    <glyph glyph-name="uni208D" unicode="&#x208d;" 
d="M79 -12v235q0 136 121 179l24 -78q-55 -25 -55 -104v-229q0 -79 55 -104l-24 -78q-121 43 -121 179z" />
    <glyph glyph-name="uni208E" unicode="&#x208e;" 
d="M199 223v-235q0 -136 -121 -179l-24 78q55 25 55 104v229q0 79 -55 104l24 78q121 -43 121 -179z" />
    <glyph glyph-name="uni2090" unicode="&#x2090;" 
d="M129 -65q24 0 39 26v57h-25q-39 0 -39 -40v-8q0 -35 25 -35zM114 126v-3l-78 3v4q0 50 28 77.5t77 27.5q50 0 77.5 -27.5t27.5 -77.5v-256h-78v23q-16 -31 -54 -31q-37 0 -62.5 25.5t-25.5 76.5v10q0 49 29.5 76t81.5 27h31v45q0 40 -27 40t-27 -40z" />
    <glyph glyph-name="uni2091" unicode="&#x2091;" 
d="M139 -134q-53 0 -82.5 32.5t-29.5 89.5v125q0 57 29.5 89.5t82.5 32.5t82.5 -32.5t29.5 -89.5v-89h-146v-26q0 -59 34 -59q29 0 32 42l79 -5q-13 -110 -111 -110zM105 103v-19h68v19q0 32 -7.5 45.5t-26.5 13.5q-34 0 -34 -59z" />
    <glyph glyph-name="uni2092" unicode="&#x2092;" 
d="M173 -3v107q0 59 -34 59q-19 0 -26.5 -13.5t-7.5 -45.5v-107q0 -32 7.5 -45.5t26.5 -13.5q34 0 34 59zM251 113v-125q0 -57 -29.5 -89.5t-82.5 -32.5q-54 0 -83 32.5t-29 89.5v125q0 57 29 89.5t83 32.5q53 0 82.5 -32.5t29.5 -89.5z" />
    <glyph glyph-name="uni2093" unicode="&#x2093;" 
d="M180 -125l-41 117l-41 -117h-84l74 180l-66 165h82l35 -100l35 100h82l-66 -165l74 -180h-84z" />
    <glyph glyph-name="uni2094" unicode="&#x2094;" 
d="M139 235q53 0 82.5 -32.5t29.5 -89.5v-125q0 -57 -29.5 -89.5t-82.5 -32.5t-82.5 32.5t-29.5 89.5v89h146v26q0 59 -34 59q-29 0 -32 -42l-79 5q13 110 111 110zM173 -2v19h-68v-19q0 -32 7.5 -45.5t26.5 -13.5q34 0 34 59z" />
    <glyph glyph-name="uni20A0" unicode="&#x20a0;" horiz-adv-x="509" 
d="M27 357v201q0 76 42 115t117 39q74 0 115 -38.5t41 -115.5v-16l-103 -3v11q0 71 -53 71q-52 0 -52 -84v-171q0 -71 54 -71q33 0 51 18v177h251v-91h-145v-106h117v-90h-117v-113h145v-90h-251v219q-23 -15 -64 -15q-66 0 -107 38.5t-41 114.5z" />
    <glyph glyph-name="colonmonetary" unicode="&#x20a1;" horiz-adv-x="438" 
d="M208 -11v-83h-59v94q-115 42 -115 209v282q0 166 115 208v95h59v-83q5 1 15 1q11 0 17 -1v83h59v-95q113 -44 113 -208v-22l-116 -5v12q0 69 -17.5 100.5t-55.5 31.5t-55.5 -31.5t-17.5 -100.5v-252q0 -69 17.5 -100.5t55.5 -31.5t55.5 31.5t17.5 100.5v12l116 -5v-22
q0 -164 -113 -208v-95h-59v83q-6 -1 -17 -1q-10 0 -15 1z" />
    <glyph glyph-name="uni20A2" unicode="&#x20a2;" horiz-adv-x="438" 
d="M296 224v12l116 -5v-22q0 -109 -50.5 -165t-138.5 -56t-138.5 56t-50.5 165v282q0 109 50.5 165t138.5 56t138.5 -56t50.5 -165v-22l-116 -5v12q0 69 -17.5 100.5t-55.5 31.5t-55.5 -31.5t-17.5 -100.5v-252q0 -91 32 -119v292h83v-34q19 43 58 43q17 0 30 -6v-89
q-16 6 -35 6q-36 0 -53 -41v-170q31 28 31 118z" />
    <glyph glyph-name="franc" unicode="&#x20a3;" horiz-adv-x="385" 
d="M-5 320h51v50h-51v63h51v267h323v-104h-207v-163h138v-63h-138v-50h138v-63h-138v-257h-116v257h-51v63z" />
    <glyph glyph-name="lira" unicode="&#x20a4;" horiz-adv-x="430" 
d="M402 519v-16l-116 -5v23q0 87 -49 87t-49 -87v-116h134v-64h-134v-46h134v-63h-134q0 -86 -28 -128h241v-104h-369v88q40 52 40 133v11h-48v63h48v46h-48v64h48v114q0 193 165 193t165 -193z" />
    <glyph glyph-name="uni20A6" unicode="&#x20a6;" horiz-adv-x="492" 
d="M0 436h57v264h103l161 -429v429h114v-267h57v-64h-57v-42h57v-64h-57v-263h-103l-161 429v-429h-114v266h-57v64h57v42h-57v64z" />
    <glyph glyph-name="peseta" unicode="&#x20a7;" horiz-adv-x="853" 
d="M260 478q0 121 -80 121h-22v-243h22q80 0 80 122zM814 360l-100 -4v22q0 39 -30 39t-30 -39v-8q0 -29 9.5 -41t37.5 -21l19 -6q58 -18 82 -51t24 -95v-16q0 -65 -38.5 -102.5t-105.5 -37.5h-160q-66 0 -96 35.5t-30 121.5v248h-38q-15 -74 -59.5 -111.5t-106.5 -37.5h-34
v-256h-112v700h131q79 0 130.5 -47.5t57.5 -152.5h31v142h103v-142h78v-37q38 49 107 49q61 0 95.5 -37.5t34.5 -100.5v-14zM547 95h115q61 0 61 55v15q0 36 -45 51l-21 7q-59 20 -82.5 50.5t-23.5 95.5v4q0 17 3 32h-55v-246q0 -38 10 -51t38 -13z" />
    <glyph glyph-name="uni20A8" unicode="&#x20a8;" horiz-adv-x="710" 
d="M301 298l100 -298h-116l-84 269h-45v-269h-110v700h149q84 0 134.5 -54t50.5 -162q0 -134 -79 -186zM270 484q0 115 -89 115h-25v-229h25q89 0 89 114zM410 142l101 4v-16q0 -50 35 -50t35 50v9q0 31 -13 44.5t-50 27.5l-21 8q-50 19 -70 52t-20 97v9q0 60 34 97.5
t97 37.5t97 -37.5t34 -97.5v-17l-101 -4v19q0 44 -30 44t-30 -44v-5q0 -28 11 -42.5t42 -26.5l16 -6q60 -22 82.5 -54.5t22.5 -96.5v-15q0 -65 -36 -103t-100 -38t-100 38t-36 103v13z" />
    <glyph glyph-name="uni20A9" unicode="&#x20a9;" horiz-adv-x="670" 
d="M0 438h59l-51 262h118l76 -458l78 458h111l77 -458l76 458h118l-51 -262h59v-64h-72l-8 -42h80v-64h-92l-52 -268h-111l-80 474l-80 -474h-111l-52 268h-92v64h79l-8 42h-71v64z" />
    <glyph glyph-name="afii57636" unicode="&#x20aa;" horiz-adv-x="635" 
d="M47 0v700h218q89 0 132.5 -50.5t43.5 -155.5v-234h-100v217q0 69 -20.5 98.5t-62.5 29.5h-111v-605h-100zM588 700v-700h-218q-89 0 -132.5 50.5t-43.5 155.5v234h100v-217q0 -69 20.5 -98.5t62.5 -29.5h111v605h100z" />
    <glyph glyph-name="dong" unicode="&#x20ab;" horiz-adv-x="401" 
d="M165 564v78h80v58h106v-58h50v-78h-50v-564h-106v36q-22 -48 -86 -48q-57 0 -93 42.5t-36 129.5v169q0 87 36 129.5t93 42.5q64 0 86 -48v111h-80zM245 124v241q-14 41 -54 41q-55 0 -55 -86v-151q0 -86 55 -86q40 0 54 41zM83 -155v77h254v-77h-254z" />
    <glyph glyph-name="Euro" unicode="&#x20ac;" horiz-adv-x="453" 
d="M165 325h94l-7 -64h-87v-37q0 -69 17.5 -100.5t55.5 -31.5t55.5 31.5t17.5 100.5v12l116 -5v-22q0 -109 -50.5 -165t-138.5 -56t-138.5 56t-50.5 165v52h-38v64h38v46h-38v64h38v56q0 109 50.5 165t138.5 56t138.5 -56t50.5 -165v-22l-116 -5v12q0 69 -17.5 100.5
t-55.5 31.5t-55.5 -31.5t-17.5 -100.5v-41h108l-7 -64h-101v-46z" />
    <glyph glyph-name="afii61248" unicode="&#x2105;" horiz-adv-x="738" 
d="M525 700l-230 -700h-83l230 700h83zM618 160v117q0 44 -8.5 63t-30.5 19t-30.5 -19t-8.5 -63v-117q0 -44 8.5 -63t30.5 -19t30.5 19t8.5 63zM711 293v-149q0 -72 -34.5 -112t-97.5 -40t-97.5 40t-34.5 112v149q0 72 34.5 112t97.5 40t97.5 -40t34.5 -112zM159 341
q22 0 30 17.5t9 58.5l93 -5v-5q0 -72 -34.5 -112t-97.5 -40t-97.5 40t-34.5 112v149q0 72 34.5 112t97.5 40t97.5 -40t34.5 -112v-5l-93 -5q-1 41 -9 58.5t-30 17.5t-30.5 -19t-8.5 -63v-117q0 -44 8.5 -63t30.5 -19z" />
    <glyph glyph-name="uni2109" unicode="&#x2109;" horiz-adv-x="619" 
d="M174 600q0 20 -10.5 31.5t-27.5 11.5t-27.5 -11.5t-10.5 -31.5t10.5 -31.5t27.5 -11.5t27.5 11.5t10.5 31.5zM246 600q0 -49 -30.5 -80t-79.5 -31t-79.5 31t-30.5 80t30.5 80t79.5 31t79.5 -31t30.5 -80zM280 0v700h323v-104h-207v-194h185v-104h-185v-298h-116z" />
    <glyph glyph-name="afii61289" unicode="&#x2113;" horiz-adv-x="378" 
d="M6 221q31 9 71 26v279q0 93 31.5 139.5t102.5 46.5q65 0 99.5 -41.5t34.5 -116.5v-34q0 -222 -164 -331v-44q0 -58 33 -58q31 0 34 57l104 -9q-8 -147 -141 -147q-66 0 -100 38t-34 111q-28 -11 -46 -15zM181 524v-204q60 70 60 186v28q0 46 -6 62t-24 16t-24 -17.5
t-6 -70.5z" />
    <glyph glyph-name="afii61352" unicode="&#x2116;" horiz-adv-x="657" 
d="M259 0l-118 420v-420h-94v700h89l118 -420v420h94v-700h-89zM385 0v77h242v-77h-242zM626 372v-125q0 -69 -34.5 -105.5t-86.5 -36.5t-86.5 36.5t-34.5 105.5v125q0 69 34.5 105.5t86.5 36.5t86.5 -36.5t34.5 -105.5zM470 370v-121q0 -58 35 -58t35 58v121q0 58 -35 58
t-35 -58z" />
    <glyph glyph-name="uni2117" unicode="&#x2117;" horiz-adv-x="542" 
d="M394 424q0 -65 -31 -99.5t-88 -34.5h-26v-151h-75v419h101q57 0 88 -34.5t31 -99.5zM249 358h22q48 0 48 66v8q-1 31 -13 44.5t-35 13.5h-22v-132zM30 283v133q0 149 62.5 222.5t178.5 73.5t178.5 -73.5t62.5 -222.5v-133q0 -149 -62.5 -222t-178.5 -73t-178.5 73
t-62.5 222zM453 291v117q0 132 -46.5 191t-135.5 59t-135.5 -59t-46.5 -191v-117q0 -249 182 -249t182 249z" />
    <glyph glyph-name="uni2120" unicode="&#x2120;" horiz-adv-x="472" 
d="M317 444l-31 88v-166h-70v334h62l54 -158l54 158h62v-334h-70v166l-31 -88h-30zM13 451v6l70 3v-10q0 -27 21 -27t21 27v10q0 19 -5 27.5t-21 12.5q-46 11 -67 35t-21 68v14q0 39 23.5 64t64.5 25t64.5 -25t23.5 -64v-10l-70 -3v14q0 24 -18 24t-18 -24v-14q0 -28 35 -38
q40 -12 59.5 -33.5t19.5 -64.5v-17q0 -41 -25 -66t-66 -25t-66 25t-25 66z" />
    <glyph glyph-name="uni2121" unicode="&#x2121;" horiz-adv-x="760" 
d="M8 604v96h301v-96h-97v-604h-107v604h-97zM358 296h96v46q0 43 -11 63t-37 20t-37 -20t-11 -63v-46zM586 157v555h95v-561q0 -37 10.5 -51t35.5 -14h20v-86h-44q-65 0 -91 35t-26 122zM263 172v156q0 184 143 184t143 -184v-117h-193v-73q0 -31 13.5 -47.5t35.5 -16.5
q45 0 47 72l94 -7q-5 -71 -39.5 -111t-100.5 -40q-143 0 -143 184z" />
    <glyph glyph-name="trademark" unicode="&#x2122;" horiz-adv-x="469" 
d="M8 626v74h187v-74h-56v-260h-75v260h-56zM314 444l-31 88v-166h-70v334h62l54 -158l54 158h62v-334h-70v166l-31 -88h-30z" />
    <glyph glyph-name="Omega" unicode="&#x2126;" horiz-adv-x="454" 
d="M227 712q88 0 138.5 -56t50.5 -165v-213q0 -131 -59 -174h56v-104h-162v94q31 17 40 57t9 121v204q0 69 -17.5 100.5t-55.5 31.5t-55.5 -31.5t-17.5 -100.5v-204q0 -81 9 -121t40 -57v-94h-162v104h56q-59 43 -59 174v213q0 109 50.5 165t138.5 56z" />
    <glyph glyph-name="estimated" unicode="&#x212e;" horiz-adv-x="518" 
d="M383 371v237q-42 57 -124 57t-124 -57v-237h248zM135 324v-228q39 -61 129 -61q53 0 87.5 20t61.5 62l51 -10q-65 -119 -200 -119q-104 0 -168 74.5t-64 208.5v158q0 133 63.5 208t163.5 75t163.5 -75t63.5 -208v-105h-351z" />
    <glyph glyph-name="onethird" unicode="&#x2153;" horiz-adv-x="696" 
d="M252 237h-208v81h60v289l-60 -26v83l76 36h73v-382h59v-81zM504 700l-230 -700h-83l230 700h83zM605 125v35q0 33 -6.5 45.5t-21.5 12.5q-11 0 -24 -10l-46 46l78 126h-112v83h210v-77l-65 -101q77 -5 77 -118v-36q0 -139 -116 -139q-117 0 -117 139v18l90 3v-27
q0 -52 27 -52q15 0 20.5 12t5.5 40z" />
    <glyph glyph-name="twothirds" unicode="&#x2154;" horiz-adv-x="696" 
d="M46 558v17q0 65 30 99t86 34t86 -34t30 -99v-11q0 -61 -31 -109l-88 -137h119v-81h-230v69l122 193q18 28 18 65v13q0 45 -26 45t-26 -45v-22zM504 700l-230 -700h-83l230 700h83zM605 125v35q0 33 -6.5 45.5t-21.5 12.5q-11 0 -24 -10l-46 46l78 126h-112v83h210v-77
l-65 -101q77 -5 77 -118v-36q0 -139 -116 -139q-117 0 -117 139v18l90 3v-27q0 -52 27 -52q15 0 20.5 12t5.5 40z" />
    <glyph glyph-name="onefifth" unicode="&#x2155;" horiz-adv-x="696" 
d="M254 237h-208v81h60v289l-60 -26v83l76 36h73v-382h59v-81zM504 700l-230 -700h-83l230 700h83zM580 74q16 0 21.5 13.5t5.5 46.5v40q0 34 -5 46t-17 12q-16 0 -19 -25h-88v256h202v-82h-112v-84q16 15 41 15q43 0 65.5 -32.5t22.5 -114.5v-32q0 -70 -27.5 -105.5
t-89.5 -35.5q-61 0 -89 35.5t-28 105.5v14l90 3v-23q0 -53 27 -53z" />
    <glyph glyph-name="twofifths" unicode="&#x2156;" horiz-adv-x="696" 
d="M46 558v17q0 65 30 99t86 34t86 -34t30 -99v-11q0 -61 -31 -109l-88 -137h119v-81h-230v69l122 193q18 28 18 65v13q0 45 -26 45t-26 -45v-22zM504 700l-230 -700h-83l230 700h83zM580 74q16 0 21.5 13.5t5.5 46.5v40q0 34 -5 46t-17 12q-16 0 -19 -25h-88v256h202v-82
h-112v-84q16 15 41 15q43 0 65.5 -32.5t22.5 -114.5v-32q0 -70 -27.5 -105.5t-89.5 -35.5q-61 0 -89 35.5t-28 105.5v14l90 3v-23q0 -53 27 -53z" />
    <glyph glyph-name="threefifths" unicode="&#x2157;" horiz-adv-x="696" 
d="M187 362v35q0 33 -6.5 45.5t-21.5 12.5q-11 0 -24 -10l-46 46l78 126h-112v83h210v-77l-65 -101q77 -5 77 -118v-36q0 -139 -116 -139q-117 0 -117 139v18l90 3v-27q0 -52 27 -52q15 0 20.5 12t5.5 40zM504 700l-230 -700h-83l230 700h83zM580 74q16 0 21.5 13.5
t5.5 46.5v40q0 34 -5 46t-17 12q-16 0 -19 -25h-88v256h202v-82h-112v-84q16 15 41 15q43 0 65.5 -32.5t22.5 -114.5v-32q0 -70 -27.5 -105.5t-89.5 -35.5q-61 0 -89 35.5t-28 105.5v14l90 3v-23q0 -53 27 -53z" />
    <glyph glyph-name="fourfifths" unicode="&#x2158;" horiz-adv-x="696" 
d="M103 404h55v128zM277 404v-81h-34v-86h-85v86h-132v72l132 305h85v-296h34zM504 700l-230 -700h-83l230 700h83zM580 74q16 0 21.5 13.5t5.5 46.5v40q0 34 -5 46t-17 12q-16 0 -19 -25h-88v256h202v-82h-112v-84q16 15 41 15q43 0 65.5 -32.5t22.5 -114.5v-32
q0 -70 -27.5 -105.5t-89.5 -35.5q-61 0 -89 35.5t-28 105.5v14l90 3v-23q0 -53 27 -53z" />
    <glyph glyph-name="onesixth" unicode="&#x2159;" horiz-adv-x="696" 
d="M254 237h-208v81h60v289l-60 -26v83l76 36h73v-382h59v-81zM504 700l-230 -700h-83l230 700h83zM605 148v-14q0 -63 -30 -63t-30 63v18q0 58 30 58t30 -62zM693 131v20q0 66 -29 101.5t-81 35.5l58 175h-95l-71 -205q-18 -52 -18 -107v-20q0 -66 31 -102.5t87 -36.5
t87 36.5t31 102.5z" />
    <glyph glyph-name="fivesixths" unicode="&#x215a;" horiz-adv-x="696" 
d="M163 311q16 0 21.5 13.5t5.5 46.5v40q0 34 -5 46t-17 12q-16 0 -19 -25h-88v256h202v-82h-112v-84q17 15 41 15q43 0 65.5 -32.5t22.5 -114.5v-32q0 -70 -27.5 -105.5t-89.5 -35.5q-61 0 -89 35.5t-28 105.5v14l90 3v-23q0 -53 27 -53zM504 700l-230 -700h-83l230 700h83
zM605 148v-14q0 -63 -30 -63t-30 63v18q0 58 30 58t30 -62zM693 131v20q0 66 -29 101.5t-81 35.5l58 175h-95l-71 -205q-18 -52 -18 -107v-20q0 -66 31 -102.5t87 -36.5t87 36.5t31 102.5z" />
    <glyph glyph-name="oneeighth" unicode="&#x215b;" horiz-adv-x="696" 
d="M254 237h-208v81h60v289l-60 -26v83l76 36h73v-382h59v-81zM504 700l-230 -700h-83l230 700h83zM574 396q25 0 25 -45v-18q0 -45 -25 -45t-25 45v18q0 45 25 45zM574 214q32 0 32 -62v-22q0 -62 -32 -62t-32 62v22q0 62 32 62zM574 -7q120 0 120 140v17q0 78 -45 104
q34 24 34 82v15q0 57 -28 88.5t-81 31.5t-81 -31.5t-28 -88.5v-15q0 -58 34 -82q-45 -26 -45 -104v-17q0 -140 120 -140z" />
    <glyph glyph-name="threeeighths" unicode="&#x215c;" horiz-adv-x="696" 
d="M187 362v35q0 33 -6.5 45.5t-21.5 12.5q-11 0 -24 -10l-46 46l78 126h-112v83h210v-77l-65 -101q77 -5 77 -118v-36q0 -139 -116 -139q-117 0 -117 139v18l90 3v-27q0 -52 27 -52q15 0 20.5 12t5.5 40zM504 700l-230 -700h-83l230 700h83zM574 396q25 0 25 -45v-18
q0 -45 -25 -45t-25 45v18q0 45 25 45zM574 214q32 0 32 -62v-22q0 -62 -32 -62t-32 62v22q0 62 32 62zM574 -7q120 0 120 140v17q0 78 -45 104q34 24 34 82v15q0 57 -28 88.5t-81 31.5t-81 -31.5t-28 -88.5v-15q0 -58 34 -82q-45 -26 -45 -104v-17q0 -140 120 -140z" />
    <glyph glyph-name="fiveeighths" unicode="&#x215d;" horiz-adv-x="696" 
d="M163 311q16 0 21.5 13.5t5.5 46.5v40q0 34 -5 46t-17 12q-16 0 -19 -25h-88v256h202v-82h-112v-84q17 15 41 15q43 0 65.5 -32.5t22.5 -114.5v-32q0 -70 -27.5 -105.5t-89.5 -35.5q-61 0 -89 35.5t-28 105.5v14l90 3v-23q0 -53 27 -53zM504 700l-230 -700h-83l230 700h83
zM574 396q25 0 25 -45v-18q0 -45 -25 -45t-25 45v18q0 45 25 45zM574 214q32 0 32 -62v-22q0 -62 -32 -62t-32 62v22q0 62 32 62zM574 -7q120 0 120 140v17q0 78 -45 104q34 24 34 82v15q0 57 -28 88.5t-81 31.5t-81 -31.5t-28 -88.5v-15q0 -58 34 -82q-45 -26 -45 -104v-17
q0 -140 120 -140z" />
    <glyph glyph-name="seveneighths" unicode="&#x215e;" horiz-adv-x="696" 
d="M44 623v77h233v-67l-110 -396h-93l108 386h-138zM504 700l-230 -700h-83l230 700h83zM574 396q25 0 25 -45v-18q0 -45 -25 -45t-25 45v18q0 45 25 45zM574 214q32 0 32 -62v-22q0 -62 -32 -62t-32 62v22q0 62 32 62zM574 -7q120 0 120 140v17q0 78 -45 104q34 24 34 82
v15q0 57 -28 88.5t-81 31.5t-81 -31.5t-28 -88.5v-15q0 -58 34 -82q-45 -26 -45 -104v-17q0 -140 120 -140z" />
    <glyph glyph-name="uni215F" unicode="&#x215f;" horiz-adv-x="696" 
d="M254 237h-208v81h60v289l-60 -26v83l76 36h73v-382h59v-81zM504 700l-230 -700h-83l230 700h83z" />
    <glyph glyph-name="arrowleft" unicode="&#x2190;" horiz-adv-x="616" 
d="M207 380h383v-96h-383v-111l-181 159l181 159v-111z" />
    <glyph glyph-name="arrowup" unicode="&#x2191;" horiz-adv-x="615" 
d="M356 -38h-97v606h-111l160 182l159 -182h-111v-606z" />
    <glyph glyph-name="arrowright" unicode="&#x2192;" horiz-adv-x="616" 
d="M26 380h383v111l181 -159l-181 -159v111h-383v96z" />
    <glyph glyph-name="arrowdown" unicode="&#x2193;" horiz-adv-x="615" 
d="M259 750h97v-606h111l-159 -182l-160 182h111v606z" />
    <glyph glyph-name="arrowboth" unicode="&#x2194;" horiz-adv-x="616" 
d="M207 380h202v111l181 -159l-181 -159v111h-202v-111l-181 159l181 159v-111z" />
    <glyph glyph-name="arrowupdn" unicode="&#x2195;" horiz-adv-x="615" 
d="M148 143h111v425h-111l160 182l159 -182h-111v-425h111l-159 -181z" />
    <glyph glyph-name="arrowupdnbse" unicode="&#x21a8;" horiz-adv-x="615" 
d="M148 143h111v425h-111l160 182l159 -182h-111v-425h111l-137 -156h139v-75h-323v75h140z" />
    <glyph glyph-name="partialdiff" unicode="&#x2202;" horiz-adv-x="443" 
d="M218 -12q-85 0 -134.5 53.5t-49.5 158.5v46q0 103 47.5 157t127.5 54q44 0 77 -22v90q0 83 -60 83q-32 0 -46 -25t-14 -83l-116 5q0 207 176 207q87 0 131.5 -49.5t44.5 -134.5v-328q0 -105 -49.5 -158.5t-134.5 -53.5zM218 92q37 0 52.5 29.5t15.5 99.5v108
q-27 24 -65 24q-41 0 -56 -28t-15 -104q0 -70 15.5 -99.5t52.5 -29.5z" />
    <glyph glyph-name="Delta" unicode="&#x2206;" horiz-adv-x="435" 
d="M248 700l187 -700h-435l187 700h61zM218 414l-75 -308h149z" />
    <glyph glyph-name="product" unicode="&#x220f;" horiz-adv-x="453" 
d="M291 -111v746h-129v-746h-115v851h359v-851h-115z" />
    <glyph glyph-name="summation" unicode="&#x2211;" horiz-adv-x="389" 
d="M26 -15l119 337l-119 318v100h345v-104h-224l107 -294v-41l-106 -308h223v-104h-345v96z" />
    <glyph glyph-name="minus" unicode="&#x2212;" horiz-adv-x="413" 
d="M33 280v90h347v-90h-347z" />
    <glyph glyph-name="uni2215" unicode="&#x2215;" horiz-adv-x="133" 
d="M223 700l-230 -700h-83l230 700h83z" />
    <glyph glyph-name="uni2219" unicode="&#x2219;" horiz-adv-x="194" 
d="M153 386v-122h-112v122h112z" />
    <glyph glyph-name="radical" unicode="&#x221a;" horiz-adv-x="408" 
d="M261 0h-94l-115 282h-49v94h112l80 -198l109 592h101z" />
    <glyph glyph-name="infinity" unicode="&#x221e;" horiz-adv-x="572" 
d="M542 326q0 -57 -34.5 -89.5t-93.5 -32.5q-75 0 -128 61q-53 -61 -128 -61q-59 0 -93.5 32.5t-34.5 89.5t34.5 89.5t93.5 32.5q75 0 128 -61q53 61 128 61q59 0 93.5 -32.5t34.5 -89.5zM329 326q38 -45 79 -45q20 0 32 12.5t12 32.5t-12 32.5t-32 12.5q-42 0 -79 -45z
M243 326q-38 45 -79 45q-20 0 -32 -12.5t-12 -32.5t12 -32.5t32 -12.5q42 0 79 45z" />
    <glyph glyph-name="orthogonal" unicode="&#x221f;" horiz-adv-x="406" 
d="M394 104v-104h-347v575h115v-471h232z" />
    <glyph glyph-name="intersection" unicode="&#x2229;" horiz-adv-x="477" 
d="M238 517q-41 0 -60.5 -35t-19.5 -111v-371h-111v386q0 113 50.5 172t140.5 59q91 0 141.5 -59t50.5 -172v-386h-111v371q0 76 -19.5 111t-61.5 35z" />
    <glyph glyph-name="integral" unicode="&#x222b;" horiz-adv-x="276" 
d="M191 565v-622q0 -87 -29.5 -122.5t-100.5 -35.5h-50v95h31q25 0 34 13.5t9 51.5v622q0 87 29.5 122.5t100.5 35.5h50v-95h-31q-25 0 -34 -13.5t-9 -51.5z" />
    <glyph glyph-name="approxequal" unicode="&#x2248;" horiz-adv-x="413" 
d="M265 262q15 0 22 10t8 35l92 -4q-1 -129 -109 -129q-36 0 -75 24.5t-55 24.5q-15 0 -22 -10t-8 -35l-92 4q2 129 109 129q37 0 76 -24.5t54 -24.5zM265 425q15 0 22 10t8 35l92 -4q-1 -129 -109 -129q-36 0 -75 24.5t-55 24.5q-15 0 -22 -10t-8 -35l-92 4q2 129 109 129
q37 0 76 -24.5t54 -24.5z" />
    <glyph glyph-name="notequal" unicode="&#x2260;" horiz-adv-x="413" 
d="M33 367v90h194l50 118h69l-50 -118h84v-90h-122l-34 -82h156v-90h-194l-50 -118h-69l50 118h-84v90h122l34 82h-156z" />
    <glyph glyph-name="equivalence" unicode="&#x2261;" horiz-adv-x="413" 
d="M33 445v90h347v-90h-347zM33 281v90h347v-90h-347zM33 117v90h347v-90h-347z" />
    <glyph glyph-name="lessequal" unicode="&#x2264;" horiz-adv-x="413" 
d="M33 0v90h347v-90h-347zM371 132l-329 143v96l329 143v-99l-226 -92l226 -92v-99z" />
    <glyph glyph-name="greaterequal" unicode="&#x2265;" horiz-adv-x="413" 
d="M380 90v-90h-347v90h347zM371 275l-329 -143v99l226 92l-226 92v99l329 -143v-96z" />
    <glyph glyph-name="house" unicode="&#x2302;" horiz-adv-x="441" 
d="M220 428l-76 -126v-208h151v208zM42 327l178 290l178 -290v-327h-356v327z" />
    <glyph glyph-name="revlogicalnot" unicode="&#x2310;" horiz-adv-x="413" 
d="M382 372v-90h-240v-127h-101v217h341z" />
    <glyph glyph-name="uni2318" unicode="&#x2318;" horiz-adv-x="611" 
d="M129 532v-20q0 -52 29 -52h29v72q0 30 -6.5 41t-22.5 11q-15 0 -22 -11.5t-7 -40.5zM482 512v20q0 29 -7 40.5t-22 11.5q-16 0 -22.5 -11t-6.5 -41v-72h29q29 0 29 52zM273 384v-114h65v114h-65zM187 270v114h-29q-114 0 -114 128v20q0 128 114 128q58 0 86.5 -32.5
t28.5 -102.5v-65h65v65q0 70 28.5 102.5t86.5 32.5q114 0 114 -128v-20q0 -128 -114 -128h-29v-114h29q114 0 114 -128v-20q0 -128 -114 -128q-58 0 -86.5 32.5t-28.5 102.5v65h-65v-65q0 -70 -28.5 -102.5t-86.5 -32.5q-114 0 -114 128v20q0 128 114 128h29zM129 142v-20
q0 -29 7 -40.5t22 -11.5q16 0 22.5 11t6.5 41v72h-29q-29 0 -29 -52zM482 122v20q0 52 -29 52h-29v-72q0 -30 6.5 -41t22.5 -11q15 0 22 11.5t7 40.5z" />
    <glyph glyph-name="lozenge" unicode="&#x25ca;" horiz-adv-x="455" 
d="M136 301l92 -208l91 208l-91 209zM430 301l-202 -461l-202 461l202 461z" />
    <glyph glyph-name="H18533" unicode="&#x25cf;" horiz-adv-x="890" 
d="M131 302q0 130 92 222.5t222 92.5t222 -92.5t92 -222.5t-92 -222.5t-222 -92.5t-222 92.5t-92 222.5z" />
    <glyph glyph-name="fi" horiz-adv-x="441" 
d="M289 0v405h-119v-405h-106v405h-49v95h49v54q0 87 29.5 122.5t100.5 35.5h50v-95h-31q-25 0 -34 -13.5t-9 -51.5v-52h225v-500h-106zM289 590v122h106v-122h-106z" />
    <glyph glyph-name="fl" horiz-adv-x="473" 
d="M288 157v445q-26 14 -65 14q-30 0 -41.5 -14.5t-11.5 -52.5v-49h74v-95h-74v-405h-106v405h-49v95h49v40q0 93 30.5 132.5t100.5 39.5q51 0 93 -22v22h105v-552q0 -38 9 -51.5t34 -13.5h24v-95h-48q-67 0 -95.5 35.5t-28.5 121.5z" />
    <glyph glyph-name="commaaccent" 
d="M203 -49l-54 -161h-74l30 161h98z" />
    <glyph glyph-name="zero.tnum" horiz-adv-x="388" 
d="M142 518v-336q0 -53 13 -74t39 -21t39 21t13 74v336q0 53 -13 74t-39 21t-39 -21t-13 -74zM357 512v-324q0 -97 -42 -148.5t-121 -51.5t-121 51.5t-42 148.5v324q0 97 42 148.5t121 51.5t121 -51.5t42 -148.5z" />
    <glyph glyph-name="one.tnum" horiz-adv-x="333" 
d="M325 0h-290v99h90v475l-90 -41v108l112 59h89v-601h89v-99z" />
    <glyph glyph-name="two.tnum" horiz-adv-x="382" 
d="M191 613q-47 0 -47 -91v-47l-111 5v44q0 93 40.5 140.5t117.5 47.5t118 -47t41 -141v-27q0 -77 -48 -162l-133 -236h181v-99h-318v81l179 318q28 50 28 98v25q0 91 -48 91z" />
    <glyph glyph-name="three.tnum" horiz-adv-x="378" 
d="M352 252v-65q0 -97 -42 -148t-121 -51t-121 51t-42 149v34l111 5v-36q0 -59 12.5 -82t39.5 -23t39.5 23t12.5 82v49q0 112 -50 112q-19 0 -38 -15l-57 56l113 208h-167v99h292v-91l-99 -178q57 -1 87 -48t30 -131z" />
    <glyph glyph-name="four.tnum" horiz-adv-x="383" 
d="M113 235h95v262zM368 235v-98h-51v-137h-109v137h-193v86l179 477h123v-465h51z" />
    <glyph glyph-name="five.tnum" horiz-adv-x="383" 
d="M357 249v-63q0 -96 -42 -147t-121 -51t-121 51t-42 149v36l111 5v-38q0 -59 12.5 -81.5t39.5 -22.5t39.5 22.5t12.5 81.5v56q0 74 -10.5 100t-36.5 26q-31 0 -38 -45h-109v372h279v-99h-168v-163q20 33 69 33q125 0 125 -222z" />
    <glyph glyph-name="six.tnum" horiz-adv-x="375" 
d="M355 219v-22q0 -101 -42 -155t-123 -54t-123 54t-42 155v30q0 95 27 169l110 304h118l-99 -268q10 4 21 4q75 0 114 -56.5t39 -160.5zM136 227v-30q0 -62 12 -86.5t42 -24.5t42 24.5t12 86.5v30q0 62 -12 86.5t-42 24.5t-42 -24.5t-12 -86.5z" />
    <glyph glyph-name="seven.tnum" horiz-adv-x="361" 
d="M22 601v99h317v-86l-161 -614h-114l157 601h-199z" />
    <glyph glyph-name="eight.tnum" horiz-adv-x="384" 
d="M192 -12q-166 0 -166 211v22q0 128 69 165q-52 34 -52 127v22q0 85 39 131t110 46t110 -46t39 -131v-22q0 -93 -52 -127q69 -37 69 -165v-22q0 -211 -166 -211zM192 615q-44 0 -44 -81v-23q0 -81 44 -81t44 81v23q0 81 -44 81zM192 334q-31 0 -44.5 -25.5t-13.5 -88.5
v-19q0 -63 13.5 -88.5t44.5 -25.5t44.5 25.5t13.5 88.5v19q0 63 -13.5 88.5t-44.5 25.5z" />
    <glyph glyph-name="nine.tnum" horiz-adv-x="378" 
d="M26 481v22q0 101 42 155t123 54t123 -54t42 -155v-30q0 -96 -27 -169l-110 -304h-118l99 268q-10 -4 -21 -4q-75 0 -114 56.5t-39 160.5zM245 473v30q0 62 -12 86.5t-42 24.5t-42 -24.5t-12 -86.5v-30q0 -62 12 -86.5t42 -24.5t42 24.5t12 86.5z" />
    <glyph glyph-name="parenleft.case" horiz-adv-x="269" 
d="M155 524v-347q0 -139 88 -175l-33 -105q-81 30 -123 99.5t-42 169.5v369q0 100 42 169.5t123 99.5l33 -105q-88 -36 -88 -175z" />
    <glyph glyph-name="parenright.case" horiz-adv-x="269" 
d="M114 177v347q0 139 -88 175l33 105q81 -30 123 -99.5t42 -169.5v-369q0 -100 -42 -169.5t-123 -99.5l-33 105q88 36 88 175z" />
    <glyph glyph-name="hyphen.case" horiz-adv-x="302" 
d="M33 303v94h236v-94h-236z" />
    <glyph glyph-name="at.case" horiz-adv-x="538" 
d="M399 292v142q-18 31 -53 31q-29 0 -41.5 -22.5t-12.5 -80.5v-70q0 -57 12.5 -79.5t40.5 -22.5t41 22.5t13 79.5zM269 -101q-108 0 -166 65.5t-58 183.5v403q0 118 58 183.5t166 65.5t166 -65.5t58 -183.5v-266q0 -189 -151 -189q-150 0 -150 191v82q0 91 34.5 140.5
t102.5 49.5q43 0 70 -33v15q0 91 -33.5 129t-96.5 38t-96.5 -38t-33.5 -129v-383q0 -91 33.5 -129t96.5 -38q41 0 78 22l35 -78q-50 -36 -113 -36z" />
    <glyph glyph-name="bracketleft.case" horiz-adv-x="262" 
d="M52 -88v876h188v-101h-79v-674h79v-101h-188z" />
    <glyph glyph-name="bracketright.case" horiz-adv-x="262" 
d="M210 788v-876h-188v101h79v674h-79v101h188z" />
    <glyph glyph-name="braceleft.case" 
d="M23 301v98h7q51 0 51 54v183q0 81 38.5 116.5t122.5 35.5h17v-100h-17q-51 0 -51 -60v-156q0 -52 -15.5 -81.5t-53.5 -40.5q38 -11 53.5 -40.5t15.5 -81.5v-156q0 -60 51 -60h17v-100h-17q-84 0 -122.5 35.5t-38.5 116.5v183q0 54 -51 54h-7z" />
    <glyph glyph-name="braceright.case" 
d="M255 399v-98h-7q-51 0 -51 -54v-183q0 -81 -38.5 -116.5t-122.5 -35.5h-17v100h17q51 0 51 60v156q0 52 15.5 81.5t53.5 40.5q-38 11 -53.5 40.5t-15.5 81.5v156q0 60 -51 60h-17v100h17q84 0 122.5 -35.5t38.5 -116.5v-183q0 -54 51 -54h7z" />
    <glyph glyph-name="exclamdown.case" horiz-adv-x="220" 
d="M54 104l15 378h82l15 -378v-104h-112v104zM164 700v-118h-108v118h108z" />
    <glyph glyph-name="guillemotleft.case" horiz-adv-x="370" 
d="M25 379l158 129v-95l-81 -63l81 -63v-95l-158 129v58zM187 379l158 129v-95l-81 -63l81 -63v-95l-158 129v58z" />
    <glyph glyph-name="periodcentered.case" horiz-adv-x="194" 
d="M153 411v-122h-112v122h112z" />
    <glyph glyph-name="guillemotright.case" horiz-adv-x="370" 
d="M187 508l158 -129v-58l-158 -129v95l81 63l-81 63v95zM25 508l158 -129v-58l-158 -129v95l81 63l-81 63v95z" />
    <glyph glyph-name="questiondown.case" horiz-adv-x="380" 
d="M138 582v118h108v-118h-108zM39 194v-30q0 -86 41 -131t114 -45t114 45t41 131v29l-108 5v-25q0 -79 -47 -79t-48 79v24q0 59 42 106q35 38 46.5 73.5t11.5 100.5v35h-108v-26q0 -41 -9 -67.5t-34 -56.5q-56 -67 -56 -168z" />
    <glyph glyph-name="endash.case" horiz-adv-x="358" 
d="M358 302h-358v96h358v-96z" />
    <glyph glyph-name="emdash.case" horiz-adv-x="717" 
d="M717 303h-717v95h717v-95z" />
    <glyph glyph-name="bullet.case" horiz-adv-x="286" 
d="M33 350q0 46 32 78.5t78 32.5t78 -32.5t32 -78.5t-32 -78.5t-78 -32.5t-78 32.5t-32 78.5z" />
    <glyph glyph-name="guilsinglleft.case" horiz-adv-x="208" 
d="M25 379l158 129v-95l-81 -63l81 -63v-95l-158 129v58z" />
    <glyph glyph-name="guilsinglright.case" horiz-adv-x="208" 
d="M25 508l158 -129v-58l-158 -129v95l81 63l-81 63v95z" />
    <glyph glyph-name="zero.numerator" 
d="M139 626q-29 0 -29 -54v-207q0 -54 29 -54t29 54v207q0 54 -29 54zM139 229q-55 0 -87 34.5t-32 97.5v215q0 63 32 97.5t87 34.5t87 -34.5t32 -97.5v-215q0 -63 -32 -97.5t-87 -34.5z" />
    <glyph glyph-name="one.numerator" 
d="M254 237h-208v81h60v289l-60 -26v83l76 36h73v-382h59v-81z" />
    <glyph glyph-name="two.numerator" 
d="M46 558v17q0 65 30 99t86 34t86 -34t30 -99v-11q0 -61 -31 -109l-88 -137h119v-81h-230v69l122 193q18 28 18 65v13q0 45 -26 45t-26 -45v-22z" />
    <glyph glyph-name="three.numerator" 
d="M187 362v35q0 33 -6.5 45.5t-21.5 12.5q-11 0 -24 -10l-46 46l78 126h-112v83h210v-77l-65 -101q77 -5 77 -118v-36q0 -139 -116 -139q-117 0 -117 139v18l90 3v-27q0 -52 27 -52q15 0 20.5 12t5.5 40z" />
    <glyph glyph-name="four.numerator" 
d="M103 404h55v128zM277 404v-81h-34v-86h-85v86h-132v72l132 305h85v-296h34z" />
    <glyph glyph-name="five.numerator" 
d="M163 311q16 0 21.5 13.5t5.5 46.5v40q0 34 -5 46t-17 12q-16 0 -19 -25h-88v256h202v-82h-112v-84q17 15 41 15q43 0 65.5 -32.5t22.5 -114.5v-32q0 -70 -27.5 -105.5t-89.5 -35.5q-61 0 -89 35.5t-28 105.5v14l90 3v-23q0 -53 27 -53z" />
    <glyph glyph-name="six.numerator" 
d="M188 371v14q0 62 -30 62t-30 -58v-18q0 -63 30 -63t30 63zM276 388v-20q0 -66 -31 -102.5t-87 -36.5t-87 36.5t-31 102.5v20q0 54 18 107l71 205h95l-58 -175q52 0 81 -35.5t29 -101.5z" />
    <glyph glyph-name="seven.numerator" 
d="M44 623v77h233v-67l-110 -396h-93l108 386h-138z" />
    <glyph glyph-name="eight.numerator" 
d="M158 633q-25 0 -25 -45v-18q0 -45 25 -45t25 45v18q0 45 -25 45zM158 451q-32 0 -32 -62v-22q0 -62 32 -62t32 62v22q0 62 -32 62zM158 230q-120 0 -120 140v17q0 78 45 104q-34 24 -34 82v15q0 57 28 88.5t81 31.5t81 -31.5t28 -88.5v-15q0 -58 -34 -82q45 -26 45 -104
v-17q0 -140 -120 -140z" />
    <glyph glyph-name="nine.numerator" 
d="M128 566v-14q0 -62 30 -62t30 58v18q0 63 -30 63t-30 -63zM40 549v20q0 66 31 102.5t87 36.5t87 -36.5t31 -102.5v-20q0 -55 -18 -107l-71 -205h-95l58 175q-52 0 -81 35.5t-29 101.5z" />
    <glyph glyph-name="zero.denominator" 
d="M139 389q-29 0 -29 -54v-207q0 -54 29 -54t29 54v207q0 54 -29 54zM139 -8q-55 0 -87 34.5t-32 97.5v215q0 63 32 97.5t87 34.5t87 -34.5t32 -97.5v-215q0 -63 -32 -97.5t-87 -34.5z" />
    <glyph glyph-name="one.denominator" 
d="M254 0h-208v81h60v289l-60 -26v83l76 36h73v-382h59v-81z" />
    <glyph glyph-name="two.denominator" 
d="M46 321v17q0 65 30 99t86 34t86 -34t30 -99v-11q0 -61 -31 -109l-88 -137h119v-81h-230v69l122 193q18 28 18 65v13q0 45 -26 45t-26 -45v-22z" />
    <glyph glyph-name="three.denominator" 
d="M187 125v35q0 33 -6.5 45.5t-21.5 12.5q-11 0 -24 -10l-46 46l78 126h-112v83h210v-77l-65 -101q77 -5 77 -118v-36q0 -139 -116 -139q-117 0 -117 139v18l90 3v-27q0 -52 27 -52q15 0 20.5 12t5.5 40z" />
    <glyph glyph-name="four.denominator" 
d="M103 167h55v128zM277 167v-81h-34v-86h-85v86h-132v72l132 305h85v-296h34z" />
    <glyph glyph-name="five.denominator" 
d="M163 74q16 0 21.5 13.5t5.5 46.5v40q0 34 -5 46t-17 12q-16 0 -19 -25h-88v256h202v-82h-112v-84q17 15 41 15q43 0 65.5 -32.5t22.5 -114.5v-32q0 -70 -27.5 -105.5t-89.5 -35.5q-61 0 -89 35.5t-28 105.5v14l90 3v-23q0 -53 27 -53z" />
    <glyph glyph-name="six.denominator" 
d="M188 134v14q0 62 -30 62t-30 -58v-18q0 -63 30 -63t30 63zM276 151v-20q0 -66 -31 -102.5t-87 -36.5t-87 36.5t-31 102.5v20q0 55 18 107l71 205h95l-58 -175q52 0 81 -35.5t29 -101.5z" />
    <glyph glyph-name="seven.denominator" 
d="M44 386v77h233v-67l-110 -396h-93l108 386h-138z" />
    <glyph glyph-name="eight.denominator" 
d="M158 396q-25 0 -25 -45v-18q0 -45 25 -45t25 45v18q0 45 -25 45zM158 214q-32 0 -32 -62v-22q0 -62 32 -62t32 62v22q0 62 -32 62zM158 -7q-120 0 -120 140v17q0 78 45 104q-34 24 -34 82v15q0 57 28 88.5t81 31.5t81 -31.5t28 -88.5v-15q0 -58 -34 -82q45 -26 45 -104
v-17q0 -140 -120 -140z" />
    <glyph glyph-name="nine.denominator" 
d="M128 329v-14q0 -62 30 -62t30 58v18q0 63 -30 63t-30 -63zM40 312v20q0 66 31 102.5t87 36.5t87 -36.5t31 -102.5v-20q0 -54 -18 -107l-71 -205h-95l58 175q-52 0 -81 35.5t-29 101.5z" />
    </font>
</defs>
</svg>
